<?xml version="1.0" encoding="UTF-8" standalone="no"?>
<!-- Generator: Adobe Illustrator 16.0.0, SVG Export Plug-In . SVG Version: 6.00 Build 0)  -->

<svg
   xmlns:dc="http://purl.org/dc/elements/1.1/"
   xmlns:cc="http://creativecommons.org/ns#"
   xmlns:rdf="http://www.w3.org/1999/02/22-rdf-syntax-ns#"
   xmlns:svg="http://www.w3.org/2000/svg"
   xmlns="http://www.w3.org/2000/svg"
   xmlns:sodipodi="http://sodipodi.sourceforge.net/DTD/sodipodi-0.dtd"
   xmlns:inkscape="http://www.inkscape.org/namespaces/inkscape"
   version="1.1"
   id="Capa_1"
   x="0px"
   y="0px"
   width="611.99689"
   height="313.48062"
   viewBox="0 0 611.99688 313.48063"
   xml:space="preserve"
   sodipodi:docname="house.svg"
   inkscape:version="0.92.2 5c3e80d, 2017-08-06"><metadata
     id="metadata1024"><rdf:RDF><cc:Work
         rdf:about=""><dc:format>image/svg+xml</dc:format><dc:type
           rdf:resource="http://purl.org/dc/dcmitype/StillImage" /><dc:title></dc:title></cc:Work></rdf:RDF></metadata><defs
     id="defs1022" /><sodipodi:namedview
     pagecolor="#ffffff"
     bordercolor="#666666"
     borderopacity="1"
     objecttolerance="10"
     gridtolerance="10"
     guidetolerance="10"
     inkscape:pageopacity="0"
     inkscape:pageshadow="2"
     inkscape:window-width="1446"
     inkscape:window-height="770"
     id="namedview1020"
     showgrid="false"
     inkscape:zoom="0.38562218"
     inkscape:cx="305.99838"
     inkscape:cy="25.781618"
     inkscape:window-x="0"
     inkscape:window-y="0"
     inkscape:window-maximized="0"
     inkscape:current-layer="Capa_1" /><g
     id="g985"
     transform="matrix(1,0,0,0.54480941,-1.2473488e-4,-9.9700122)"
     style="fill:#d1c72f;fill-opacity:1"><path
       inkscape:connector-curvature="0"
       id="path981"
       d="m 511.114,300.251 c -9.94,0 -17.638,7.663 -17.638,17.651 V 559.007 H 368.401 v -98.453 c 0,-9.236 -7.697,-17.31 -17.002,-17.31 h -90.435 c -9.948,0 -17.96,8.073 -17.96,17.31 v 98.453 h -124.76 v -233.1 c 0,-9.306 -7.69,-17.036 -17.638,-17.036 -9.298,0 -16.995,7.73 -16.995,17.036 v 250.752 c 0,9.305 7.697,17.036 16.995,17.036 h 160.358 c 9.298,0 16.995,-7.731 16.995,-17.036 v -98.454 h 55.801 v 98.454 c 0,9.305 7.697,17.036 17.639,17.036 h 159.715 c 9.299,0 16.995,-7.731 16.995,-17.036 V 317.903 c 0,-9.988 -7.696,-17.652 -16.995,-17.652 z"
       style="fill:#d1c72f;fill-opacity:1" /><path
       inkscape:connector-curvature="0"
       id="path983"
       d="M 607.003,314.003 467.819,174.225 V 78.919 c 0,-9.921 -8.019,-17.583 -17.96,-17.583 -9.305,0 -17.001,7.663 -17.001,17.583 v 60.345 L 318.046,23.774 c -3.518,-3.558 -7.697,-5.474 -11.864,-5.474 -4.81,0 -8.983,1.984 -12.507,5.474 L 5.361,312.087 c -6.917,6.91 -7.375,17.994 0,24.357 6.411,7.389 17.454,6.91 24.371,0 L 306.182,60.651 581.989,339.044 c 2.873,2.874 7.054,4.516 12.507,4.516 4.81,0 8.976,-1.642 12.507,-4.516 6.417,-6.431 6.896,-18.062 0,-25.041 z"
       style="fill:#d1c72f;fill-opacity:1" /></g><g
     id="g989"
     transform="translate(-1.2473488e-4,-18.3)" /><g
     id="g991"
     transform="translate(-1.2473488e-4,-18.3)" /><g
     id="g993"
     transform="translate(-1.2473488e-4,-18.3)" /><g
     id="g995"
     transform="translate(-1.2473488e-4,-18.3)" /><g
     id="g997"
     transform="translate(-1.2473488e-4,-18.3)" /><g
     id="g999"
     transform="translate(-1.2473488e-4,-18.3)" /><g
     id="g1001"
     transform="translate(-1.2473488e-4,-18.3)" /><g
     id="g1003"
     transform="translate(-1.2473488e-4,-18.3)" /><g
     id="g1005"
     transform="translate(-1.2473488e-4,-18.3)" /><g
     id="g1007"
     transform="translate(-1.2473488e-4,-18.3)" /><g
     id="g1009"
     transform="translate(-1.2473488e-4,-18.3)" /><g
     id="g1011"
     transform="translate(-1.2473488e-4,-18.3)" /><g
     id="g1013"
     transform="translate(-1.2473488e-4,-18.3)" /><g
     id="g1015"
     transform="translate(-1.2473488e-4,-18.3)" /><g
     id="g1017"
     transform="translate(-1.2473488e-4,-18.3)" /></svg>