<svg width="3878.1" height="1537.8" version="1.1" viewBox="0 0 3878.1 1537.8" xmlns="http://www.w3.org/2000/svg"><path d="m1324.8 1384.7c31.857 81.919 83.436 104.31 213.9 104.31s144.12-37.565 160.8-86.11c16.687-48.545-374.7-18.204-374.7-18.204z" fill="#0d0d0d"/><path d="m550.39 1376.3c103.92-1.5171 120.6 2.2755 131.98 1.517 11.378-0.7585 127.43-295.82 127.43-295.82l-219.97-82.677s-73.575 376.98-39.442 376.98z" fill="#1d1d1d"/><path d="m695.26 1099.8c77.747 1.1377 81.54 1.517 85.712 4.1718s5.3096 52.337 5.3096 52.337l-53.096 2.2755z" fill="#222"/><path d="m696.78 1492.4c243.48 6.0681 267 21.238 290.51-40.201 23.514-61.439 22.755-72.058 16.687-97.089s-232.1-15.929-235.9 27.306c-3.7926 43.235-71.3 109.98-71.3 109.98z" fill="#222"/><path d="m1861.2 1428.2c34.476-0.8018 36.08 0.8017 36.882 14.432 0.8018 13.63 0 14.031 0 20.044 0 6.0133-0.8017 11.225 14.031 11.626 14.833 0.4009 45.3-0.8018 56.525-3.2071s129.09-404.5 129.09-404.5-218.88-51.314-226.9 36.882c-8.0177 88.195-9.6213 324.72-9.6213 324.72z" fill="#1d1d1d"/><path d="m2041.1 1534.7c144 4.5355 153.64 6.8033 163.28-12.473 9.638-19.276 36.851-91.844 36.851-104.88 0-13.04-132.1 9.071-132.1 9.071z" fill="#222"/><path d="m2040 1534.8c92.259-0.39 115.46-81.781 123.47-146.72 8.0178-64.944-19.243-279.82-93.808-283.83-74.565-4.0088-129.48 90.795-136.29 240.47-6.8033 149.67 72.534 190.23 106.62 190.09z" fill="#414141"/><path d="m2787.7 1385.2c39.013 102.41 69.899 121.92 154.43 118.67 84.528-3.2511 139.8-97.533 138.17-130.04-1.6255-32.511-292.6 11.379-292.6 11.379z" fill="#0d0d0d"/><path d="m2282.7 937.85 365.04-3.0169 2.0112-650.64-371.08 11.062z" fill="#212121"/><g transform="translate(-445.54 -1128.8)" fill="#2e2e2e"><path d="m2773.2 1898.5c0 21.333 0.7111 21.333 18.488 21.333 17.777 0 73.242-0.7111 85.331-0.7111s13.511-2.8444 14.222-17.777c0.7111-14.933 2.8444-275.19 2.8444-290.12s-0.7111-23.466-17.066-22.755c-16.355 0.7111-74.664 2.8444-90.308 3.5555s-13.511 9.9552-14.222 25.599c-0.7111 15.644 0 260.26 0.711 280.88z"/><path d="m2898 1894.4c-0.2554 21.192 0.5409 21.192 20.45 21.192 19.909 0 82.035-0.7064 95.573-0.7064s15.165-2.8256 16.14-17.66c0.9752-14.834 6.4818-273.37 6.6608-288.21 0.1788-14.834-0.5154-23.311-18.84-22.605-18.325 0.7064-83.653 2.8256-101.18 3.532-17.529 0.7065-15.25 9.8895-16.234 25.43-0.9837 15.541-3.1175 258.54-2.5683 279.03z"/></g><path d="m2292.4 959.97-2269.3-11.478 3.0631-597.31 2269.4-54.131z" fill="#1e1e1e"/><path d="m2678.9 5.045c-445.69 13.784-909.75 33.695-998.59 39.821s-113.34 15.316-153.16 59.731c-39.821 44.416-49.01 76.579-38.289 88.831s1056.8-13.784 1056.8-13.784z" fill="#4dc71f"/><path d="m2337.7 138.23c73.643-94.22 99.635-108.3 180.86-120.21 81.224-11.913 288.07-20.577 395.29-17.328 107.22 3.2489 147.29 45.485 170.03 86.639 22.743 41.153-259.92 64.979-259.92 64.979z" fill="#48ba1d"/><path d="m47.223 215.12c99.635-16.245 354.14-34.656 472.18-38.987 118.05-4.332 1061.3-32.49 1132.8-34.656 71.477-2.1659 1420.9-46.568 1483.7-46.568 62.813 0-492.76 46.568-492.76 46.568z" fill="#58cc2d"/><path d="m33.081 920.93c31.397 0 2567.7 8.4237 2579.9 9.9553 12.253 1.5315 9.1894 33.695-4.5947 32.929-13.784-0.7658-2578.4-16.082-2578.4-16.082z" fill="#d7d7d7"/><path d="m28.812 932.34c49.276 0.5415 2564 11.913 2585.6 14.62 21.66 2.7074 4.8734 31.948-3.7905 31.948-8.6638 0-2582.9-12.85-2582.9-12.85z" fill="#a1a1a1"/><path d="m697.54 1493.1c62.956-2.2755 116.05-78.885 115.29-198.73s-78.126-193.42-121.36-194.18c-43.235-0.7585-81.919 65.232-92.538 203.28s53.854 191.14 98.606 189.63z" fill="#414141"/><path d="m2613.1 961.39c-48.193 0-2542-16.049-2560.5-16.049-18.411 0-17.869-1.6245-18.411-17.869-0.54149-16.245 3.249-523.37 3.7904-540.16 0.54149-16.786 5.9564-16.245 23.826-16.786 17.869-0.5415 2532-64.979 2564-64.979 31.948 0 218.22-181.4 99.093-183.02-119.13-1.6245-1391.6 47.11-1456.1 47.651s-1158.3 40.07-1191.3 41.154c-33.031 1.083-50.359 1.6245-62.272 70.394-11.913 68.77-14.079 181.94-15.162 227.43-1.083 45.485 5.9564 494.92 7.0394 553.95 1.083 59.023 8.1224 219.85 10.288 236.63 2.166 16.786 7.5809 30.865 37.363 35.197 29.782 4.3319 129.42 23.826 181.94 34.114 52.525 10.288 80.682 8.1224 133.75 8.1224 53.066 0 168.4 0.5415 180.86-0.5415 12.454-1.083 14.62-1.6245 14.079-16.245-0.5415-14.62-1.6245-81.224-1.6245-111.01s12.454-193.31 101.26-194.94c88.805-1.6244 115.88 156.49 119.67 193.31 3.7905 36.822 5.415 112.63 5.415 127.25s10.83 29.241 43.861 29.241 976.31 23.826 1007.7 23.826c31.406 0 37.363-1.083 36.822-17.869-0.5415-16.786-8.1224-102.34-5.415-132.12 2.7075-29.782 21.118-208.47 120.21-211.18 99.093-2.7075 139.16 214.97 140.25 252.88s2.7074 66.062 2.7074 84.473-0.5415 21.66 16.245 23.826 481.39 0.5415 500.34-0.5415c18.952-1.083-39.792-466.13-39.792-466.13z" fill="#6fdb31"/><path d="m2551.7 703.6c14.577-1.4222 16.355-7.4665 17.066-27.021 0.7111-19.555-1.0666-121.95-3.5554-139.73-2.4888-17.777-9.5997-24.888-24.177-25.244-14.577-0.3556-51.554 1.4221-63.642 3.5554s-12.444 13.155-13.155 29.155c-0.7111 16 2.8443 103.82 5.3331 129.06 2.4888 25.244 8.5331 30.221 19.91 31.288 11.378 1.0666 46.576 0.7111 62.22-1.0666z" fill="#292929"/><path d="m3806.5 370.38c28.876 1.0313 33.689 6.5316 36.439 18.563 2.7501 12.032 21.314 131.32 22.345 145.76s-3.4377 26.814-26.47 27.845-33.689 0.6876-38.158-15.469c-4.4689-16.157-24.407-130.29-27.501-147.82-3.0939-17.532 7.5628-28.533 33.345-28.876z" fill="#1c1c1c"/><path d="m3852.6 448.73c-11.911 0.2431-11.668 4.6186-12.154 8.7509s1.4585 8.2647 10.209 8.5078c8.7509 0.2431 14.828 0.4861 19.69 0.4861 4.8615 0 7.7785-1.7015 7.7785-7.5354s-0.2431-8.994-7.7785-9.4801c-6.3812-0.4117-9.2371-0.7293-17.745-0.7293z" fill="#212121"/><path d="m3713.4 444.02c6.7053-3.2511 16.865 0.2031 23.774 10.566s12.395 16.865 14.427 26.212c2.0319 9.3469 0 12.395-4.4703 14.833-4.4703 2.4384-6.5022 2.6416-9.3469 0.2032-2.8447-2.4383-18.897-22.758-24.993-33.12-6.0958-10.363-8.1278-14.63 0.6096-18.694z" fill="#222"/><path d="m3651.4 286.77c-0.8058 0-1.5957 0.025-2.3691 0.068-12.376 0.6875-22.346 0.6874-64.973 2.75 0 0-8.594 52.598-3.4375 51.91 5.1565-0.6876 14.095-0.6876 36.096-1.0313 22.001-0.3438 52.253-0.6876 68.41 1.7188s20.281 5.4997 24.062 12.719c3.7814 7.2191 39.533 105.19 43.314 115.51 3.7814 10.313 4.8143 14.094 8.9395 13.062 4.1252-1.0313 4.4689-2.062 1.375-12.031-3.0939-9.9692-37.127-102.79-40.908-111.72s-1.7195-11.344 14.094-9.2812c15.813 2.0626 106.22 15.812 115.51 17.188s8.5938 4.8122 8.9375 11.688c0.3438 6.8754 0.6875 120.32 0.6875 129.95 0 9.6255 2.0624 13.062 5.5 13.062 3.4377 0 3.7813-2.7495 4.125-12.031 0.3438-9.2818-2.75-126.51-2.75-133.73s0.3436-7.9062 3.7812-8.25c3.4377-0.3437 3.4375-1.7183 3.4375-12.031s-8.593-18.908-24.75-23.377c-16.157-4.4689-130.63-31.283-151.6-36.783-19.659-5.1565-35.39-9.4051-47.477-9.3496zm-6.8691 12.744c3.1904 0.023 5.6678 0.084 6.7617 0.2051 4.3754 0.4862 4.8615 2.4312 5.3476 6.8066 0.4862 4.3755 0.7285 13.612 0.7285 18.23s-0.2431 6.3215-5.8339 6.5645c-5.5908 0.2431-31.601 0.4852-37.678 0.2421s-7.0479-1.459-7.291-7.2929c-0.2431-5.5908 0.2432-15.556 0.4863-19.445 0.243-3.8893 1.7013-5.1055 7.5352-5.1055 4.3754 0 20.372-0.2734 29.943-0.2051zm39.225 5.7832c1.8618-0.073 4.303 0.4394 7.4023 0.9863 8.2647 1.4584 28.926 6.3189 35.732 7.7774 6.8062 1.4585-0.7302 2.4302-8.2656 3.8887-7.5355 1.4585-11.425 3.6473-14.342 8.7519-2.917 5.1047-3.1599 6.8065-8.0215 6.3203s-7.2925-0.4876-11.668-1.2168-5.834-2.1862-5.834-6.8047-0.1712-5.5801 0.1211-11.912c0.2733-5.9207 1.7719-7.6685 4.875-7.791zm58.631 20.006c3.5854-0.061 7.1095 0.4262 10.27 1.8847 6.32 2.9169 7.5354 8.75 0 11.424-7.5355 2.6739-18.961 0.7307-29.17-1.4571-10.209-2.1877-7.7776-6.8069 8.2657-10.453 3.4031-0.7292 7.0493-1.3376 10.635-1.3984zm34.02 2.4394c1.2116-0.01 2.7467 0.1749 4.6914 0.418 7.7785 0.9723 56.637 11.181 66.117 13.611 9.4803 2.4308 10.209 5.1048 9.7227 11.668-0.4862 6.5631-4.6187 6.0767-11.668 4.8613s-57.367-10.209-65.389-11.668c-8.0217-1.4584-8.2645-1.2151-8.0215-10.209 0.1823-6.9278 0.912-8.6589 4.5469-8.6817z" fill="#252525"/><path d="m3653 885.49c-9.2054-85.014-56.857-537.16-62.272-569.11-5.4149-31.948-955.73 40.07-955.73 40.07l14.62 592.39z" fill="#2a2a2a"/><path d="m3655.2 901.4c-2.2974-24.122-2.2974-23.356-10.338-22.974-8.0407 0.3829-229.74 16.082-279.89 19.145-50.159 3.0631-496.62 25.823-568.09 29.072-71.477 3.2489-105.05 3.2489-118.59 3.7904s-14.079-3.7904-15.162-17.328-4.3319-39.529-5.4149-76.892 0.5415-431.57 0.5415-443.48-1.083-16.245 15.162-18.411c16.245-2.1659 121.84-11.371 191.69-14.079 69.852-2.7074 693.65-27.075 709.9-28.158 16.245-1.083 15.162 1.083 15.162-20.035s-5.9564-162.45-9.2054-171.65c-3.2489-9.2053-125.63-21.118-125.63-21.118l-490.05 12.996-333.02 42.236 2.7075 787.33z" fill="#1f1f1f"/><path d="m3639.2 893.74c12.636-1.1487 14.167-1.5316 16.082 7.6579 1.9145 9.1894 5.3605 22.974 5.7434 31.78 0.3828 8.8066-115.73 90.932-115.73 90.932-248.1 58.337-488.68 41.515-731.02 42.236 0 0-203.87-64.302-204.95-114.12-1.083-49.817 4.0612-528.63 5.1442-568.7s1.6245-204.68 2.166-220.93c0.5414-16.245 11.371-30.324 47.11-34.656 35.738-4.3319 348.18-34.655 470.56-40.07s361.18-1.6245 394.75 1.083c33.572 2.7074 48.734 28.699 50.9 45.485 2.1659 16.786 2.7074 18.411-27.616 12.454-30.324-5.9565-239.34-9.7469-349.26-5.9565-109.92 3.7905-490.59 34.656-522 38.988-31.407 4.3319-32.49 5.4149-33.573 25.992-1.083 20.577-2.1659 692.03 0.5415 717.48 2.7075 25.45 4.332 27.075 20.035 26.533 15.703-0.5415 534.45-25.992 592.93-28.699 58.481-2.7075 351.97-25.344 378.19-27.486z" fill="#262626"/><path d="m3514.5 1002.3c37.438-15.127 39.768-2.2405 37.528 14.563-2.2404 16.803-19.194 180.68-82.896 233.01-55.416 45.519-141.31 26.262-212.84 31.366-97.027 6.9237-207.98 48.211-291.82-1.1202-65.487-38.534-96.339-156.83-111.46-198.84s-25.205-51.53 8.9618-48.17 119.86 17.364 188.2 19.044 134.43-2.2404 170.83-4.4809c36.407-2.2404 178.12-15.683 216.76-25.205s58.671-12.865 76.735-20.164z" fill="#8f8f8f"/><path d="m2616.2 1128.2c0.5601 8.5417 1.1202 14.983 1.2602 18.484 0.1401 3.5007 11.062 4.9009 11.062 4.9009l182.36 32.104 44.359 59.409s56.836 176.5 81.761 177.06c24.925 0.5601 28.566 0.8402 37.527 0 8.9618-0.8402 191.56-40.888 191.56-40.888l285.66 6.1613s12.437 1.2372 21.15 0.4451c8.7132-0.7921 12.278-1.3862 17.625-2.1783s13.07-14.06 13.07-14.06l142.58-219.61s20.237-38.627 21.217-48.849c0.9802-10.222 5.041-15.683 4.761-22.264-0.2801-6.5813-55.031 17.364-55.031 17.364s-121.85 57.885-126.27 71.068c-4.7293 14.106-6.6153 19.53-7.7355 25.131-1.1203 5.6011-8.4337 58.546-8.4337 58.546l-244.76 31.685-256.65 2.3764s-31.289-48.913-36.239-63.568c-4.9507-14.654-5.1487-17.823-8.7133-24.754-3.5645-6.9311-85.747-34.061-85.747-34.061l-99.411-24.16z" fill="#212121"/><path d="m3600.7 1373.9c62.727-11.382 70.806-18.023 71.449-85.61 0.6437-67.587-0.9656-103.63-1.6092-119.73-0.6437-16.092-4.8277-12.552-4.5059-30.253 0.3219-17.701 1.2874-30.253 1.2874-37.656s-5.1495-5.4713-14.161-2.5747-52.782 16.736-65.334 27.357-26.738 40.874-32.531 58.254c-5.7932 17.38-38.274 105.24-46.642 128.42-8.3679 23.173-27.035 64.369-28.644 68.874-1.6092 4.5058 1.9311 3.5402 9.0117 2.8965 7.0805-0.6436 94.506-6.861 111.68-9.9771z" fill="#63d82d"/><path d="m3548.5 1167.3c10.495-2.076 12.23-0.6437 9.0116 6.4369-3.2184 7.0805-18.023 48.598-23.495 63.403-5.4713 14.805-30.575 84.967-37.656 102.35-7.0805 17.38-13.839 34.759-16.414 39.587-2.5747 4.8276-1.2873 6.4369-8.6897 7.0806-7.4024 0.6436-154.81 11.264-235.27 15.77s-251.04 17.38-265.52 18.345c-14.483 0.9656-13.196-1.9311-16.414-14.805-3.2185-12.874-37.012-87.542-63.403-127.45-26.391-39.909-34.437-57.61-37.334-63.081-2.8966-5.4713 3.5402-3.5402 11.586-3.8621 8.0461-0.3218 47.955 0.9656 56.644 1.9311 8.6897 0.9655 11.908-0.6437 15.77 9.6553s29.61 47.311 73.38 50.208 170.9 3.8621 236.55-1.9311c65.656-5.7932 174.44-18.667 202.12-35.403 27.678-16.736 32.24-39.397 34.948-48.575 1.8529-6.2808 6.5797-8.03 17.835-10 9.9791-1.7468 27.508-5.9291 46.346-9.6553z" fill="#53d21e"/><path d="m2781.1 1158.8c35.502 6.8273 52.343 29.13 65.998 52.798s81.018 139.28 89.666 162.49c8.035 21.568 11.834 31.406 11.834 36.868 0 5.4618 2.6974 10.364-23.05 9.7202s-181.25 4.7078-220.2 5.6733c-38.943 0.9655-48.598 1.6092-61.15 1.6092s-17.38-4.5058-18.023-21.885c-0.6437-17.38-8.0461-243.96-8.6898-256.83-0.6437-12.874 0.3219-13.517 9.3335-11.908s52.46 9.3334 74.346 11.908c21.885 2.5747 66.21 7.5289 79.933 9.5576z" fill="#63d82d"/><path d="m2688.6 1157c-47.311-3.8621-58.254-8.0461-57.288-1.2874 0.9655 6.7588 3.2184 15.127 4.8276 17.38 1.6093 2.2529 45.702 48.92 45.702 48.92l171.86 34.115-1.6092-21.885-48.598-56.966z" fill="#56c228"/><g transform="translate(-445.54 -1128.8)" fill="#4cac24"><path d="m3238.1 2310.6c-18.889 0.9103-24.806 13.882-24.578 26.399 0.2276 12.517 5.2343 30.95 29.585 30.04s24.806-20.937 24.806-28.447-2.2758-25.489-29.813-27.992z"/><path d="m3138.3 2290.8c-20.027 0.9103-22.758 8.8755-22.985 17.524-0.2275 8.6479 5.2343 19.572 18.661 20.027 13.427 0.4552 19.116-9.3307 19.799-18.434 0.6827-9.1031-6.3722-18.434-15.475-19.116z"/><path d="m3166.9 2304c-17.48 22.355-11.439 32.63-2.3581 40.845 9.0814 8.2148 25.851 12.415 38.716-1.5913 12.864-14.006 7.5942-29.138-1.5565-38.261-9.1509-9.1234-25.678-10.144-34.801-0.9927z"/></g><path d="m2815.9 1182c15.02 13.882 34.364 41.419 39.143 50.75 4.7791 9.3306 4.0964 12.972-3.8688 8.1928-7.9653-4.7792-19.117-22.53-25.489-31.406-6.3722-8.8755-17.068-26.171-28.902-27.537-11.834-1.3654 19.116 0 19.116 0z" fill="#4daa23"/><path d="m2705.3 1158.9c-38.621-5.4714-24.46 3.8621 6.4368 9.0116 30.897 5.1495 81.426 14.161 92.691 15.77 11.264 1.6092 18.023 0 3.2184-7.4024s-16.414-8.0461-27.678-9.3334c-11.265-1.2874-60.507-6.7587-74.668-8.0461z" fill="#50b225"/><path d="m2798.9 1187c-15.248 0-20.482 13.882-20.482 21.62 0 7.7377 4.7791 21.62 17.979 22.758s20.027-8.648 20.254-19.799c0.2276-11.151-7.7376-23.896-17.751-24.578z" fill="#909090"/><path d="m2737.1 1216.2c16.613 0.2276 21.165-10.924 21.165-21.392s-5.4619-20.027-17.979-20.937c-12.517-0.9103-20.937 8.1928-20.937 20.482s9.5582 21.848 17.751 21.848z" fill="#909090"/><path d="m2640.9 1187.5c-13.655-35.047-6.3722-24.578 3.1861-9.5583 9.5582 15.02 37.778 39.143 68.273 47.336s117.43 23.668 127.44 23.668 15.93 0.9103 7.7376-10.924c-8.1928-11.834 6.8273-11.379 10.013-0.4552s5.4619 26.399-10.924 25.489-129.26-16.841-160.21-28.675-39.143-28.675-45.516-46.881z" fill="#62cf36"/><path d="m2687.5 1194.1c11.834 0.4551 14.793-7.2825 15.02-14.793 0.2276-7.5101-5.4618-12.972-12.744-12.972s-13.2 6.1446-13.427 13.655c-0.2276 7.5101 3.8688 13.882 11.151 14.11z" fill="#c97b1f"/><path d="m3363.7 1292.6c43.24-2.7309 54.619-3.1861 8.6479 2.7309s-111.06 10.469-150.2 12.289c-39.143 1.8206-159.76 6.8274-181.15 6.3722s-36.412-1.8206 8.648-3.6412c45.06-1.8207 142.01-5.9171 177.06-7.7377 35.047-1.8206 110.6-7.7376 137-10.013z" fill="#59c02f"/><path d="m3065.8 1377.3c-43.24 3.091-54.619 3.6411-8.6479-2.6588s111.06-11.394 150.2-13.54c39.143-2.1467 159.76-8.1581 181.15-7.881 21.392 0.277 36.412 1.5173-8.648 3.7132-45.06 2.196-142.01 7.0999-177.06 9.2124-35.047 2.1125-110.6 8.6589-137 11.154z" fill="#70d248"/><path d="m3666.5 1147.9c-20.036 12.276-65.581 29.316-84.654 37.225-30.324 14.214-38.379 26.533-24.639 28.902 12.32 2.1241 87.452-18.982 113.79-34.299-0.1543-4.0951-0.3171-8.3702-0.4297-11.184-0.4894-12.237-3.0224-13.14-4.0683-20.644z" fill="#5cc930"/><path d="m3494.5 1156.3c-8.4665 22.344-5.6063 21.502 6.3019 18.928 11.908-2.5747 45.144-8.9505 52.225-10.238s9.0116-2.5747 11.908-9.0116 12.552-30.253 29.931-37.978c17.38-7.7243 55.357-21.242 63.081-23.495 7.7242-2.2529 14.483-3.5403 14.161-18.345-0.3219-14.805-9.3335-132.6-10.943-145.15s-5.9307-11.926-18.495-2.2529c-9.7443 7.5021-33.644 24.46-55.851 44.093-22.207 19.632-35.403 35.725-49.242 73.058-13.839 37.334-35.871 91.372-43.078 110.39z" fill="#63d024"/><path d="m3667.2 1099.2-71.68 24.787-20.611 18.004-12.555 31.272-2.6055 26.533 109.93-39.262c-1.4069-7.5253-3.9347-8.3398-3.6816-22.26 0.3219-17.701 1.2871-30.254 1.2871-37.656 0-0.5216-0.033-0.9862-0.084-1.418z" fill="#56c228"/><path d="m3629.7 1115c-14.337 1.3862-21.784 11.486-22.157 23.962-0.3723 12.476 5.7719 26.536 15.082 27.13s21.04-2.7724 23.46-9.1094c2.4205-6.3369 2.9791-16.832-0.7448-26.338-3.7238-9.5054-8.9371-14.852-15.64-15.644z" fill="#4cac24"/><path d="m3590 1136.2c-12.373 1.2306-18.801 10.196-19.122 21.272-0.3213 11.075 3.3972 24.151 11.432 24.679 8.0348 0.5274 19.743-3.0552 21.832-8.6808s3.9573-15.141 0.7433-23.579c-3.2138-8.4384-9.0994-12.987-14.884-13.69z" fill="#4cac24"/><path d="m3659.2 1139.2c12.278-0.198 15.842-10.694 14.852-20.991-0.9901-10.298-6.535-14.258-15.842-13.466-9.3074 0.7921-13.07 9.3074-12.674 18.813 0.396 9.5054 7.3271 15.842 13.664 15.644z" fill="#4cac24"/><path d="m3663.6 1095.5c-0.8545-0.029-1.8585 0.1116-2.9883 0.3594-2.0614 0.4521-4.562 1.2812-7.4726 2.2168-2.2529 0.7241-6.6773 2.1312-12.244 4.0019-2.6948 0.9056-5.6762 1.9281-8.789 3.0254 0 7e-4 0 0-0.01 0-2.0043 0.7058-4.0791 1.4553-6.1797 2.2246-1.3657 0.5006-2.7376 1.005-4.1211 1.5273-1.6793 0.6341-3.3644 1.2834-5.041 1.9434-0.9688 0.3813-1.9229 0.7718-2.8828 1.1601-0.7181 0.2905-1.444 0.5774-2.1543 0.8711-0.9368 0.3874-1.8435 0.7818-2.7617 1.1738-0.698 0.2979-1.4114 0.5928-2.0957 0.8926-1.2886 0.5649-2.5319 1.1338-3.7598 1.7031-0.2564 0.1189-0.5318 0.2365-0.7851 0.3555-0.012 0.01-0.023 0.012-0.035 0.018-0.241 0.1138-0.4741 0.228-0.7129 0.3418-0.6636 0.316-1.2852 0.6312-1.9238 0.9473-0.4457 0.2207-0.9124 0.4413-1.3457 0.6621-0.01 0-0.01 0.01-0.016 0.01-0.5893 0.3005-1.1781 0.6026-1.7403 0.9023-0.2493 0.1328-0.5082 0.2659-0.7519 0.3985-0.915 0.4983-1.7789 0.9947-2.6074 1.4882-0.151 0.09-0.3014 0.178-0.4493 0.2676-0.1249 0.075-0.2521 0.1502-0.373 0.2246-0.01 0-0.012 0.01-0.018 0.012-0.1628 0.1006-0.3236 0.2007-0.4824 0.3008-0.364 0.2294-0.7151 0.4581-1.0566 0.6856-0.1447 0.096-0.2909 0.193-0.4317 0.289 0 0-0.01 0-0.014 0.01-0.3599 0.246-0.7015 0.4909-1.0332 0.7343-0.01 0-0.013 0.011-0.02 0.016-0.099 0.072-0.2033 0.1448-0.2988 0.2167-0.4269 0.3213-0.8317 0.6392-1.2051 0.9551-12.552 10.621-26.738 40.874-32.531 58.254-0.7292 2.1876-1.8877 5.5067-3.3613 9.6582-0.4188 6.4393-0.7783 12.576-0.8769 16.621 0 0 17.257-13.69 14.178-12.506s-6.3585-14.455 2.6074-32.93c10.247-21.115 11.448-24.354 19.898-31.508 9.5474-8.0818 62.305-22.507 71.781-27.008 0.8457-0.4017 1.5603-0.7845 2.2149-1.1582 2.2443-0.9704 3.8615-1.6405 5.5585-2.3497 0.011-0.6298 0.027-1.2865 0.027-1.8554 0-0.4627-0.021-0.8895-0.061-1.2813-0.08-0.7835-0.2388-1.4285-0.4746-1.9531-0.2355-0.5241-0.5475-0.9284-0.9336-1.2266-4e-4 -3e-4 0 4e-4 0 0-0.1933-0.1491-0.4047-0.2724-0.6348-0.3711-0.4601-0.1973-0.9922-0.2982-1.5957-0.3183z" fill="#50b225"/><path d="m3585.7 1177.7c11.73-0.8089 16.988-9.9098 16.988-18.202 0-8.2918-4.4492-16.179-13.146-16.179s-14.157 7.0784-14.561 19.213c-0.4045 12.134 4.247 15.168 10.719 15.168z" fill="#909090"/><path d="m3631.2 1159.9c11.395-4.9152 13.47-15.717 10.591-23.877-2.8785-8.1595-10.046-14.359-18.702-11.305-8.6564 3.0538-13.021 11.937-9.2108 24.02 3.8099 12.083 10.88 13.435 17.322 11.162z" fill="#909090"/><path d="m3659.7 1134.2c9.0023-0.2369 10.898-8.7653 10.898-13.266 0-4.5011-2.6059-13.03-9.9499-13.503-7.3439-0.4738-11.608 6.1595-11.845 13.74-0.2369 7.5809 4.5012 13.03 10.898 13.03z" fill="#c97b1f"/><path d="m3320.9 1302.6c9.802-0.28 10.642-0.5601 11.202 9.2419 0.5601 9.8019 0 24.365-0.5602 31.646-0.5601 7.2814-0.28 9.5219-8.9617 10.082-8.6818 0.5601-184 11.202-191.84 11.762-7.8416 0.5602-10.922-0.8401-11.482-8.9617-0.5601-8.1217 0.5601-29.406 1.1202-35.287 0.5601-5.8811 1.4003-8.9618 11.202-9.5219 9.8019-0.5601 175.31-8.6817 189.32-8.9618z" fill="#d5d5d5"/><path d="m2608.9 956.39c0.3961-26.14 5.5448-12.674 8.7133-3.1685s6.337 15.842 36.041 20.595 146.54 37.23 187.73 80.004 85.153 137.43 88.717 147.33-3.1685 11.09-10.694 10.694c-7.5251-0.3961-48.319-3.1685-57.825-3.1685s-9.5054-1.1882-16.634-12.674c-7.1291-11.486-26.157-34.984-60.201-40.002-35.065-5.1687-148.82-19.615-159.22-20.595-8.6748-0.8181-8.7133-2.7724-9.1094-7.129-0.396-4.3567-7.129-154.86-7.5251-171.89z" fill="#63d024"/><path d="m3467.7 1171.2s-12.042 0.8384-15.123 6.4395-22.685 34.727-38.648 38.928c-15.963 4.2008-157.39 22.406-188.2 23.807-30.806 1.4003-165.51 2.5201-195.48 0.8398-29.966-1.6803-57.131-27.445-59.512-36.127-0.127-0.4634-0.3072-0.9513-0.5176-1.4493-5.3946 0.524-17.951-3.025-18.421-1.4565 1.1202 21.844 37.002 44.073 70.608 47.994s181.76-0.84 227.69-2.2403c45.929-1.4002 173.63-22.404 188.48-29.686 14.843-7.2814 29.687-36.687 29.127-47.049z" fill="#979797"/><path d="m3449.2 1170.1c17.364-1.4003 26.605 1.1202 9.802 6.4413s-19.044 4.4809-36.407 6.1612c-17.364 1.6804-176.72 13.443-210.04 14.843-33.327 1.4003-146.47 8.4017-181.76 10.082-35.287 1.6803-61.052 0.5601-72.254-2.2404-11.202-2.8006-8.6818-5.6012 9.8019-6.4413 18.484-0.8402 244.49-13.163 282.3-15.403s182.32-12.042 198.56-13.443z" fill="#808080"/><path d="m3187.9 1231.2c-3.4971-0.089-5.6188-0.7599-7.4627-2.3614-0.9518-0.8265-2.077-2.3376-2.7492-3.6918-0.043-0.087-0.091-0.1571-0.1058-0.1563-0.015 8e-4 -0.088 0.2103-0.1614 0.4656-0.6919 2.3987-2.267 4.2086-4.5958 5.2811-1.8795 0.8657-3.9238 1.3163-7.119 1.5692-4.3205 0.3419-7.8982-0.2315-10.131-1.6237-1.1215-0.6994-2.0236-1.7284-2.5169-2.8713-0.3336-0.7726-0.5259-1.7266-0.5263-2.61v-0.4606l8.769-0.453v0.1514c0 0.2723 0.1297 0.9011 0.2378 1.1529 0.3316 0.7732 0.9131 1.2706 1.8083 1.5466 0.6029 0.186 1.1169 0.238 1.9626 0.1989 0.6698-0.035 0.8214-0.053 1.14-0.1662 0.9336-0.3312 1.7314-1.0372 2.0457-1.8103 0.1205-0.2965 0.1337-0.3722 0.1307-0.7537-0.01-1.2371-0.7146-1.8489-2.356-2.0452-0.287-0.035-1.231-0.037-2.7351-0.01-2.8899 0.056-3.46 0.034-4.6559-0.1848-3.1448-0.574-4.9878-2.3417-5.409-5.188-0.2004-1.3537-0.075-2.9378 0.3236-4.1017 1.0014-2.9208 3.7048-4.7371 8.1964-5.5066 1.4562-0.2494 4.1372-0.4404 5.4493-0.3881 3.6316 0.1449 6.0666 0.9917 7.6158 2.6485 1.0305 1.1023 1.6112 2.6641 1.6122 4.3362v0.4108l-8.4653 0.4372-0.028-0.4343c-0.068-1.0045-0.284-1.6635-0.701-2.1328-0.1445-0.1625-0.3571-0.3507-0.4724-0.4181-0.7762-0.4537-2.3671-0.5014-3.5265-0.1058-0.9707 0.331-1.5603 1.0135-1.6654 1.9274-0.1452 1.2607 0.5244 2.0705 1.9117 2.3126 0.4523 0.079 0.848 0.079 3.4355 0 1.9742-0.058 2.3658-0.056 3.8104 0.025 1.9882 0.1114 2.2437 0.1618 3.1757 0.6242 0.8233 0.4087 1.6312 1.0051 2.2413 1.6539 0.1512 0.1607 0.2865 0.2917 0.3008 0.291 0.014-7e-4 0.026-0.085 0.027-0.1881 0-0.6049 0.3003-2.5456 0.5487-3.5714 1.2371-5.1089 4.1031-7.8299 9.2428-8.7748 1.9296-0.3547 4.7485-0.3911 6.5736-0.085 4.5977 0.7716 7.6465 3.4199 8.248 7.1642 0.086 0.5366 0.1532 1.5051 0.1209 1.7482l-0.025 0.1879-4.0191 0.2077-4.0191 0.2076-0.091-0.4265c-0.5248-2.4682-1.9234-3.6033-4.2885-3.4801-1.1095 0.057-1.9312 0.3817-2.7496 1.084-0.4234 0.3635-0.9822 1.2302-1.2681 1.9669-0.3051 0.7862-0.5506 1.9875-0.6363 3.115-0.07 0.9201-0.03 2.4431 0.081 3.0465 0.4422 2.4174 1.6986 3.9312 3.5764 4.3094 0.7025 0.1416 1.7592 0.055 2.4878-0.2055 1.426-0.5078 2.3374-1.7048 2.8311-3.7183l0.1205-0.4915 7.1254-0.4181 2.3823-7.2307 2.3822-7.2306 5.7026-0.2946 5.7026-0.2945 0.098 0.2812c0.054 0.1547 0.4027 1.1395 0.775 2.1884 0.3721 1.0489 0.9966 2.8092 1.3877 3.9119 0.3911 1.1028 1.0116 2.852 1.379 3.8876 0.7506 2.1158 1.8998 5.3589 2.2527 6.357 0.1284 0.3631 0.249 0.6806 0.2681 0.7056 0.019 0.025 0.035-3.9476 0.035-8.8281v-8.8735l9.836-0.5081 0.2253 0.3494c0.124 0.1922 0.9612 1.4654 1.8606 2.8294 1.7694 2.6833 3.9867 6.0499 5.278 8.0141 0.4455 0.6776 0.8261 1.2314 0.8456 1.2304 0.019 0 0.035-2.8813 0.035-6.4006v-6.3987l7.4327-0.384v23.902l-9.0981 0.47-0.1695-0.2526c-0.2651-0.3949-2.4456-3.6738-5.723-8.6054-0.9413-1.4167-1.8489-2.7815-2.0165-3.033-0.1677-0.2515-0.5108-0.7671-0.7624-1.1457l-0.4574-0.6883-0.011 7.0739-0.01 7.0738-12.868 0.6648-0.09-0.2507c-0.049-0.138-0.344-0.9462-0.654-1.7962l-0.5639-1.5455-4.9314 0.2427-4.9316 0.2418-0.5651 1.5606c-0.3107 0.8583-0.619 1.7145-0.6847 1.9024l-0.1198 0.3417-7.4941 0.3872 0.078-0.2407c0.043-0.1322 0.2209-0.6721 0.3953-1.1997 0.1743-0.5275 0.31-0.9672 0.3014-0.977-0.01-0.01-0.2197 0.1593-0.4691 0.3758-1.7322 1.5033-3.3346 2.2598-5.6523 2.668-0.4186 0.074-3.5699 0.2896-4.0503 0.2773zm26.028-11.411c0.01-0.022-0.1464-0.4668-0.3471-0.9904-0.2007-0.5238-0.8674-2.2708-1.4813-3.8823-1.2946-3.3972-1.1899-3.1399-1.236-3.0391-0.019 0.042-0.2127 0.6327-0.4297 1.3124-0.2169 0.6796-0.8001 2.4971-1.296 4.0391-0.4959 1.5419-0.9015 2.8233-0.9015 2.8476 0 0.054 5.6663-0.2327 5.6916-0.284zm36.191-4.1973v-11.976l7.725-0.399 0.01 8.9188 0.011 8.9187 0.2171-0.652c0.191-0.5733 1.1431-3.4272 2.8289-8.4803 0.2836-0.85 1.0176-3.0502 1.6309-4.8896 0.6134-1.8392 1.1714-3.5094 1.24-3.7116l0.1248-0.3674 5.774-0.2983 5.7741-0.2982 0.5875 1.7c0.8009 2.3169 3.1089 8.9877 3.6604 10.579 0.4639 1.3387 0.8693 2.5107 2.6314 7.6073 0.5676 1.6414 1.077 3.1101 1.1322 3.2639 0.055 0.1538 0.1004 0.2916 0.1004 0.3062 0 0.015-1.7025 0.109-3.7831 0.2095l-3.7831 0.1834-0.2191-0.5614c-0.1206-0.3088-0.4314-1.105-0.6908-1.7694l-0.4716-1.2082-9.7093 0.5016-0.6056 1.8364-0.6055 1.8364-6.7897 0.3628-6.7898 0.3637zm22.54 1.1279c0.01-0.011-0.4418-1.1758-0.9964-2.5954-0.5547-1.4196-1.2221-3.1289-1.4834-3.7984-0.2614-0.6696-0.4911-1.2357-0.5107-1.2578-0.031-0.036-2.6803 7.9076-2.6559 7.9664 0.01 0.024 5.6242-0.2906 5.6464-0.3147z" fill="#a7a7a7" stroke-width=".0456"/><g transform="matrix(.4707 -.027349 -.006969 .47019 3121.1 1097.5)" stroke-width="1.3333"><path d="m132 81.489c0-1.0145 1.35-2.2 3-2.6344 4.0048-1.0545 246.78-1.1115 249.52-0.0585 1.1792 0.4525 2.1441 1.6585 2.1441 2.6801 0 1.5746-19.384 1.8574-127.33 1.8574-107.52-4e-5 -127.33-0.28697-127.33-1.8445z" fill="#bd8b3a"/><path d="m49.772 104.83c-14.363-5.3266-24.837-15.018-31.408-29.058-6.2802-13.42-6.8494-13.046 20.462-13.469l23.459-0.36332 12.379-15.94h30.001c20.623 0 30.001 0.45086 30.001 1.4423 0 2.2233-9.4382 13.224-11.346 13.224-0.93005 0-2.0725 2.0337-2.5388 4.5193-2.647 14.11-16.679 31.172-31.112 37.83-10.395 4.7956-29.514 5.6648-39.898 1.8137zm34.851-16.826c9.2938-4.5368 16.754-13.621 19.986-24.337 0.89412-2.9645 0.75796-2.9992-11.518-2.9281l-12.423 0.0719-11.307 15.856h-32.525l3.9161 4.1686c2.1539 2.2928 6.9161 5.6173 10.583 7.3878 5.6825 2.7439 8.2413 3.1559 17.333 2.7908 7.1075-0.28539 12.431-1.2898 15.956-3.0102zm51.706-15.031c-1.314-0.89258-1.1448-2.685 0.79158-8.3871l2.4627-7.2519 15.542-0.37565c15.044-0.36362 15.542-0.47032 15.558-3.3333 0.0107-1.9305-2.9624-5.7362-8.5593-10.958-10.086-9.4097-11.724-13.627-7.998-20.587 4.3147-8.0585 8.9361-9.4089 32.208-9.4112 11.183-1e-3 20.333 0.39519 20.333 0.88074 0 0.48554-1.0096 4.0855-2.2435 8l-2.2435 7.1172h-11.678c-6.4228 0-11.995 0.51278-12.382 1.1395-0.38734 0.62674 0.85752 2.5767 2.7664 4.3333 1.9088 1.7566 5.7904 6.0977 8.6256 9.6469 5.7741 7.2282 6.771 13.888 3.1324 20.924-3.7546 7.2606-8.258 8.4982-32.644 8.9708-12.1 0.23452-22.752-0.0844-23.671-0.70879zm59.25 0.0276c-0.49151-0.85037 3.7768-16.609 14.265-52.667l2.23-7.6667h15.666c12.437 0 16.317 0.45611 18.825 2.2127 2.943 2.0614 3.2697 2.0614 4.777 0 1.3318-1.8213 4.127-2.2126 15.804-2.2126 22.492 0 23.229 2.0203 13.275 36.42-3.4343 11.869-6.831 22.358-7.5482 23.309-1.4194 1.8818-16.484 1.9811-17.637 0.11627-0.35571-0.57555 1.8492-9.738 4.8997-20.361 3.0506-10.623 5.171-20.293 4.7122-21.489-0.55344-1.4422-2.0571-2.0319-4.4664-1.7516-3.474 0.40424-3.8949 1.3237-9.6742 21.133-3.3232 11.391-6.5688 21.507-7.2123 22.481-0.82876 1.254-3.4462 1.6059-8.9719 1.2062-4.291-0.31038-8.1651-0.92759-8.609-1.3716-0.44399-0.44398 1.6917-9.5979 4.746-20.342 3.0543-10.744 5.2238-20.394 4.821-21.443-0.40274-1.0495-2.4659-1.9081-4.5849-1.9081-3.8287 0-3.8882 0.12615-9.5897 20.333-3.1554 11.183-6.2617 21.383-6.9028 22.667-0.92826 1.8581-2.9054 2.3333-9.7068 2.3333-4.6976 0-8.8012-0.45-9.1191-1zm83.914-0.0748c-0.34653-0.56068 3.1395-14.198 7.7467-30.306l8.3767-29.286 19.156-0.37176c20.462-0.39711 24.197 0.35065 29.397 5.8861l3.1001 3.2999 2.9657-8.8143 26.215-0.36152c14.418-0.19884 26.215 0.10116 26.214 0.66666-6e-4 0.56551-1.138 4.0282-2.5274 7.6949l-2.5264 6.6667-15.612 0.78328-5.2077 18.275c-8.0821 28.362-6.9151 26.557-17.318 26.783-10.585 0.2295-10.431 0.7925-4.9037-17.941 2.1473-7.2781 4.8149-16.383 5.9281-20.233l2.024-7h-14.101l-1.6647 5.5562c-1.9388 6.4711-8.0098 13.11-11.988 13.11-1.5231 0-2.7692 0.24683-2.7692 0.54851 0 0.30169 2.1 5.4549 4.6667 11.451s4.6667 11.663 4.6667 12.591c0 2.375-16.452 2.7784-18.279 0.44821-2.2929-2.9235-13.536-31.446-12.718-32.264 0.4265-0.42651 3.6264-0.77547 7.1109-0.77547 8.3754 0 10.553-0.98292 10.553-4.7624 0-4.1953-4.0174-6.1378-11.669-5.6421l-6.2449 0.40454-6.0431 20.711c-3.3237 11.391-6.453 21.319-6.9539 22.062-1.0698 1.5868-16.673 2.3134-17.596 0.81941zm-279.49-13.532c0-0.70054 3.3-4.6538 7.3333-8.785s7.3338-8.508 7.3344-9.7263c0.0023-4.7963 8.0182-18.774 14.462-25.217 3.8036-3.8037 10.756-8.7433 15.803-11.228 8.4018-4.1362 9.9201-4.4363 22.442-4.4363 12.842 0 13.875 0.2199 23.59 5.0212 14.88 7.3541 27.6 22.846 29.268 35.645l0.43436 3.3333-48 0.787-11.559 15.88h-30.554c-18.527 0-30.554-0.50137-30.554-1.2737zm57.457-17.726c7.9603-11.607 8.0765-11.661 25.126-11.721l15.417-0.0547-5.7477-5.1984c-19.755-17.867-52.462-8.8091-61.296 16.974l-1.4847 4.3333h25.013z" fill="#ee3f23"/><path d="m289.33 101.33v-8.6667h7.1701c8.2976 0 9.6978 1.2345 9.8301 8.6667 0.12987 7.2954-1.4256 8.6667-9.8301 8.6667h-7.1701zm12.577 3.478c0.40407-0.65379-1.3605-1.4333-3.9213-1.7323-3.2088-0.37461-4.656-5e-3 -4.656 1.1887 0 1.9612 7.4108 2.4309 8.5773 0.54356zm0.0894-6.8113c-0.45323-0.73334-2.5886-1.3333-4.7454-1.3333s-3.9213 0.6-3.9213 1.3333c0 0.73333 2.1354 1.3333 4.7454 1.3333 2.824 0 4.4117-0.53984 3.9213-1.3333zm8.7136 9.421c-2.1696-4.0538-1.7731-14.754 0.54671-14.754 1.3529 0 2.048 1.8868 2.3333 6.3333 0.38871 6.0578 0.58039 6.3333 4.4064 6.3333 3.826 0 4.0177-0.27549 4.4064-6.3333 0.28532-4.4466 0.98045-6.3333 2.3333-6.3333 3.0286 0 2.6128 12.299-0.51137 15.127-3.4664 3.1371-11.759 2.9086-13.515-0.37236zm18.62 0.57902c0-1.5111 1.6296-2 6.6667-2 8.0337 0 8.9446-2.3445 1.1358-2.9233-6.4092-0.4751-9.3738-3.6208-6.9836-7.41 1.7975-2.8497 15.269-3.4047 16.181-0.66666 0.39586 1.1876-1.3926 1.6667-6.2222 1.6667-8.5648 0-8.9266 2.3827-0.44444 2.927 5.4531 0.34991 6.3939 0.83356 6.769 3.4798 0.71187 5.0216-2.0198 6.9266-9.9323 6.9266-5.4845 0-7.1701-0.47016-7.1701-2zm20-6.6667v-8.6667h7.3333c5.6296 0 7.3333 0.46464 7.3333 2 0 1.4444-1.4815 2-5.3333 2-5.2064 0-5.3333 0.11107-5.3333 4.6667 0 4.5556 0.12693 4.6667 5.3333 4.6667 3.8518 0 5.3333 0.55556 5.3333 2 0 1.5354-1.7037 2-7.3333 2h-7.3333zm17.333 6.6667c0-1.5111 1.6296-2 6.6667-2 3.6667 0 6.6667-0.6 6.6667-1.3333 0-0.73333-1.8394-1.3333-4.0876-1.3333-7.7889 0-11.871-4.8411-7.6457-9.0667 2.448-2.448 15.733-2.1102 15.733 0.4 0 1.5111-1.6296 2-6.6667 2-3.6667 0-6.6667 0.6-6.6667 1.3333 0 0.73333 2.7188 1.3333 6.0418 1.3333 6.6342 0 8.1662 1.6668 6.7432 7.3363-0.77482 3.0872-1.4181 3.3304-8.8104 3.3304-6.1996 0-7.9746-0.44515-7.9746-2zm-12-6.6667c0-1.3968 1.4074-2 4.6667-2 3.2592 0 4.6667 0.60317 4.6667 2s-1.4074 2-4.6667 2-4.6667-0.60317-4.6667-2z" fill="#626264"/></g><path d="m3473.8 299.59c22.201-1.083 25.45 0.5415 25.45-16.245s-5.415-107.76-5.9565-116.42c-0.5414-8.6639-4.3319-10.288-18.411-10.288s-227.97 6.4979-312.44 10.288c-84.473 3.7904-331.39 14.079-355.76 16.786-24.367 2.7074-20.035 7.5809-18.411 21.66s9.7469 100.72 10.83 112.63c1.0829 11.913 5.9564 12.996 19.494 11.913 13.537-1.083 346.56-16.245 392.04-18.952 45.485-2.7074 238.8-10.288 263.17-11.371z" fill="#2f2f2f"/><path d="m2398 31.12c-11.373 0-20.58 7e-4 -28.162 1.0371s-11.915 1.5553-23.83 9.3282-40.62 29.537-48.744 37.828-5.9565 11.399 2.709 10.881c8.6655-0.5181 10.991-0.3831 22.375-0.6054 15.161-0.2961 10.12-0.4298 25.285-11.83 15.165-11.4 42.244-29.538 53.076-36.793 10.832-7.2546 8.6646-9.8457-2.7089-9.8457zm-71.984 0.7676c-11.373 0-20.58 0-28.162 1.0352-7.5823 1.0364-11.915 1.5552-23.83 9.3281s-40.62 29.537-48.744 37.828-5.9566 11.399 2.7089 10.881c8.6655-0.5181 10.991-0.3832 22.375-0.6055 15.161-0.2961 10.12-0.4298 25.285-11.83 15.165-11.4 42.244-29.538 53.076-36.793 10.832-7.2546 8.6645-9.8438-2.709-9.8438zm-75.438 3.0723c-11.371 0-20.577 1e-3 -28.158 1.084s-11.913 1.6237-23.826 9.7461c-11.913 8.1222-40.612 30.865-48.734 39.529s-5.9549 11.913 2.709 11.371c8.6639-0.5414 10.989-0.4024 22.371-0.6347 15.158-0.3094 10.118-0.4485 25.279-12.361 15.162-11.913 42.236-30.864 53.066-38.445 10.83-7.5808 8.6644-10.289-2.707-10.289zm-70.453 0.3828c-11.371 0-20.577 1e-3 -28.158 1.084s-11.911 1.6237-23.824 9.7461c-11.913 8.1223-40.612 30.865-48.734 39.529s-5.9569 11.913 2.707 11.371c8.6639-0.5414 10.989-0.4006 22.371-0.6329 15.158-0.3094 10.118-0.4503 25.279-12.363 15.162-11.913 42.236-30.864 53.066-38.445 10.83-7.5808 8.6644-10.289-2.707-10.289z" fill="#868686"/><path d="m2609.5 973.62c0.1611 4.0509 0.3342 8.3486 0.5429 13.371 45.571 5.6918 113.52 27.852 136.6 36.934 23.356 9.1894 54.754 20.294 75.43 42.119s58.966 81.939 70.453 104.53c7.8044 15.349 14.096 29.255 19.312 40.809 2.0445 0.1258 6.5338 0.4099 7.541 0.4629 2.6922 0.1417 5.272 0.071 7.3262-0.5195l-1.6348-9.3555-56.668-106.44-45.182-52.457-81.557-39.82-104.15-25.272z" fill="#a1a1a1"/><path d="m2609.2 964.51c0.1245 3.4019 0.2825 7.4559 0.4844 12.461 22.499 3.1348 75.8 13.799 99.102 21.676 27.185 9.1895 88.832 34.079 109.12 49.012 20.293 14.933 41.735 46.33 55.52 66.623 13.493 19.865 41.909 77.641 52.086 97.32 4.4589-0.7934 7.1394-3.4184 4.6055-10.457-3.5645-9.9015-47.527-104.56-88.717-147.33-41.19-42.774-158.03-75.251-187.73-80.004-8.9814-1.437-15.506-3.0225-20.369-4.7929-9.1421-1.8133-17.34-3.356-24.104-4.5039z" fill="#d7d7d7"/><path d="m3655.5 921.57c-0.7025 0.033-1.4978 0.2419-2.3613 0.5644l-76.191 64.609-37.906 65.248-48.109 124.09c1.6929 0.9794 5.0404 0.2195 9.8945-0.8301 0.9335-0.2018 2.6495-0.5408 3.8223-0.7851 9.6486-26.107 27.309-69.628 33.852-83.217 7.0395-14.62 24.639-55.504 31.949-69.041 7.3102-13.537 23.012-33.302 44.672-50.9 17.789-14.454 37.564-25.428 46.922-31.742-0.3665-4.0328-0.6628-7.0588-0.8515-8.5312-0.8549-6.6682-2.4764-9.6176-5.6915-9.4668z" fill="#a1a1a1"/><path d="m3655.5 921.57c-2.8368 0.1329-6.9151 2.6785-12.805 7.2128-9.7443 7.5021-33.642 24.461-55.85 44.094-22.207 19.632-35.403 35.725-49.242 73.059s-35.871 91.371-43.078 110.39c-6.8037 17.956-6.2795 20.931 0.3633 20.074 11.048-29.952 34.834-89.084 40.092-103.02 5.4149-14.35 16.246-38.989 24.639-54.963 8.3931-15.974 34.925-42.776 49.816-53.877 14.212-10.595 44.424-31.851 51.176-36.844-0.9518-4.295-2.5013-6.2513-5.1114-6.1289z" fill="#d7d7d7"/><g transform="matrix(1.2496 .021496 0 1.6549 969.48 1083.6)"><path d="m247.93 121.45c-8.7287-2.7931-26.45-11.604-35.65-17.726-10.016-6.6646-24.914-20.574-29.216-27.278-19.964-31.111-7.7491-65.148 23.362-65.098 9.5812 0.01542 17.804 4.7924 23.836 13.847l1.5702 2.3569 1.5985-3.0911c2.2318-4.3158 7.8428-9.7028 12.84-12.327 6.0442-3.1745 19.152-3.1643 26.168 0.02038 10.864 4.9308 16.558 12.347 18.551 24.161 2.2551 13.37-1.6408 25.556-12.857 40.217-4.2015 5.4919-10.442 13.642-13.869 18.112-7.117 9.2842-9.2702 14.597-9.2702 22.872 0 3.202-0.33751 5.7977-0.75 5.7681-0.4125-0.0296-3.2544-0.85516-6.3153-1.8346z" fill="#e60813"/><path d="m345 137.34c0-0.55 1.485-1 3.3-1 3.4991 0 5.7-1.4759 5.7-3.8224 0-1.1269-0.30019-1.1733-1.445-0.22324-0.79472 0.65956-2.4822 1.0522-3.75 0.87244-2.0046-0.28416-2.2943-0.87366-2.2228-4.5222 0.0452-2.3075 0.65297-4.8831 1.3505-5.7235 1.6274-1.9609 7.8817-3.1665 9.2627-1.7855 1.4604 1.4604-0.65497 12.95-2.8259 15.349-1.7948 1.9832-9.3696 2.6752-9.3696 0.85591zm8.7368-7.25c0.53995-0.6875 1.2588-2.7125 1.5974-4.5 0.66503-3.5103-0.66205-4.2153-4.285-2.2764-1.9288 1.0323-3.5108 5.4706-2.5209 7.0724 0.84151 1.3616 4.0498 1.1793 5.2084-0.29599zm114.26 7.3075c0-0.51838 1.9086-1.0809 4.2414-1.25 2.9512-0.21396 4.3346-0.79979 4.548-1.9258 0.24181-1.2764-0.49583-1.5933-3.4914-1.5-3.7972 0.1183-3.7979 0.11749-3.6662-3.8316 0.20124-6.031 6.6489-10.567 11.046-7.7706 1.656 1.0533-1.1556 14.296-3.3907 15.971-1.9412 1.454-9.2866 1.6972-9.2866 0.3075zm8.8716-7.4028c0.61408-0.73992 1.4004-2.7649 1.7474-4.5 0.54406-2.7203 0.34816-3.1547-1.4226-3.1547-2.9227 0-5.1964 2.6566-5.1964 6.0714 0 2.1982 0.46823 2.9286 1.8776 2.9286 1.0326 0 2.38-0.60539 2.9941-1.3453zm-198.85 1.5953c0.0215-1.538 0.69922-5.0585 2.5027-13 0.28103-1.2375 1.16-2.25 1.9534-2.25 1.348 0 1.8391 1.2633 4.2626 10.964l0.86539 3.464 4.4458-7.2054c2.5202-4.0845 5.1417-7.2091 6.0525-7.214 1.4734-8e-3 1.4711 0.67003-0.0276 8.1673-0.89888 4.4967-2.1418 8.345-2.7621 8.5518-1.0975 0.36583-1.021-0.29566 1.2413-10.728 0.33635-1.5511-1.2089 0.0858-4.071 4.3124-2.5372 3.7468-5.1325 6.6392-5.7674 6.4276-0.63482-0.2116-1.8757-3.2772-2.7575-6.8124l-1.6033-6.4276-1.2928 6.75c-0.71106 3.7125-1.6919 6.75-2.1796 6.75s-0.87577-0.7875-0.86232-1.75zm23.221 0.59572c-2.783-2.783 8e-3 -10.191 4.2399-11.253 5.5468-1.3922 8.4499 3.0263 5.6594 8.6134-1.3265 2.6559-2.3235 3.3509-5.1493 3.5893-1.9274 0.16264-4.0649-0.26486-4.75-0.95zm7.7819-2.8973c1.8077-3.3778 0.84864-6.4484-2.0141-6.4484-2.7166 0-5.6316 4.4468-4.6285 7.0607 0.83844 2.185 5.3691 1.7673 6.6427-0.61232zm6.5524-0.19842c-0.37159-2.3375-0.92789-5.2625-1.2362-6.5-0.39608-1.5897-0.11613-2.25 0.95397-2.25 1.066 0 1.7254 1.5331 2.2265 5.1765l0.71196 5.1766 2.3327-3.9266c3.9735-6.6885 4.1765-6.9456 4.9218-6.2352 1.0065 0.95939-6.3345 12.809-7.9353 12.809-0.75651 0-1.5822-1.7764-1.9754-4.25zm10.42 2.7992c0-3.214 2.2249-11.549 3.0829-11.549 1.1942 0 1.157 1.783-0.16572 7.9508-0.99501 4.6395-2.9171 7.0106-2.9171 3.5984zm5.4852-0.79922c0.28783-1.2375 0.87218-4.0169 1.2985-6.1765 0.42636-2.1596 1.3961-4.1335 2.1551-4.3864 0.95986-0.31995 1.179 0.0636 0.71983 1.2601-0.36302 0.94601-0.32222 1.5555 0.0907 1.3544 0.41287-0.2011 2.0004-0.9915 3.5278-1.7564 4.0591-2.0328 5.1274-0.43874 4.2756 6.3796-0.49615 3.9711-1.1269 5.5754-2.192 5.5754-0.94526 0-1.3142-0.64383-1.0027-1.75 2.1246-7.5456 1.6225-9.9472-1.8047-8.6321-1.9616 0.75275-4.5533 5.4954-4.5533 8.3324 0 1.1667-0.6544 2.0497-1.519 2.0497-1.0637 0-1.3622-0.67445-0.99571-2.25zm32.515 1.8664c0-1.6659 10.42-16.616 11.581-16.616 0.75948 0 1.6596 1.2375 2.0002 2.75 1.0462 4.6456 2.5116 10.66 3.0457 12.5 0.32324 1.1138-0.0367 1.75-0.98997 1.75-0.82381 0-1.6416-1.0125-1.8174-2.25-0.2288-1.611-1.1005-2.3399-3.0696-2.5664-3.4467-0.39659-3.6357-2.1836-0.23095-2.1836 2.2385 0 2.4469-0.30625 1.8709-2.75-1.1068-4.6959-1.8147-4.4037-5.9261 2.4466-3.3842 5.6386-6.4639 8.9356-6.4639 6.9198zm19.024-1.3664c0.0215-1.538 0.69922-5.0585 2.5027-13 0.8645-3.8068 2.7725-2.6609 2.0432 1.227l-0.65229 3.477 3.0067-1.7256c2.7268-1.565 3.1522-1.5801 4.5702-0.16215 1.3224 1.3223 1.392 2.363 0.45143 6.7486-1.4378 6.7042-3.3746 6.9347-2.4611 0.29299 0.45115-3.2803 0.29293-5.127-0.48019-5.6048-1.7702-1.094-5.7377 3.2587-6.4549 7.0816-0.66022 3.5193-2.5691 4.7779-2.5256 1.6653zm14.949 0.21827c-2.0915-2.5202 0.34276-8.9425 3.957-10.44 3.9528-1.6373 7.0694-0.53361 7.0694 2.5035 0 2.69-2.5603 4.4678-6.4343 4.4678-1.614 0-2.5657 0.55642-2.5657 1.5 0 1.5657 0.91749 1.8533 4.8624 1.5244 1.4802-0.12342 2.1116 0.20866 1.691 0.88931-1.0052 1.6264-7.1238 1.3088-8.5797-0.44544zm8.5802-6.5554c1.0167-1.645-1.089-3.1952-3.3608-2.4741-1.1046 0.35057-2.2607 1.2953-2.5693 2.0993-0.41296 1.0762 0.2068 1.4619 2.3486 1.4619 1.6003 0 3.2119-0.48921 3.5815-1.0871zm4.0915 7.3992c-1.0083-1.0083-0.75914-4.9683 0.48433-7.6974 0.62135-1.3637 2.4126-3.0108 3.9806-3.6603 3.4147-1.4144 8.3019-0.47092 7.5611 1.4597-0.28077 0.73166-0.8141 3.355-1.1852 5.8296l-0.67471 4.4993-4.7603 0.10725c-2.6182 0.059-5.0508-0.18318-5.4057-0.53814zm7.2262-2.6574c0.61408-0.73992 1.4004-2.7649 1.7474-4.5 0.54406-2.7203 0.34816-3.1547-1.4226-3.1547-2.9227 0-5.1964 2.6566-5.1964 6.0714 0 2.1982 0.46823 2.9286 1.8776 2.9286 1.0326 0 2.38-0.60539 2.9941-1.3453zm6.795 2.6786c-1.2224-1.2224-0.68661-6.8598 0.86207-9.0709 0.84571-1.2074 3.1373-2.4844 5.1291-2.858 2.3083-0.43305 3.7753-1.3445 4.0879-2.5399 0.61677-2.3586 2.2659-2.4436 2.2192-0.1145-0.0555 2.7625-2.6683 14.287-3.4066 15.025-0.36689 0.36689-1.0364 0.0696-1.4877-0.66073-0.57443-0.92945-1.0258-0.99576-1.5046-0.22104-0.746 1.207-4.8278 1.5116-5.8993 0.44009zm8.1904-5.6058c1.6627-4.3818 1.2115-5.2126-2.3458-4.3197-4.6815 1.175-5.9053 9.0768-1.3029 8.4123 1.509-0.21788 2.6745-1.5251 3.6487-4.0926zm14.616 4.0224c3.1359-13.809 3.1404-13.524-0.22286-14.034-1.5125-0.22912 0.4-0.43077 4.25-0.4481 4.4394-0.02 5.9026 0.20314 4 0.60998-2.852 0.60984-3.0702 1.0234-4.4231 8.3817-0.94042 5.1149-1.8796 7.7402-2.769 7.7402-0.88053 0-1.1693-0.77803-0.83499-2.25zm8.5381 0.27052c-1.4639-2.7353-0.27257-6.6696 2.7363-9.0363 6.5288-5.1356 12.411 1.7307 7.1802 8.381-2.6219 3.3332-8.2831 3.7074-9.9164 0.65538zm8.8029-4.8909c0.3875-3.8807-2.0124-5.165-4.8511-2.5959-2.1867 1.9789-2.651 7.0408-0.71275 7.7697 2.2545 0.8478 5.2398-1.9282 5.5639-5.1738zm18.9 6.2508c-1.3587-1.3587-0.70633-7.1676 1.0363-9.227 3.687-4.3573 11.333-3.1413 9.8394 1.5648-0.66436 2.0932-3.2472 3.2433-7.3394 3.2681-2.6592 0.0161-2.9498 1.5226-0.55263 2.8642 1.0374 0.58052 2.6262 0.59676 4.086 0.0418 1.7767-0.67551 2.2826-0.58591 1.9749 0.34979-0.44931 1.3662-7.8813 2.3016-9.0445 1.1383zm8.2765-7.8686c1.0053-1.2114 0.90984-1.613-0.51348-2.1591-1.8845-0.72317-4.6144 0.56039-5.2505 2.4688-0.57497 1.7249 4.2925 1.4634 5.764-0.30961zm4.0098 7.3201c0-3.4321 2.3328-13.832 3.1026-13.832 0.49354 0 0.89735 0.45 0.89735 1s0.675 1 1.5 1 1.5 0.45 1.5 1-0.66643 1-1.481 1c-1.3709 0-1.9184 1.2864-2.7665 6.5-0.17894 1.1 0.36604 2.5482 1.2111 3.2182 1.3061 1.0356 1.1242 1.223-1.2136 1.25-1.5125 0.0175-2.75-0.49384-2.75-1.1363zm7.6941-2.0819c1.9333-9.7556 2.9355-13.127 4.009-13.484 0.8439-0.2813 1.0219 0.65424 0.60877 3.1999l-0.58378 3.5975 3.0926-1.7749c4.4165-2.5347 5.6204-0.97352 4.732 6.1365-0.50517 4.0432-1.1184 5.5754-2.2316 5.5754-0.91972 0-1.3152-0.5728-0.98667-1.429 1.4042-3.6594 1.776-8.3848 0.71145-9.0427-2.2079-1.3646-5.999 2.3265-6.6646 6.4888-0.37701 2.3577-1.1866 3.9829-1.9841 3.9829-0.98535 0-1.1742-0.8729-0.70313-3.25zm14.816 1.2809c-0.8309-2.618 0.21735-7.5596 1.8998-8.9559 2.3673-1.9647 7.108-2.3612 8.479-0.70923 2.7391 3.3004-0.55312 6.5836-6.6386 6.6205-2.6592 0.0161-2.9498 1.5226-0.55263 2.8642 1.0374 0.58052 2.6262 0.59676 4.086 0.0418 1.7767-0.67551 2.2826-0.58591 1.9749 0.34979-0.22754 0.69187-2.2533 1.3945-4.5016 1.5613-3.4051 0.2527-4.198-0.0434-4.7468-1.7725zm8.4804-6.5191c1.0053-1.2114 0.90984-1.613-0.51348-2.1591-1.8845-0.72317-4.6144 0.56039-5.2505 2.4688-0.57497 1.7249 4.2925 1.4634 5.764-0.30961zm4.0098 7.0374c0-3.214 2.2249-11.549 3.0829-11.549 0.50443 0 0.91714 0.68537 0.91714 1.523 0 1.3334 0.3113 1.3191 2.5-0.11501 1.375-0.90093 2.5-1.2085 2.5-0.68356 0 0.52497-1.1149 1.4625-2.4776 2.0834-1.7615 0.80259-2.8075 2.4387-3.6187 5.6605-1.0794 4.2868-2.9036 6.2224-2.9036 3.0808zm-202-14.549c0-0.55 0.45-1 1-1s1 0.45 1 1-0.45 1-1 1-1-0.45-1-1zm-303.75-13.545c-7.9981-2.1537-12.526-4.8551-17.603-10.502-4.6616-5.1848-7.6473-12.265-7.6473-18.134v-2.8185h19.845l1.204 3.75c2.3718 7.3873 8.5642 11.271 19.189 12.033 12.76 0.91595 20.763-3.5832 20.763-11.673 0-7.1664-6.211-10.757-28.647-16.559-15.976-4.1315-21.136-6.4015-25.282-11.124-6.0551-6.8964-7.8979-22.931-3.6127-31.436 2.9747-5.9036 9.5021-11.833 15.51-14.088 11.717-4.3992 31.342-4.2098 41.354 0.39907 9.0488 4.1657 15.712 13.068 17.198 22.978l0.70765 4.719h-7.891c-8.7038 0-11.318-1.1311-13.827-5.9819-2.1437-4.1454-6.5885-6.9158-12.996-8.1003-11.511-2.1278-20.854 2.2459-22.174 10.38-0.49999 3.0811-0.15134 4.0441 2.3806 6.5761 2.9507 2.9507 6.923 4.3903 27.78 10.068 22.934 6.2429 29.823 12.831 29.869 28.558 0.04913 17.101-8.8182 27.736-26.168 31.385-7.2417 1.5231-23.566 1.2885-29.95-0.43055zm91.749-4e-3c-16.211-4.4959-27.619-17.653-31.605-36.451-1.899-8.9564-1.3739-26.83 1.0075-34.297 5.1659-16.196 16.598-27.665 31.607-31.706 2.4616-0.66285 8.9791-1.1828 14.483-1.1554 16.648 0.08287 28.351 4.9577 36.426 15.174 2.2448 2.8399 4.0815 5.5611 4.0815 6.047s-0.8695 2.808-1.9322 5.1602-2.1736 5.0643-2.4686 6.0268c-0.37273 1.216-1.5377 1.7362-3.8178 1.7049-4.951-0.06805-8.2394-1.9817-11.951-6.9549-4.8477-6.4949-10.395-9-19.928-9-14.307 0-22.973 7.2226-26.32 21.937-3.5093 15.429-0.65912 30.862 7.2775 39.405 3.9643 4.2671 9.8581 6.8661 16.841 7.4266 11.813 0.94824 20.465-3.634 24.918-13.197 1.2987-2.789 2.3656-5.5755 2.371-6.1924 6e-3 -0.69432-2.9423-1.2948-7.7402-1.5766-4.2625-0.25027-8.7626-1.0914-10-1.8692-3.13-1.967-5.4257-7.2804-5.0586-11.708l0.30887-3.7248 31.205-0.54929 1.6038 7.996c0.88208 4.3978 3.1984 11.447 5.1473 15.665 3.4277 7.4187 3.5435 8.0571 3.5435 19.529v11.859h-3.953c-2.1741 0-5.0774-0.51235-6.4518-1.1386-2.3096-1.0523-5.5952-6.1979-5.5952-8.7626 0-1.8022-0.89743-1.2853-4.099 2.361-1.6708 1.903-5.5889 4.708-8.7069 6.2335-4.8731 2.3842-7.0748 2.8093-15.682 3.0279-6.6295 0.16838-11.871-0.26102-15.513-1.2709zm282.23 0.057c-7.2326-2.0267-10.671-3.9487-15.242-8.5192-9.3138-9.3138-10.212-14.325-9.8096-54.717l0.32124-32.229 2.7535-2.7522c2.4134-2.4123 3.6721-2.7986 10.192-3.1278l7.439-0.37565 0.30758 36.356c0.28793 34.035 0.43527 36.608 2.3076 40.292 3.4213 6.7323 6.2297 8.0645 17 8.0645 10.492 0 13.246-1.2319 17-7.6045 1.8855-3.2011 2.0175-5.4993 2.3064-40.145l0.30642-36.75h20.887v34.864c0 35.835-0.54158 42.492-4.0455 49.731-2.9816 6.1592-10.517 13.087-16.938 15.572-7.2534 2.8072-26.858 3.5633-34.786 1.3415zm84.794-0.0478c-13.943-3.9071-22.849-13.609-24.667-26.869l-0.62922-4.5906h10.167c8.8193 0 10.236 0.23201 10.685 1.75 2.6595 8.9933 8.5753 13.242 19.529 14.026 12.013 0.85951 20.088-2.9772 21.159-10.053 1.1879-7.8498-5.9011-12.362-28.605-18.208-13.577-3.496-20.324-6.1308-24.021-9.3815-3.3271-2.9249-6.7054-11.008-7.3109-17.492-0.89905-9.6277 1.523-16.626 7.9936-23.097 6.0478-6.0478 11.445-8.2743 22.998-9.487 16.901-1.7741 32.007 2.5188 38.729 11.006 3.6647 4.6271 6.9492 12.637 6.9492 16.947v2.9893h-8.0454c-8.7433 0-8.8014-0.0314-14.885-8.0496-3.3094-4.3615-8.222-6.2255-16.569-6.287-10.883-0.0802-16.5 3.8708-16.5 11.607 0 2.8321 0.67306 4.449 2.5924 6.2278 2.8599 2.6505 5.6082 3.63 25.408 9.0557 15.732 4.311 21.49 6.9626 25.813 11.886 9.3257 10.621 7.284 31.329-4.045 41.026-6.8676 5.8784-13.337 7.7469-28.268 8.1644-9.5713 0.2676-14.444-0.0412-18.476-1.1709zm-197.02-13.631 2e-3 -13.329 4.4137-8.7883c9.045-18.01 8.6553-36.14-1.0739-49.964-3.8963-5.5362-3.983-6.1884-1.3887-10.443 3.0626-5.0228 6.5176-5.5594 32.592-5.0622 17.975 0.34275 24.094 0.80698 28.216 2.1406 12.592 4.0736 19.074 15.949 16.149 29.586-0.92431 4.3099-2.0994 6.3124-5.9834 10.196l-4.8332 4.8332 2.7768 1.436c11.133 5.7569 15.14 21.366 9.0933 35.421-2.77 6.439-8.0204 11.234-15.586 14.235-5.5963 2.2198-7.2962 2.3504-35.131 2.7l-29.25 0.36735 2e-3 -13.329zm55.662-7.2543c3.9806-2.397 5.3352-5.3439 5.3352-11.607 0-3.999-0.53407-5.5349-2.8105-8.0826-2.4865-2.7828-3.6106-3.217-9.75-3.7658-3.8167-0.34116-11.777-0.47884-17.69-0.30595l-10.75 0.31434v26.077l16.25-0.36255c13.789-0.30764 16.729-0.65117 19.415-2.268zm-0.0759-44.881c3.4905-4.0618 3.4072-11.409-0.16736-14.77-2.4775-2.3294-3.2217-2.4375-19-2.7604l-16.422-0.33635v21.307l33.178-0.6346 2.4111-2.8058z" fill="#1c1c1a"/></g><g transform="matrix(.58627 .0022761 0 .71217 1705 972.77)" stroke-width="1.3333"><path d="m132 81.489c0-1.0145 1.35-2.2 3-2.6344 4.0048-1.0545 246.78-1.1115 249.52-0.0585 1.1792 0.4525 2.1441 1.6585 2.1441 2.6801 0 1.5746-19.384 1.8574-127.33 1.8574-107.52-4e-5 -127.33-0.28697-127.33-1.8445z" fill="#bd8b3a"/><path d="m49.772 104.83c-14.363-5.3266-24.837-15.018-31.408-29.058-6.2802-13.42-6.8494-13.046 20.462-13.469l23.459-0.36332 12.379-15.94h30.001c20.623 0 30.001 0.45086 30.001 1.4423 0 2.2233-9.4382 13.224-11.346 13.224-0.93005 0-2.0725 2.0337-2.5388 4.5193-2.647 14.11-16.679 31.172-31.112 37.83-10.395 4.7956-29.514 5.6648-39.898 1.8137zm34.851-16.826c9.2938-4.5368 16.754-13.621 19.986-24.337 0.89412-2.9645 0.75796-2.9992-11.518-2.9281l-12.423 0.0719-11.307 15.856h-32.525l3.9161 4.1686c2.1539 2.2928 6.9161 5.6173 10.583 7.3878 5.6825 2.7439 8.2413 3.1559 17.333 2.7908 7.1075-0.28539 12.431-1.2898 15.956-3.0102zm51.706-15.031c-1.314-0.89258-1.1448-2.685 0.79158-8.3871l2.4627-7.2519 15.542-0.37565c15.044-0.36362 15.542-0.47032 15.558-3.3333 0.0107-1.9305-2.9624-5.7362-8.5593-10.958-10.086-9.4097-11.724-13.627-7.998-20.587 4.3147-8.0585 8.9361-9.4089 32.208-9.4112 11.183-1e-3 20.333 0.39519 20.333 0.88074 0 0.48554-1.0096 4.0855-2.2435 8l-2.2435 7.1172h-11.678c-6.4228 0-11.995 0.51278-12.382 1.1395-0.38734 0.62674 0.85752 2.5767 2.7664 4.3333 1.9088 1.7566 5.7904 6.0977 8.6256 9.6469 5.7741 7.2282 6.771 13.888 3.1324 20.924-3.7546 7.2606-8.258 8.4982-32.644 8.9708-12.1 0.23452-22.752-0.0844-23.671-0.70879zm59.25 0.0276c-0.49151-0.85037 3.7768-16.609 14.265-52.667l2.23-7.6667h15.666c12.437 0 16.317 0.45611 18.825 2.2127 2.943 2.0614 3.2697 2.0614 4.777 0 1.3318-1.8213 4.127-2.2126 15.804-2.2126 22.492 0 23.229 2.0203 13.275 36.42-3.4343 11.869-6.831 22.358-7.5482 23.309-1.4194 1.8818-16.484 1.9811-17.637 0.11627-0.35571-0.57555 1.8492-9.738 4.8997-20.361 3.0506-10.623 5.171-20.293 4.7122-21.489-0.55344-1.4422-2.0571-2.0319-4.4664-1.7516-3.474 0.40424-3.8949 1.3237-9.6742 21.133-3.3232 11.391-6.5688 21.507-7.2123 22.481-0.82876 1.254-3.4462 1.6059-8.9719 1.2062-4.291-0.31038-8.1651-0.92759-8.609-1.3716-0.44399-0.44398 1.6917-9.5979 4.746-20.342 3.0543-10.744 5.2238-20.394 4.821-21.443-0.40274-1.0495-2.4659-1.9081-4.5849-1.9081-3.8287 0-3.8882 0.12615-9.5897 20.333-3.1554 11.183-6.2617 21.383-6.9028 22.667-0.92826 1.8581-2.9054 2.3333-9.7068 2.3333-4.6976 0-8.8012-0.45-9.1191-1zm83.914-0.0748c-0.34653-0.56068 3.1395-14.198 7.7467-30.306l8.3767-29.286 19.156-0.37176c20.462-0.39711 24.197 0.35065 29.397 5.8861l3.1001 3.2999 2.9657-8.8143 26.215-0.36152c14.418-0.19884 26.215 0.10116 26.214 0.66666-6e-4 0.56551-1.138 4.0282-2.5274 7.6949l-2.5264 6.6667-15.612 0.78328-5.2077 18.275c-8.0821 28.362-6.9151 26.557-17.318 26.783-10.585 0.2295-10.431 0.7925-4.9037-17.941 2.1473-7.2781 4.8149-16.383 5.9281-20.233l2.024-7h-14.101l-1.6647 5.5562c-1.9388 6.4711-8.0098 13.11-11.988 13.11-1.5231 0-2.7692 0.24683-2.7692 0.54851 0 0.30169 2.1 5.4549 4.6667 11.451s4.6667 11.663 4.6667 12.591c0 2.375-16.452 2.7784-18.279 0.44821-2.2929-2.9235-13.536-31.446-12.718-32.264 0.4265-0.42651 3.6264-0.77547 7.1109-0.77547 8.3754 0 10.553-0.98292 10.553-4.7624 0-4.1953-4.0174-6.1378-11.669-5.6421l-6.2449 0.40454-6.0431 20.711c-3.3237 11.391-6.453 21.319-6.9539 22.062-1.0698 1.5868-16.673 2.3134-17.596 0.81941zm-279.49-13.532c0-0.70054 3.3-4.6538 7.3333-8.785s7.3338-8.508 7.3344-9.7263c0.0023-4.7963 8.0182-18.774 14.462-25.217 3.8036-3.8037 10.756-8.7433 15.803-11.228 8.4018-4.1362 9.9201-4.4363 22.442-4.4363 12.842 0 13.875 0.2199 23.59 5.0212 14.88 7.3541 27.6 22.846 29.268 35.645l0.43436 3.3333-48 0.787-11.559 15.88h-30.554c-18.527 0-30.554-0.50137-30.554-1.2737zm57.457-17.726c7.9603-11.607 8.0765-11.661 25.126-11.721l15.417-0.0547-5.7477-5.1984c-19.755-17.867-52.462-8.8091-61.296 16.974l-1.4847 4.3333h25.013z" fill="#ee3f23"/><path d="m289.33 101.33v-8.6667h7.1701c8.2976 0 9.6978 1.2345 9.8301 8.6667 0.12987 7.2954-1.4256 8.6667-9.8301 8.6667h-7.1701zm12.577 3.478c0.40407-0.65379-1.3605-1.4333-3.9213-1.7323-3.2088-0.37461-4.656-5e-3 -4.656 1.1887 0 1.9612 7.4108 2.4309 8.5773 0.54356zm0.0894-6.8113c-0.45323-0.73334-2.5886-1.3333-4.7454-1.3333s-3.9213 0.6-3.9213 1.3333c0 0.73333 2.1354 1.3333 4.7454 1.3333 2.824 0 4.4117-0.53984 3.9213-1.3333zm8.7136 9.421c-2.1696-4.0538-1.7731-14.754 0.54671-14.754 1.3529 0 2.048 1.8868 2.3333 6.3333 0.38871 6.0578 0.58039 6.3333 4.4064 6.3333 3.826 0 4.0177-0.27549 4.4064-6.3333 0.28532-4.4466 0.98045-6.3333 2.3333-6.3333 3.0286 0 2.6128 12.299-0.51137 15.127-3.4664 3.1371-11.759 2.9086-13.515-0.37236zm18.62 0.57902c0-1.5111 1.6296-2 6.6667-2 8.0337 0 8.9446-2.3445 1.1358-2.9233-6.4092-0.4751-9.3738-3.6208-6.9836-7.41 1.7975-2.8497 15.269-3.4047 16.181-0.66666 0.39586 1.1876-1.3926 1.6667-6.2222 1.6667-8.5648 0-8.9266 2.3827-0.44444 2.927 5.4531 0.34991 6.3939 0.83356 6.769 3.4798 0.71187 5.0216-2.0198 6.9266-9.9323 6.9266-5.4845 0-7.1701-0.47016-7.1701-2zm20-6.6667v-8.6667h7.3333c5.6296 0 7.3333 0.46464 7.3333 2 0 1.4444-1.4815 2-5.3333 2-5.2064 0-5.3333 0.11107-5.3333 4.6667 0 4.5556 0.12693 4.6667 5.3333 4.6667 3.8518 0 5.3333 0.55556 5.3333 2 0 1.5354-1.7037 2-7.3333 2h-7.3333zm17.333 6.6667c0-1.5111 1.6296-2 6.6667-2 3.6667 0 6.6667-0.6 6.6667-1.3333 0-0.73333-1.8394-1.3333-4.0876-1.3333-7.7889 0-11.871-4.8411-7.6457-9.0667 2.448-2.448 15.733-2.1102 15.733 0.4 0 1.5111-1.6296 2-6.6667 2-3.6667 0-6.6667 0.6-6.6667 1.3333 0 0.73333 2.7188 1.3333 6.0418 1.3333 6.6342 0 8.1662 1.6668 6.7432 7.3363-0.77482 3.0872-1.4181 3.3304-8.8104 3.3304-6.1996 0-7.9746-0.44515-7.9746-2zm-12-6.6667c0-1.3968 1.4074-2 4.6667-2 3.2592 0 4.6667 0.60317 4.6667 2s-1.4074 2-4.6667 2-4.6667-0.60317-4.6667-2z" fill="#626264"/></g><path d="m2524.7 592.31c-11.378 0-12.8 6.7554-12.444 14.222 0.3555 7.4665 5.3332 14.933 14.577 13.866 9.2442-1.0667 9.9553-7.1109 9.9553-13.866 0-6.7553-5.3332-13.866-12.088-14.222z" fill="#222"/><path d="m2515.3 659.16c8.5331-12.444 13.333-10.489 21.866 2.8443 8.5331 13.333 9.0664 14.044 11.733 20.799 2.6666 6.7553 0.5333 10.311-5.6887 10.666-6.222 0.3556-25.422 1.4222-33.243 1.7778-7.822 0.3555-12.444-5.3332-7.822-13.688s8.8886-15.644 13.155-22.399z" fill="#cbcb35"/><path d="m2517.9 664.73c6.2161-8.7673 9.7127-7.3896 15.929 2.004 6.2162 9.3935 6.6047 9.8944 8.5472 14.654 1.9426 4.7594 0.3885 7.2643-4.1441 7.5148-4.5325 0.2506-18.519 1.002-24.217 1.2525-5.6982 0.2505-9.0653-3.7574-5.6982-9.644s6.4751-11.022 9.5832-15.781z" fill="none" stroke="#303030" stroke-width="2.001"/><g transform="matrix(.83792 0 0 .83792 67.819 -829.04)" fill="#303030"><path d="m2931.2 1790.4c-2.2627-8.5479 7.5422-12.068 5.531-0.2514-2.0113 11.816-4.274 12.319-5.531 0.2514z"/><path d="m2933.8 1802.9c1.4385-0.072 1.7263 0.7194 1.7982 1.8702 0.072 1.1508-0.8631 1.7262-1.8702 1.6543-1.0069-0.072-1.5824-0.6473-1.5824-1.8701s0.4317-1.6544 1.6544-1.6544z"/></g><path d="m2600.5 506.94c7.0395 0 8.5479 0.5028 8.5479 12.068v28.158c0 8.5478-2.0113 11.565-8.5479 11.062s-12.068-0.5028-16.593-0.5028c-4.5254 0-6.5366 0-7.0394-11.062-0.5029-11.062-0.3772-24.01 0.1257-30.546 0.5028-6.5366 0.4132-10.311 5.2131-10.4 4.7998-0.089 5.3331-0.4445 5.5109-4.7999s-4.0617-19.62-23.169-20.123c-19.107-0.5028-26.649 17.599-26.649 32.683s-6.0338 145.57-6.0338 153.86c0 8.2964-2.2627 10.81-5.2796 10.056s-5.2795 0.5028-4.7767-11.565 5.2795-116.15 6.2852-142.05c1.0056-25.895 5.531-52.544 32.18-53.55 26.649-1.0057 34.946 20.867 35.449 25.895s-1.0057 10.685 4.7767 10.811z" fill="#1c1c1c"/><path d="m2567.8 829.75c19.107 0.5028 20.113 0 20.615 15.084 0.5029 15.084 1.5085 36.706 0 46.762-1.5084 10.056-2.0112 12.57-16.593 12.57s-236.32-2.0112-248.39-2.0112c-12.068 0-13.576-4.0226-14.079-16.593s0-31.175 1.0056-42.236c1.0057-11.062 3.0169-13.073 15.587-13.576s213.7 0 241.85 0z" fill="#2a2a2a"/><g transform="translate(-445.54 -1128.8)" fill="#181818"><path d="m3307.3 2082c-20.622 17.066-20.622 19.91-17.777 26.31 2.8444 6.3998 10.666 8.5331 29.866-7.1109 19.199-15.644 105.95-103.82 118.75-118.04 12.8-14.222 19.2-15.288 30.221-15.644 11.022-0.3556 164.62-3.1999 196.97-4.2665 32.355-1.0667 52.621-8.5331 6.3998-7.822s-268.44 6.7553-287.28 7.4664-35.199 8.5331 7.1109 7.1109c42.31-1.4222 46.932-0.7111 35.91 6.7554-11.022 7.4664-110.22 94.575-120.17 105.24z"/><path d="m3958.6 2043.2c31.498 6.9252 31.288 14.577 30.221 21.688-1.0667 7.1109-16.355 5.6887-36.266 0.3556-19.91-5.3332-83.198-28.444-119.46-34.488-36.266-6.0443-55.109-5.3332-76.086-4.9776-20.977 0.3555-250.66-3.1999-267.01-4.2666-16.355-1.0666-30.577-6.0442 1.4222-4.9776 31.999 1.0666 270.21 1.4222 307.19 2.1333s93.508-3.1999 110.93-3.1999 37.688 3.1999 9.2441 4.6221c-28.444 1.4221-41.243 2.4888-55.109 2.4888s-12.444 1.4222 18.133 6.7553c30.577 5.3332 58.13 9.7621 76.798 13.866z"/></g><path d="m3847.1 514.59c6.0159-15.126 9.4535-7.0472 11.172 0.5156 1.7188 7.5629 4.1252 18.907 4.4689 25.611 0.3438 6.7034-4.1252 7.391-7.9066 7.7347-3.7814 0.3438-7.0472 0.1719-11.172-0.1718-4.1252-0.3438-7.5628-3.0939-4.469-12.719 3.0939-9.6254 4.6409-13.235 7.9067-20.97z" fill="#cbcb35"/><g transform="matrix(.7718 0 -.046721 .81003 1671.6 -924.62)" fill="#303030"><path d="m2931.2 1790.4c-2.2627-8.5479 7.5422-12.068 5.531-0.2514-2.0113 11.816-4.274 12.319-5.531 0.2514z"/><path d="m2933.8 1802.9c1.4385-0.072 1.7263 0.7194 1.7982 1.8702 0.072 1.1508-0.8631 1.7262-1.8702 1.6543-1.0069-0.072-1.5824-0.6473-1.5824-1.8701s0.4317-1.6544 1.6544-1.6544z"/></g><path d="m3744.4 455.49c7.9067-3.0939 12.644-4.1667 14.943-0.1437 2.2989 4.023 1.0058 7.0403-6.6092 11.063-5.5725 2.9439-11.092 3.8372-14.081-1.4367-2.4426-4.3104 0.4153-7.3965 5.7472-9.4829z" fill="#282828"/><path d="m2049.2 1183.9c31.227 0 66.022 86.35 61.561 154.14-4.461 67.795-34.796 124.89-77.621 127.03-42.825 2.141-70.483-107.05-72.268-135.59-1.7843-28.545 5.3531-39.964 18.736-74.932 13.383-34.968 42.825-70.65 69.591-70.65z" fill="#868686"/><path d="m2070.9 1196.4c-25.037 6.3643-35.3 16.339-32.998 21.403 2.347 5.1625 24.402 4.0992 42.002-9.2674-2.9087-4.604-5.9228-8.6841-9.0034-12.135zm24.692 52.403c-17.765 0.1193-31.521 5.7545-29.167 18.099 2.3087 12.106 22.647 11.638 38.911 7.8888-1.9636-8.946-4.3588-17.67-7.1063-25.964-0.8873-0.021-1.7675-0.03-2.6371-0.024zm-4.5928 76.307c-8.7588-0.026-14.868 3.786-16.515 12.217-2.8649 14.666 18.878 20.004 34.185 20.731 0.9552-6.5426 1.6774-13.23 2.1249-20.033 0.1765-2.6824 0.2693-5.403 0.3256-8.1371-7.5038-3.0928-14.382-4.7607-20.121-4.7778zm-22.139 71.42c-5.4496 0.1118-9.7221 2.3556-11.117 7.0051-3.1515 10.503 13.719 20.647 27.808 23.957 3.4523-5.7243 6.603-11.972 9.4222-18.667-7.6842-8.074-18.154-12.459-26.113-12.295zm-43.712 39.194c-1.1862 0.01-2.1278 0.2647-2.7477 0.7916-4.1017 3.4858 8.1258 19.845 26.502 25.129 2.9884-1.1691 5.8953-2.617 8.7146-4.3334-8.9703-12.6-25.263-21.643-32.469-21.587z" fill="#131313"/><path d="m2017 1437c24.387-0.496 49.635-38.436 55.946-75.384 6.3119-36.948 0-152.5-55.086-153.25s-60.25 85.551-60.537 106.13c-0.287 20.582-0.287 122.5 59.676 122.5z" fill="#747474"/><path d="m2012.3 1382.7c25.253-0.8237 32.4-41.594 30.971-62.597-1.4294-21.003-9.5295-54.772-26.206-53.948-16.677 0.8236-30.971 25.121-30.971 63.832s11.912 50.654 26.206 52.713z" fill="#343434"/><g transform="matrix(1.0284 0 0 .88889 -200.25 -1668.7)"><path d="m2179 3390.5c8.0877-0.1972 11.638 8.2851 11.244 19.134-0.3945 10.849-4.3397 14.4-8.4822 14.203-4.1426-0.1973-9.2714-5.3261-9.0741-18.543 0.1972-13.217 3.3534-14.006 6.3124-14.795z" fill="#7f7f7f"/><path d="m2170.6 3398.6c6.9888 0.1552 9.7843 0 9.7843 7.61s-2.3296 10.25-8.2313 9.7843-1.553-17.394-1.553-17.394z" fill="#707070"/><path d="m2171 3398.6c3.4167 0 4.8145 4.8145 4.8145 9.0078s-1.7084 8.6972-4.3487 8.3865c-2.6401-0.3106-5.9016-3.572-5.7463-10.406 0.1553-6.8336 2.9508-6.8336 5.2805-6.9888z" fill="#676767"/></g><g transform="matrix(1.0284 0 0 .88889 -195.38 -1721.6)"><path d="m2179 3390.5c8.0877-0.1972 11.638 8.2851 11.244 19.134-0.3945 10.849-4.3397 14.4-8.4822 14.203-4.1426-0.1973-9.2714-5.3261-9.0741-18.543 0.1972-13.217 3.3534-14.006 6.3124-14.795z" fill="#7f7f7f"/><path d="m2170.6 3398.6c6.9888 0.1552 9.7843 0 9.7843 7.61s-2.3296 10.25-8.2313 9.7843-1.553-17.394-1.553-17.394z" fill="#707070"/><path d="m2171 3398.6c3.4167 0 4.8145 4.8145 4.8145 9.0078s-1.7084 8.6972-4.3487 8.3865c-2.6401-0.3106-5.9016-3.572-5.7463-10.406 0.1553-6.8336 2.9508-6.8336 5.2805-6.9888z" fill="#676767"/></g><g transform="matrix(1.0284 0 0 .88889 -207.81 -1767.2)"><path d="m2179 3390.5c8.0877-0.1972 11.638 8.2851 11.244 19.134-0.3945 10.849-4.3397 14.4-8.4822 14.203-4.1426-0.1973-9.2714-5.3261-9.0741-18.543 0.1972-13.217 3.3534-14.006 6.3124-14.795z" fill="#7f7f7f"/><path d="m2170.6 3398.6c6.9888 0.1552 9.7843 0 9.7843 7.61s-2.3296 10.25-8.2313 9.7843-1.553-17.394-1.553-17.394z" fill="#707070"/><path d="m2171 3398.6c3.4167 0 4.8145 4.8145 4.8145 9.0078s-1.7084 8.6972-4.3487 8.3865c-2.6401-0.3106-5.9016-3.572-5.7463-10.406 0.1553-6.8336 2.9508-6.8336 5.2805-6.9888z" fill="#676767"/></g><g transform="matrix(1.0284 0 0 .88889 -256.01 -1771.2)"><path d="m2179 3390.5c8.0877-0.1972 11.638 8.2851 11.244 19.134-0.3945 10.849-4.3397 14.4-8.4822 14.203-4.1426-0.1973-9.2714-5.3261-9.0741-18.543 0.1972-13.217 3.3534-14.006 6.3124-14.795z" fill="#7f7f7f"/><path d="m2170.6 3398.6c6.9888 0.1552 9.7843 0 9.7843 7.61s-2.3296 10.25-8.2313 9.7843-1.553-17.394-1.553-17.394z" fill="#707070"/><path d="m2171 3398.6c3.4167 0 4.8145 4.8145 4.8145 9.0078s-1.7084 8.6972-4.3487 8.3865c-2.6401-0.3106-5.9016-3.572-5.7463-10.406 0.1553-6.8336 2.9508-6.8336 5.2805-6.9888z" fill="#676767"/></g><g transform="matrix(1.0284 0 0 .88889 -231.9 -1790.7)"><path d="m2179 3390.5c8.0877-0.1972 11.638 8.2851 11.244 19.134-0.3945 10.849-4.3397 14.4-8.4822 14.203-4.1426-0.1973-9.2714-5.3261-9.0741-18.543 0.1972-13.217 3.3534-14.006 6.3124-14.795z" fill="#7f7f7f"/><path d="m2170.6 3398.6c6.9888 0.1552 9.7843 0 9.7843 7.61s-2.3296 10.25-8.2313 9.7843-1.553-17.394-1.553-17.394z" fill="#707070"/><path d="m2171 3398.6c3.4167 0 4.8145 4.8145 4.8145 9.0078s-1.7084 8.6972-4.3487 8.3865c-2.6401-0.3106-5.9016-3.572-5.7463-10.406 0.1553-6.8336 2.9508-6.8336 5.2805-6.9888z" fill="#676767"/></g><g transform="matrix(1.0284 0 0 .88889 -269.24 -1735.2)"><path d="m2179 3390.5c8.0877-0.1972 11.638 8.2851 11.244 19.134-0.3945 10.849-4.3397 14.4-8.4822 14.203-4.1426-0.1973-9.2714-5.3261-9.0741-18.543 0.1972-13.217 3.3534-14.006 6.3124-14.795z" fill="#7f7f7f"/><path d="m2170.6 3398.6c6.9888 0.1552 9.7843 0 9.7843 7.61s-2.3296 10.25-8.2313 9.7843-1.553-17.394-1.553-17.394z" fill="#707070"/><path d="m2171 3398.6c3.4167 0 4.8145 4.8145 4.8145 9.0078s-1.7084 8.6972-4.3487 8.3865c-2.6401-0.3106-5.9016-3.572-5.7463-10.406 0.1553-6.8336 2.9508-6.8336 5.2805-6.9888z" fill="#676767"/></g><g transform="matrix(1.0284 0 0 .88889 -272.81 -1689.5)"><path d="m2179 3390.5c8.0877-0.1972 11.638 8.2851 11.244 19.134-0.3945 10.849-4.3397 14.4-8.4822 14.203-4.1426-0.1973-9.2714-5.3261-9.0741-18.543 0.1972-13.217 3.3534-14.006 6.3124-14.795z" fill="#7f7f7f"/><path d="m2170.6 3398.6c6.9888 0.1552 9.7843 0 9.7843 7.61s-2.3296 10.25-8.2313 9.7843-1.553-17.394-1.553-17.394z" fill="#707070"/><path d="m2171 3398.6c3.4167 0 4.8145 4.8145 4.8145 9.0078s-1.7084 8.6972-4.3487 8.3865c-2.6401-0.3106-5.9016-3.572-5.7463-10.406 0.1553-6.8336 2.9508-6.8336 5.2805-6.9888z" fill="#676767"/></g><g transform="matrix(1.0284 0 0 .88889 -263.88 -1647.4)"><path d="m2179 3390.5c8.0877-0.1972 11.638 8.2851 11.244 19.134-0.3945 10.849-4.3397 14.4-8.4822 14.203-4.1426-0.1973-9.2714-5.3261-9.0741-18.543 0.1972-13.217 3.3534-14.006 6.3124-14.795z" fill="#7f7f7f"/><path d="m2170.6 3398.6c6.9888 0.1552 9.7843 0 9.7843 7.61s-2.3296 10.25-8.2313 9.7843-1.553-17.394-1.553-17.394z" fill="#707070"/><path d="m2171 3398.6c3.4167 0 4.8145 4.8145 4.8145 9.0078s-1.7084 8.6972-4.3487 8.3865c-2.6401-0.3106-5.9016-3.572-5.7463-10.406 0.1553-6.8336 2.9508-6.8336 5.2805-6.9888z" fill="#676767"/></g><g transform="matrix(1.0284 0 0 .88889 -244.88 -1620.6)"><path d="m2179 3390.5c8.0877-0.1972 11.638 8.2851 11.244 19.134-0.3945 10.849-4.3397 14.4-8.4822 14.203-4.1426-0.1973-9.2714-5.3261-9.0741-18.543 0.1972-13.217 3.3534-14.006 6.3124-14.795z" fill="#7f7f7f"/><path d="m2170.6 3398.6c6.9888 0.1552 9.7843 0 9.7843 7.61s-2.3296 10.25-8.2313 9.7843-1.553-17.394-1.553-17.394z" fill="#707070"/><path d="m2171 3398.6c3.4167 0 4.8145 4.8145 4.8145 9.0078s-1.7084 8.6972-4.3487 8.3865c-2.6401-0.3106-5.9016-3.572-5.7463-10.406 0.1553-6.8336 2.9508-6.8336 5.2805-6.9888z" fill="#676767"/></g><g transform="matrix(1.0284 0 0 .88889 -219.32 -1631.1)"><path d="m2179 3390.5c8.0877-0.1972 11.638 8.2851 11.244 19.134-0.3945 10.849-4.3397 14.4-8.4822 14.203-4.1426-0.1973-9.2714-5.3261-9.0741-18.543 0.1972-13.217 3.3534-14.006 6.3124-14.795z" fill="#7f7f7f"/><path d="m2170.6 3398.6c6.9888 0.1552 9.7843 0 9.7843 7.61s-2.3296 10.25-8.2313 9.7843-1.553-17.394-1.553-17.394z" fill="#707070"/><path d="m2171 3398.6c3.4167 0 4.8145 4.8145 4.8145 9.0078s-1.7084 8.6972-4.3487 8.3865c-2.6401-0.3106-5.9016-3.572-5.7463-10.406 0.1553-6.8336 2.9508-6.8336 5.2805-6.9888z" fill="#676767"/></g><path d="m698.3 1438.5c47.786-1.517 65.232-72.817 62.956-150.18s-36.408-109.23-70.541-109.23-56.13 56.13-59.164 135.77c-3.0341 79.644 37.925 122.12 66.749 123.64z" fill="#868686"/><path d="m730.65 1196.3c-49.126 22.492-49.68 71.111-47.525 117.09 2.1441 45.741 14.302 93.583 54.56 100.77 18.166-27.644 25.048-75.433 23.566-125.8-1.3385-45.509-13.701-75.266-30.602-92.061z" fill="#636363"/><path d="m738.48 1205.5c-12.063 17.32-24.792 45.538-24.256 92.721 0.6483 57.044 7.9587 79.739 32.318 98.863 11.549-28.131 15.92-67.569 14.709-108.72-1.1216-38.134-9.9858-65.203-22.772-82.859z" fill="#747474"/><path d="m734.33 1266.3c-17.446-0.3793-23.134 18.203-2.2754 18.203 20.1-0.3793 19.721-17.824 2.2754-18.203zm4.2188 64.129c-2.0719-0.057-4.3862 0.2719-6.875 1.1015-19.342 9.4814-6.446 21.998 9.1035 15.93 13.12-5.1198 8.9597-16.721-2.2285-17.031z" fill="#181818"/><path d="m2106.8 365.09c-37.716-0.1617-200.33 2.5667-215.65 3.7012-16.336 1.21-21.781 2.4208-21.176 25.412s-3.0253 462.25-3.0253 477.37c0 15.126 3.6299 18.757 24.201 18.152 20.571-0.6051 210.55 1.8136 223.26 0.6035s19.362-4.8399 19.967-26.621c0.605-26.016 6.6553-465.27 5.4453-478.58-1.2101-13.311-6.0503-19.36-27.226-19.965-1.3235-0.038-3.2825-0.061-5.7969-0.072zm-300.13 6.6797c-1.2056-0.01-2.4863 0.01-3.8477 0.047-21.781 0.605-133.71 3.0263-147.63 4.2364s-22.991 6.6543-24.201 22.99c-1.2101 16.336-3.0241 453.17-1.209 473.74 0 15.731 4.2348 18.151 21.176 18.756 16.941 0.605 143.39 1.2104 154.89 0.6054 11.496-0.605 14.52-1.8162 15.73-20.572 1.21-18.756 6.6553-459.22 5.4453-477.37-1.1345-17.017-2.269-22.334-20.354-22.434zm-235.58 4.2832c-12.706 0-136.74 0.6043-151.26 1.8144s-18.151 9.6801-18.756 26.621c-0.605 16.941-4.2355 447.12-3.0254 465.27 0 17.546 2.4197 19.362 21.176 19.967 18.756 0.605 140.97 1.8141 154.89 1.209 13.916-0.605 15.125-6.6556 15.125-19.361 0-12.706 4.2359-455.59 3.6309-474.35-0.605-18.756-9.0756-21.176-21.781-21.176zm-231.73 4.2343c-14.521 0-219.02 3.6298-238.38 4.8399-19.361 1.2101-21.176 9.0753-23.596 35.092-2.4201 26.016-4.8399 418.08-4.8399 442.88-0.605 20.571 3.6297 23.597 29.041 25.412s222.65 1.2101 237.78 0c15.126-1.2101 19.967-6.0502 20.572-24.201 0.605-18.151 3.0245-439.86 1.8144-459.83s-7.8659-24.201-22.387-24.201zm-339.91 8.3516c-26.884-0.041-91.404 1.4803-103.58 2.5391-13.916 1.2101-18.151 4.2346-19.361 18.15-1.21 13.916-7.2609 273.48-6.0508 297.68 0 18.756 1.8158 23.596 19.967 23.596s104.67 1.8159 118.59 1.2109c13.916-0.605 19.362 0.6046 19.967-16.941 0.605-17.546 3.6289-302.52 3.6289-313.41s-7.8652-12.1-24.201-12.705c-2.042-0.076-5.1145-0.1132-8.9551-0.1191zm-188.29 7.3789c-15.126 0-235.36 4.2353-254.12 5.4453-18.756 1.2101-23.596 7.8661-24.201 25.412-0.60504 17.546-2.4195 265.61-1.8144 284.37 0.60503 21.176 7.26 21.781 26.621 21.781s226.89-4e-4 242.01-0.6054c15.126-0.6051 22.386-2.42 24.201-29.646 1.8151-27.227 8.4703-261.37 7.8653-280.73s-5.4445-26.018-20.57-26.018zm-336.98 4.1621c-0.97491 0.01-1.99 0.036-3.0488 0.074-16.941 0.605-105.28 4.2349-124.03 4.8399-18.756 0.6051-19.965 16.941-19.965 33.277s-3.6304 254.72-3.0254 275.89c0 15.731 1.2092 18.756 20.57 19.361s124.03-0.6044 135.53-1.8145c11.496-1.2101 13.311-2.4214 13.916-23.598s0-257.74 0-281.95c0-22.689-5.3178-26.234-19.941-26.09zm-215.27 7.2129c-39.027-0.05-157.15 1.4061-171.97 1.9356-16.941 0.605-16.94 4.8415-18.15 18.152-1.2101 13.311-7.2602 136.74-7.8652 163.96 0 18.151 1.2097 24.201 21.176 24.201 19.966 0 170.62-1.209 185.75-1.209s20.57-1.2105 20.57-16.941c0-15.731-0.60547-162.75-0.60547-174.86s-3.0241-14.52-17.545-15.125c-1.8151-0.076-5.7763-0.114-11.352-0.1211z" fill="#2e2e2e"/><g transform="matrix(.53587 -.026338 0 .53587 431.57 -327.34)" fill="#fda804"><g transform="matrix(.86109 0 0 .86109 681.61 174.15)"><path d="m4376.9 1212.6c23.981-0.5417 28.132 11.816 30.438 20.988s-1.3835 10.177-5.5342 9.8098c-4.1506-0.3674-10.607-0.2215-11.068-5.7453-0.4612-5.5237-4.6118-7.7359-11.068-8.0512-6.4565-0.3153-11.068 2.5559-11.991 29.325-0.9223 26.769 2.3059 29.463 8.7625 30.24 6.4565 0.7765 8.7624-1.5815 10.607-6.6961 1.8446-5.1147 5.5341-6.1204 13.374-5.3752 7.8401 0.7453 6.9177 5.8391 3.6894 14.674-3.2283 8.8353-15.219 13.257-29.516 13.119-14.297-0.1382-25.826-9.5626-28.593-23.336-2.767-13.773 0-41.506 2.306-52.627 2.3059-11.12 12.452-16.884 28.593-16.326z"/><path d="m4424 1230.9c0-17.064 0.9223-17.084 9.6848-17.282 8.7625-0.1979 10.607 5.7557 10.607 14.979 0 9.2236 0.9224 12.892 0.9224 17.504s0.4612 7.8296 5.9954 7.2434c5.5341-0.5862 6.9177-0.6174 6.9177-7.5351v-24.904c0-5.5342 5.5342-7.9651 12.913-8.1318 7.3789-0.1667 6.9177 4.4555 7.3789 12.746 0.4612 8.2908 0 53.036 0 63.643s-1.8447 12.494-8.3012 12.639c-6.4565 0.1459-8.7625-1.1856-8.7625-7.6421s0.4612-11.079 0-16.141c-0.4611-5.0626-2.3059-7.3268-8.7624-7.6421s-9.2236 0.6695-8.7625 9.4215c0.4612 8.7521 0.4612 10.597 0.4612 17.053s-4.6117 7.4831-11.068 7.6289c-6.4565 0.1459-8.7624-1.6467-8.7624-11.332s-0.4612-48.875-0.4612-62.249z"/><path d="m4525.9 1210.6c-14.297 1.2454-24.442 6.0861-26.748 19.974s-3.2288 37.428-0.9229 53.979c2.3058 16.55 17.063 23.597 31.36 22.812 14.297-0.7842 24.443-5.6255 26.288-20.886 1.8447-15.261 1.8435-33.246 0.46-48.895-1.3836-15.649-9.6838-27.452-30.437-26.984zm2.3058 17.934c8.3012-0.1875 10.606 3.91 11.068 17.735s6e-4 25.365-1.3829 34.62c-1.3836 9.2549-3.6903 10.691-8.7632 10.806-5.0731 0.1146-7.8394 0.1766-8.7618-8.1038-0.9223-8.2805-1.3838-30.047-0.4615-41.597s2.7676-12.412 8.3018-13.46z"/><path d="m4606.7 1216.2c-4.0264 0.075-8.3031 3.9205-13.795 12.584-9.8373 15.518-15.326 26.109-15.652 35.899-0.3262 9.7904-1.6315 26.452-1.6315 32.648s2.2836 7.7744 9.1318 7.6197 9.456-1.8449 9.456-5.7581c0-3.9133 0-8.4779 0.3272-13.051 0.3262-4.5728 1.9561-7.8706 15.326-7.8465 13.37 0.024 12.719 3.2993 13.045 7.5313 0.3261 4.232 0 7.1739 0 12.718 0 5.5438 4.5644 6.0929 10.76 5.9529s8.4789-1.1691 8.4789-7.0389c0-5.8699-0.3256-9.7766-1.63-21.487-1.3045-11.71-2.9354-18.522-5.8703-24.651-2.935-6.1297-5.5427-10.635-15.652-25.082-4.4908-6.4174-8.2683-10.114-12.295-10.038zm0.8501 24.813c3.3319-0.2716 6.0831 3.4036 8.8346 8.1108 4.8915 8.3682 9.7832 17.715-8.8047 17.482s-15.326-3.5663-9.1303-16.424c3.5667-6.3581 6.5089-8.9575 9.1004-9.1688z"/><path d="m4723.9 1215c23.981-0.5417 28.132 11.816 30.438 20.988 2.306 9.1715-1.3835 10.177-5.5342 9.8098-4.1505-0.3674-10.607-0.2215-11.068-5.7453-0.4612-5.5237-4.6118-7.7359-11.068-8.0512s-11.068 2.556-11.991 29.325c-0.9224 26.769 2.3059 29.464 8.7624 30.24s8.7625-1.5815 10.607-6.6962 5.5341-6.1204 13.374-5.3751c7.8401 0.7452 6.9177 5.839 3.6895 14.674-3.2283 8.8354-15.219 13.257-29.516 13.119s-25.826-9.5625-28.593-23.336c-2.7671-13.773 0-41.506 2.3059-52.627 2.3059-11.12 12.452-16.884 28.593-16.326z"/><path d="m4771 1233.3c0-17.064 0.9224-17.084 9.6848-17.282 8.7625-0.198 10.607 5.7557 10.607 14.979s0.9223 12.892 0.9223 17.504 0.4612 7.8297 5.9954 7.2435c5.5341-0.5862 6.9177-0.6175 6.9177-7.5352v-24.904c0-5.5341 5.5342-7.9651 12.913-8.1318s6.9176 4.4556 7.3788 12.746 0 53.036 0 63.643-1.8447 12.494-8.3012 12.64c-6.4565 0.1458-8.7624-1.1856-8.7624-7.6422 0-6.4565 0.4612-11.079 0-16.141s-2.3059-7.3268-8.7624-7.6421c-6.4566-0.3153-9.2236 0.6696-8.7625 9.4216 0.4612 8.752 0.4612 10.597 0.4612 17.053 0 6.4566-4.6118 7.4831-11.068 7.629-6.4565 0.1458-8.7624-1.6468-8.7624-11.332s-0.4612-48.875-0.4612-62.249z"/><path d="m4844.6 1228.9c0.3261-12.073 1.9567-13.414 8.4787-13.562 6.5221-0.1474 8.4788 3.7217 8.4788 10.896s-0.3262 30.335 0 39.132c0.3261 8.7975 1.9566 13.326 10.435 13.134 8.4788-0.1915 10.435-3.8229 10.435-9.6927 0-5.8699 1.6305-35.908 1.3044-42.749s2.935-9.1972 9.4571-9.6707c6.522-0.4734 7.5003 2.1133 8.1526 12.534 0.6521 10.421 0.3261 42.712-0.3262 53.162-0.6522 10.45-12.066 23.752-28.045 24.113s-25.762-10.179-27.067-23.846-1.3044-38.451-1.3044-53.452z"/><path d="m4965.6 1216.8c8.8047-0.1989 6.8481 2.1281 6.8481 11.585s0.3261 21.842 6.8482 13.542c6.5221-8.2999 10.761-13.939 15.327-19.586 4.5654-5.647 5.8698-5.0242 12.718-5.1789s8.1526 2.4246-0.6522 13.385c-8.8048 10.96-13.044 17.578-17.61 23.225s-0.3261 7.8338 5.5438 14.549c5.8698 6.7156 16.305 23.437 18.588 29.908s-1.9566 8.1968-7.5004 8.6481c-5.5437 0.4514-8.4787 0.1916-12.718-0.039-4.2394-0.2303-7.1743-9.2949-9.457-16.744-2.2828-7.4489-6.1961-7.0344-6.8482 3.4157-0.6523 10.45-1.6306 12.429-7.8266 12.895-6.1959 0.4661-11.414 0.2578-11.74-4.6264s0.3261-68.489 0.6522-75.671c0.3261-7.1817-0.326-9.1236 7.8266-9.3078z"/><path d="m5054.9 1215.3c-4.0265 0.075-8.3032 3.9204-13.795 12.584-9.8373 15.518-15.326 26.109-15.652 35.899-0.3262 9.7905-1.6315 26.452-1.6315 32.648 0 6.1959 2.2836 7.7744 9.1318 7.6197s9.4561-1.8449 9.4561-5.7581c0-3.9133 0-8.478 0.3271-13.051 0.3262-4.5728 1.9561-7.8706 15.326-7.8465 13.37 0.024 12.719 3.2993 13.045 7.5313s0 7.1739 0 12.718c0 5.5438 4.5645 6.0929 10.76 5.9529 6.196-0.14 8.4789-1.1691 8.4789-7.039 0-5.8698-0.3256-9.7766-1.63-21.487-1.3044-11.71-2.9354-18.522-5.8703-24.651-2.9349-6.1296-5.5427-10.635-15.652-25.082-4.4907-6.4175-8.2683-10.114-12.295-10.038zm0.85 24.813c3.3319-0.2716 6.0832 3.4036 8.8346 8.1107 4.8915 8.3682 9.7832 17.715-8.8046 17.482-18.588-0.2323-15.326-3.5664-9.1304-16.424 3.5668-6.3581 6.5089-8.9576 9.1004-9.1688z"/><path d="m5104.2 1228.6c0.6522-12.081 0.3261-15.008 10.762-15.244 10.435-0.2357 10.109 2.7066 10.109 8.9025 0 6.196 4.2393 12.948 11.414 23.548 7.1743 10.599 16.305 15.285 16.305 5.5015s0.6522-20.559 0.9783-28.719 4.8916-10.546 12.392-10.389c7.5004 0.1566 8.1526 2.7507 8.8048 11.215s0.6522 64.228 0.6522 71.728c0 7.5003-2.9349 8.2189-9.7831 8.6997s-9.457-1.743-9.457-5.3302c0-8.4787-1.3045-8.1231-10.109-17.055-8.8049-8.932-17.936-13.943-18.588 0.4199-0.2961 6.5221 0 10.435 0.3262 14.994 0.3261 4.558-0.6441 5.8844-10.109 6.0982-10.762 0.2431-12.718-1.9954-12.392-13.09 0.3261-11.095-2.2827-45.603-1.3044-61.278z"/><path d="m5218.7 1214c21.197-0.4789 28.045 11.106 30.328 18.881 2.2827 7.7749-1.6305 12.755-8.1526 12.902-6.5221 0.1474-7.5004-0.4827-8.4787-6.6566s-2.6088-12.007-11.74-11.801c-9.1309 0.2063-13.044-0.6837-13.37 28.673-0.3261 29.357 0.9783 37.806 10.761 37.585s14.349-2.2808 14.349-8.4767c0-6.196-1.9566-9.0867-6.8482-8.324s-8.1526-7.3162-0.3261-8.7975c7.8265-1.4812 11.74-1.2435 17.936-1.3835 6.196-0.1399 7.8265 3.7365 8.1526 11.556 0.3262 7.8191-6.522 30.801-31.306 30.383-24.784-0.4184-30.654-14.96-30.654-31.592s0-22.501 1.6306-37.865c1.6305-15.364 9.457-24.998 27.719-25.084z"/><path d="m5311 1240.3c9.131-0.5324 10.109 3.0326 10.435 10.2 0.3261 7.1669 4.2393 32.188 10.761 32.367 6.5221 0.1788 12.066-7.7729 14.022-24.122s4.5654-19.343 11.414-19.498 9.7832 2.7139 9.457 12.178c-0.3261 9.4644-9.1309 31.186-18.588 44.77-9.457 13.584-17.936 11.819-31.306-5.4887-13.37-17.308-17.936-23.074-17.61-35.8s3.5872-14.43 11.414-14.606z"/><path d="m5391.5 1239.7c10.109-0.2284 12.066 0.3796 12.392 10.482s0 35.219 0 43.698-3.5871 11.495-10.761 11.983c-7.1744 0.4882-13.044 1.9252-14.022-10.771-0.9783-12.696 0-37.502 0.9783-45.677s3.9133-9.5454 11.414-9.7149z"/><path d="m5392.5 1233.2c9.457-0.2136 10.109-1.8589 9.7831-7.0692s-1.3045-9.7536-9.7831-9.5621c-8.4787 0.1916-10.435 1.2141-10.435 7.084 0 5.8698-0.3261 10.117 10.435 9.5473z"/><path d="m5427.5 1239.8c-11.298 1.6436-7.3786 14.924-0.6915 15.003 5.0567 0.1164 6.2535-0.084 11.759 0.1966 14.096 0.7191 10.838 9.4395 0.4615 11.519-10.377 2.0792-19.139 8.273-19.369 21.191-0.2307 12.918 10.608 13.825 18.448 14.11 7.8401 0.2841 16.833 0.081 23.29-0.065 6.4566-0.1458 7.1482-1.5453 7.3789-8.007 0.2305-6.4617 0.3253-8.1552-0.6529-25.09-0.9784-16.935-5.0601-30.423-24.3-30.352-6.5893 0.024-12.263 0.9044-16.324 1.4951zm14.066 37.037c5.7648 0.1004 7.8389 3.5132 7.8389 8.5862 0 5.0729-3.227 7.9123-8.9918 7.812-5.7648-0.1004-6.918-2.8405-6.6874-8.1493 0.2305-5.3088 1.6144-8.1082 7.8403-8.2489z"/></g><path d="m4589.9 1350.4c0.3937-14.859 1.3166-14.877 10.084-15.05 8.767-0.1724 10.474 5.0121 10.262 13.044s0.6248 11.226 0.5184 15.242c-0.1064 4.0159 0.2806 6.8181 5.8283 6.3075 5.5476-0.5105 6.9319-0.5376 7.0916-6.5615 0.1596-6.024 0.4469-16.867 0.5745-21.686 0.1277-4.8191 5.718-6.936 13.101-7.0811 7.3826-0.1452 6.8149 3.8799 7.0847 11.1 0.2699 7.2196-1.2237 46.183-1.4684 55.42s-2.133 10.879-8.5928 11.006c-6.4599 0.127-8.7351-1.0324-8.5861-6.6547 0.149-5.6224 0.7168-9.6474 0.3724-14.056-0.3444-4.4084-2.1368-6.3801-8.5861-6.6547-6.4493-0.2745-9.239 0.583-8.9798 8.2042 0.2592 7.6214 0.2167 9.2277 0.068 14.85-0.149 5.6224-4.7845 6.5163-11.244 6.6433s-8.7244-1.434-8.501-9.8675c0.2235-8.4335 0.6665-42.56 0.975-54.206z"/><path d="m5440 1239.6c14.39-16.083 15.66-14.39 21.585-14.39 5.9253 0 6.3485 2.9626 6.3485 11.427s-3.3858 124.43-3.3858 135.01 1.6929 12.274 8.8878 12.697c7.1949 0.4233 9.3111 2.1162 9.3111 16.506 0 14.39-1.6929 16.929-8.8879 17.352-7.1949 0.4232-33.012-0.4232-41.477 0s-9.3111-2.5394-9.7343-11.427c-0.4232-8.8879-0.4232-11.85 0.8465-17.776 1.2697-5.9253 3.8091-5.502 8.8878-5.502 5.0788 0 8.8879 0 8.8879-11.85s0.4232-82.953 0-93.534c-0.4233-10.581 0.4232-9.3111-8.4646-9.7343-8.8879-0.4232-10.581-2.5394-4.6556-12.697 5.9252-10.158 6.7717-9.3111 11.85-16.083z"/><path d="m5550.2 1223.7c-29.628-0.2993-39.803 16.159-41 24.838s-4.4896 33.518-3.5918 55.664 8.9787 41.898 23.344 42.197c8.0841 0.1684 17.956 0 27.533 0 9.5766 0 10.474 0.8988 10.774 15.264 0.2992 14.365-8.979 22.744-15.264 22.744h-26.635c-8.6789 0-11.97 1.1961-12.568 5.9844-0.5985 4.7883-0.8994 9.5772-0.3008 19.453 0.5985 9.8759 5.0884 9.5762 29.928 9.5762 24.839 0 48.78-27.233 49.379-46.984 0.5986-19.752 4.1906-82.598 2.0957-105.94s-15.263-43.394-43.693-42.795zm-1.1973 31.123c14.365 0 15.862 2.0949 16.76 11.971 0.8978 9.8759 0.2988 26.336 0.2988 35.314s-1.4966 12.568-17.059 12.867-15.562-1.7942-15.861-10.174c-0.2993-8.3795-9e-4 -25.139 0.5976-36.811 0.5985-13.168 0.8988-13.168 15.264-13.168z"/><path d="m5661.2 1220.1c-30.825 0.2993-43.095 17.657-44.592 46.088-0.8978 16.46-0.8989 73.918-0.5996 105.64 0.2992 31.722 10.775 45.789 43.994 45.789s40.999-22.444 41.896-38.904 9e-4 -98.162-0.5977-114.02c-0.5985-15.861-9.2767-44.889-40.102-44.59zm-7.0293 33.484c1.605-0.022 3.4363 0 5.5312 0.033 16.759 0.2993 16.46 3.8899 16.76 14.963 0.2992 11.073-1.4953 88.885-2.0938 99.658-0.5986 10.774-4.1903 15.861-15.562 15.861-11.372 0-17.058-0.599-17.357-15.562-0.2993-14.963 0.8965-86.488 0.8965-100.85 0.5237-11.784 0.5907-13.944 11.826-14.1z"/><path d="m4683.3 1336.2c7.8298 0 9.0995 0.8465 9.0995 5.502 0 4.6556-0.8465 4.8672-5.502 4.8672-4.6556 0-5.2904 0.8464-5.2904 6.5601v43.593c0 5.9253 1.0581 7.4066 5.2904 7.4066s5.2903 1.6929 5.2903 5.502c0 3.809-1.058 4.8671-8.0413 4.8671s-17.564 0.4233-21.796 0.2116c-4.2323-0.2116-4.4439-0.4232-4.6556-4.6555-0.2116-4.2323-0.2116-5.9252 2.9627-5.9252 3.1742 0 4.4439-0.2116 4.4439-5.502s0.6348-43.381 0.6348-46.555-0.8464-5.7136-4.4439-5.502-4.4439-1.9046-4.2323-5.502c0.2116-3.5975 1.8615-4.8672 6.5601-4.8672h19.68z"/><path d="m4707 1347.6c0.4233-9.0995-0.2116-10.792 9.0995-11.004 9.3111-0.2117 7.4065 2.1161 7.6181 11.216 0.2117 9.0994-0.2116 44.228 0 49.518 0.2117 5.2904-1.6929 7.4065 9.946 7.4065 11.639 0 13.967 0.2116 13.967 4.4439s0.6348 4.6556-7.6182 4.8672-20.738 0-26.24 0-7.8298-0.4232-7.8298-5.502 0.6349-51.846 1.0581-60.945z"/><path d="m4762.8 1347.2c0.4233-9.0995-0.2116-10.792 9.0995-11.004 9.3111-0.2117 7.4065 2.1161 7.6181 11.216 0.2117 9.0994-0.2116 44.228 0 49.518 0.2117 5.2904-1.6929 7.4065 9.946 7.4065 11.639 0 13.967 0.2116 13.967 4.4439s0.6348 4.6556-7.6182 4.8672-20.738 0-26.24 0-7.8298-0.4232-7.8298-5.502 0.6349-51.846 1.0581-60.945z"/><path d="m4883.5 1335.3c10.474-0.5985 16.46 10.175 17.956 15.263 1.4963 5.0876-1.1971 6.8832-3.8905 6.8832s-7.1825-0.5985-9.5766-6.8832c-2.3942-6.2846-5.9854-5.9854-10.774-5.9854s-8.0803 3.5913-8.0803 12.869c0 9.2774 2.0949 13.168 10.474 12.569 8.3796-0.5985 22.146 6.2847 22.146 20.051s-10.474 23.942-26.036 23.642c-15.562-0.2993-20.35-11.372-22.146-16.161s2.6934-5.6861 8.0803-5.3868c5.3868 0.2992 5.0875 2.0949 5.9853 5.9854 0.8979 3.8905 2.3942 7.4817 9.2774 7.781 6.8832 0.2992 11.672-0.2993 11.672-12.27s-3.292-14.964-12.27-15.263c-8.9781-0.2993-22.744-5.6861-23.942-21.547s8.0803-21.248 31.124-21.547z"/><path d="m4953.8 1332.9c12.869 0 12.569 1.7957 13.168 9.5767 0.5985 7.781 0.8978 14.365-7.781 14.365s-8.6788 4.1898-8.6788 9.5766c0 5.3869-0.2993 33.518-0.2993 39.803 0 6.2847-2.0949 8.0803-7.781 8.0803s-8.6788-2.6934-8.6788-8.3795v-39.204c0-5.9854 0-10.175-6.584-10.175-6.5839 0-8.0802-2.3941-8.0802-11.672 0-9.2773 0.5985-11.372 6.5839-11.672s19.752-0.2993 28.131-0.2993z"/><path d="m5011.3 1333.5c-7.1824 0-17.658-4e-4 -21.848 0.2988-4.1898 0.2993-6.584 1.4962-6.584 10.774 0 9.2774-0.897 52.67-0.5977 60.451 0.2993 7.7811 4.1904 10.476 10.176 9.877 5.9854-0.5985 6.8828-4.7877 6.8828-17.656 0-12.868 7.1811-1.7959 12.867 6.8829 5.6862 8.6789 6.2853 10.475 12.869 10.176 6.5839-0.2993 5.9865-5.9854 0.5997-13.168-5.3869-7.1824-11.075-14.066-4.1914-20.949 6.8832-6.8831 11.073-13.468 10.475-25.738-0.5985-12.27-8.0792-20.648-20.648-20.947zm-2.9941 8.6777c8.0803-0.2993 7.7812 9.577 7.7812 14.365s-2.6926 12.57-9.875 12.869c-7.1825 0.2993-6.8843 0.8975-7.1836-14.365 0.5985-12.869 1.1972-12.57 9.2774-12.869z"/><path d="m5088.2 1331.7c10.774 0.2992 11.073 1.197 11.073 5.0875s-4.1898 4.4891-9.5766 4.7883c-5.3868 0.2993-13.168 0.5986-17.358 0.5986-4.1898 0-5.0876 2.3941-5.0876 12.27s0 14.664 6.5839 14.365c6.584-0.2993 15.861-0.5986 15.861 4.7883 0 5.3868-4.1898 5.3868-13.766 5.3868s-8.6788 3.292-9.2773 11.672c-0.5986 8.3796-0.8978 10.774 9.2773 11.073 10.175 0.2993 19.752-1.4964 19.752 3.8905 0 5.3868-1.7956 8.0803-9.8759 8.3795-8.0803 0.2993-22.146 0-28.73 0-6.5839 0-8.978-1.7956-9.8758-8.9781-0.8979-7.1824 0.2992-51.774 0.5985-60.452 0.2993-8.6788 2.0949-11.672 8.6788-11.971 6.5839-0.2993 22.744-1.1971 31.723-0.8978z"/><path d="m5154 1331.7c10.774 0.2992 11.073 1.197 11.073 5.0875s-4.1898 4.4891-9.5766 4.7883c-5.3868 0.2993-13.168 0.5986-17.358 0.5986-4.1898 0-5.0876 2.3941-5.0876 12.27s0 14.664 6.5839 14.365c6.584-0.2993 15.861-0.5986 15.861 4.7883 0 5.3868-4.1898 5.3868-13.766 5.3868s-8.6788 3.292-9.2773 11.672c-0.5986 8.3796-0.8978 10.774 9.2773 11.073 10.175 0.2993 19.752-1.4964 19.752 3.8905 0 5.3868-1.7956 8.0803-9.8759 8.3795-8.0803 0.2993-22.146 0-28.73 0-6.5839 0-8.978-1.7956-9.8758-8.9781-0.8979-7.1824 0.2992-51.774 0.5985-60.452 0.2993-8.6788 2.0949-11.672 8.6788-11.971 6.5839-0.2993 22.744-1.1971 31.723-0.8978z"/><path d="m5217.2 1332.9c12.869 0 12.569 1.7957 13.168 9.5767 0.5985 7.781 0.8978 14.365-7.781 14.365s-8.6788 4.1898-8.6788 9.5766c0 5.3869-0.2993 33.518-0.2993 39.803 0 6.2847-2.0949 8.0803-7.781 8.0803s-8.6788-2.6934-8.6788-8.3795v-39.204c0-5.9854 0-10.175-6.584-10.175-6.5839 0-8.0802-2.3941-8.0802-11.672 0-9.2773 0.5985-11.372 6.5839-11.672s19.752-0.2993 28.131-0.2993z"/></g></svg>
