<svg width="1928.4" height="997.19" version="1.1" viewBox="0 0 1928.4 997.19" xmlns="http://www.w3.org/2000/svg"><path d="m143.19 892.62c30.197 28.472 45.727 39.688 91.455 42.276 45.727 2.5883 83.69-3.4512 100.08-3.4512s161.34 13.805 203.62 17.256c42.276 3.4511 262.29-0.8628 281.27-1.7256s300.25-6.9022 330.45-8.6278c30.197-1.7256 54.355-17.256 59.532-29.335 5.1767-12.079-534.06-18.118-534.06-18.118s-509.9 12.942-532.34 1.7255z" fill="#0a0a0a"/><path d="m272.99 872.7c28.064 107.37 75.65 123.24 135.44 124.46 59.788 1.2201 130.56-35.385 139.1-108.59 8.5411-73.21-274.54-15.862-274.54-15.862z" fill="#111"/><path d="m992.88 909.3c21.963 50.637 40.875 65.278 98.833 68.329 57.958 3.0504 78.7-48.196 85.411-69.549 6.7109-21.353-184.24 1.2201-184.24 1.2201z" fill="#111"/><path d="m1029.5 835.49-143.37-120.8s170.82-96.392 159.84 14.642c-10.982 111.03-16.472 106.15-16.472 106.15z" fill="#0e0e0e"/><path d="m907.47 991.06c-88.462-2.4403-120.19-33.554-126.29-76.26-6.1008-42.706 134.83-141.54 134.83-141.54z" fill="#0e0e0e"/><path d="m908.69 991.67c86.631-1.2202 121.41-66.499 123.85-133.61 2.4403-67.109-60.398-134.22-119.58-134.83s-98.833 57.347-101.88 123.24-14.642 146.42 97.613 145.2z" fill="#161616"/><path d="m1536 742.6s73.362 156.64 79.768 157.55c6.4059 0.9151 20.438 0 24.708-1.2202 4.2705-1.2202 0.305-182.72 0.305-182.72s-48.806-27.148-76.565-13.422c-27.759 13.727-28.979 37.52-28.979 37.52z" fill="#111"/><path d="m1586.9 725.82c-49.722 0-56.585-0.1526-66.041 8.3886-9.4562 8.5411-122.63 142.15-117.75 166.25 4.8806 24.098 5.9574 44.851 25.318 60.093 14.337 11.286 44.231 8.5411 69.549 8.5411s80.53-0.6101 86.631-0.9151-5.7958-48.501-5.7958-48.501z" fill="#1b1b1b"/><path d="m1372.9 911.93c-24.652 0.541-134.16 2.4603-150.84 1.6641s-10.466-66.833-10.466-66.833l0.3269-548.24 170.65 7.1921s12.689 597.83-9.6745 606.21z" fill="#1c1c1c"/><path d="m662.96 914.19c30.051 2.774 178 4.6233 188.17 4.6233 10.171 0 2.7739-656.04 2.7739-656.04l-194.18 5.0856-4.161 178.46z" fill="#1c1c1c"/><path d="m668.51 320.57c0.4623 40.685 2.774 137.77 3.2363 165.98s2.8862 190.28 2.8301 195.58c-0.056 5.2995-20.63 1.3697-20.63 1.3697s-45.077-78.596-44.152-116.04c0.9247-37.449 2.774-197.41 2.774-197.41l4.6233-47.62z" fill="#151515"/><path d="m685.63 122.65v64.075l232.76 6.5383v-64.075z" fill="#102504"/><path d="m1765.8 201.11-848.67-44.46 15.692 35.307 852.59 53.614z" fill="#96ef65"/><path d="m1778.6 105.12c-59.178-3.9298-203.66-11.558-273.47-9.94s-180.54 9.4777-196.49 12.021c-15.95 2.5428-20.805 5.5479-29.589 13.87-8.7842 8.3219 45.077 6.4726 45.077 6.4726l413.78 40.916 23.116-7.8596z" fill="#87ed4e"/><path d="m1687.7 109.51c10.865 0 11.789 1.1558 8.7843 7.1661-3.0052 6.0103-19.187 39.067-21.498 41.378-2.3116 2.3116-286.18-19.649-284.33-26.815s4.6233-11.327 6.2414-14.101c1.6182-2.774 3.2363-3.2363 8.0908-3.2363 4.8544 0 270.69-4.161 282.71-4.3921z" fill="#f2f3f1"/><path d="m1196.6 96.494c-45.441-2.2884-145.8-1.6346-170 3.923-24.192 5.5576 171.63 16.346 171.63 16.346z" fill="#87ed4e"/><path d="m1166.2 125.92c18.961-30.73 20.596-29.422 31.057-29.422s21.903 11.769 25.499 26.48c3.5961 14.711-56.556 2.9422-56.556 2.9422z" fill="#7ae140"/><path d="m1377.3 635.41c0-24.041-2.774-300.98-3.2363-311.15-0.4623-10.171-2.3116-12.021-10.171-12.483-7.8596-0.46233-122.98-7.3972-133.15-7.3972s-10.634 3.2363-10.171 10.634 5.0856 307.45 4.6233 318.08c-0.4623 10.634-376.33 10.171-375.87-6.9349 0.4624-17.106-5.0856-326.87-5.0856-335.65s-1.3869-11.096-10.634-11.558-143.78-8.3219-152.11-7.8596c-8.3219 0.46233-11.558 3.2363-12.483 15.257-0.9246 12.021-0.4623 30.976-0.4623 38.836 0 7.8596-0.9247 10.171-7.3972 10.171-6.4726 0-39.76-1.387-45.308-7.8596s21.267-142.4 21.267-142.4l1279.3 81.832 1.0403 7.6284 0.809 56.057 1.1559 157.08 0.2311 226.31-106.8-3.4674-1.387-62.646z" fill="#161616"/><path d="m52.687 149.04-12.021 171.06 573.75 2.3116 9.7089-177.53-345.82-18.955z" fill="#171717"/><path d="m73.647 148.15c-5.8845 20.269-7.1921 45.114-8.4998 71.268-1.3077 26.153-5.8845 93.825-4.9037 98.075 0.98074 4.2499 524.05 6.5383 527.97 3.2692 3.923-3.2692 4.9037-3.5961 5.2306-15.365 0.327-11.769 8.8268-150.71 9.1537-155.61s-260.88-21.903-260.88-21.903z" fill="#202020"/><path d="m1748.7 162.68c-4.8544-18.031-3.6986-39.76 0-47.389 3.6987-7.6284 11.789-11.096 29.127-10.402 17.337 0.6935 69.58 4.8544 84.606 7.6284 15.026 2.774 25.197 12.021 34.443 30.745 9.2466 18.724-148.18 19.418-148.18 19.418z" fill="#7ae140"/><path d="m1742.5 161.99c9.0154-2.0805 11.096-5.0856 14.101-15.026s6.9349-21.036 19.187-24.735c12.252-3.6986 57.098 0.23117 72.586 2.0805s28.202 3.2363 36.755 7.6284c8.5531 4.3921 12.483 10.865 16.875 23.579 4.3921 12.714 13.176 43.69 13.87 55.479 0.6935 11.789 1.6181 28.664 1.6181 34.675 0 6.0103-178.46 7.3972-179.15-10.865-0.6935-18.262 4.1609-72.817 4.1609-72.817z" fill="#6ed235"/><path d="m966.94 163.84c-2.3116 17.8-3.9298 21.729-2.3116 26.815 1.6181 5.0856 10.402 2.3116 12.252-5.5479s3.2363-18.955 4.3921-23.116 31.438-1.1558 31.207 4.3921c-0.2311 5.5479-0.6935 11.327-0.6935 15.257s11.096 6.4726 11.558 3.9298c0.4624-2.5428 1.8493-23.348 1.8493-23.348s34.212 6.4726 34.212 9.4777-0.6935 5.3168-1.1558 11.327c-0.4623 6.0103 7.6284 10.634 9.7089 6.4726 2.0805-4.161 3.4674-16.875 3.6986-20.342s33.056-0.23116 33.056 4.6233c0 4.8544-2.3117 18.955-0.9247 20.111s9.4777 9.4777 14.332-16.413c4.8544-25.89 31.438-8.0907 31.438-1.1558s-2.0805 23.116-0.2312 23.348 11.789 0.23116 12.483-5.0856 0-18.955 0.9246-24.735c0.9247-5.7791 30.051 4.8544 30.282 11.096s-0.9247 19.418 0 20.574 12.02 4.3921 12.714-1.6182c0.6935-6.0103-0.6935-25.428 0.4623-26.584 1.1559-1.1558 33.288 5.7791 33.981 11.096 0.6934 5.3168-0.2312 11.558 0 15.026 0.2311 3.4675 11.096 8.5531 11.327 2.774 0.2312-5.7791 0.4623-24.272 0.6935-27.277 0.2311-3.0051 31.901 6.2414 31.901 11.558 0 5.3168-0.6935 16.875-0.4623 19.649 0.2311 2.774 10.171 2.3116 10.865-1.8493s-0.6935-23.81 1.387-24.735c2.0805-0.92465 33.288 3.4675 33.056 9.0154-0.2311 5.5479-2.5428 21.729-1.6181 23.81 0.9246 2.0805 11.327-0.46233 11.558-4.3921 0.2311-3.9298 0-17.8 1.1558-19.88 1.1558-2.0805 33.056 0.46233 32.825 4.6233-0.2312 4.161 0.4623 18.262 0.4623 19.88 0 1.6182 8.3219-2.0805 8.5531-4.3921 0.2311-2.3116-1.1558-21.729 0.2311-22.654 1.387-0.92466 31.67 0.92465 31.67 5.5479s-0.9246 16.181-1.6181 21.498c-0.6935 5.3168 14.563 4.8544 13.176 0.92466s-1.6181-18.955-0.6935-21.498c0.9247-2.5428 32.594 1.8493 32.363 6.4726-0.2312 4.6233-0.4624 14.332-1.1558 17.8-0.6935 3.4675 10.634 2.0805 10.634-0.92466s-0.2312-14.794 0.9247-20.574c1.1558-5.7791 30.051 3.0051 30.051 6.7038 0 3.6986-0.9247 16.181-2.0805 18.724-1.1558 2.5428 18.262 5.5479 15.488 0.46232-2.774-5.0856-3.9298-17.337-3.2363-20.574 0.6935-3.2363 33.75 0.46233 32.594 4.6233s-1.387 17.8-2.3116 19.418c-0.9247 1.6182 13.639 6.4726 12.483 0.6935s-2.0804-18.493-0.9246-21.961 30.976 0 30.745 4.3921c-0.2312 4.3921-1.8493 11.789-1.6182 14.794 0.2312 3.0051 12.252 2.774 12.021 1.8493-0.2312-0.92466-0.2312-12.945 0.9246-15.95 1.1558-3.0051 29.127-2.3116 28.664 2.774-0.4624 5.0856-1.8494 15.719 3.4674 15.719s7.8596-5.7791 8.5531-15.488c0.6935-9.7089 31.207-1.387 30.282 2.3116-0.9247 3.6986-1.387 12.252-2.0805 15.257s10.634 2.774 10.402-0.69349c-0.2312-3.4675 0.2311-13.176 1.8493-15.257 1.6181-2.0805 27.971-3.2363 27.971 1.1558 0 4.3921-1.6181 19.187-2.3116 20.574s14.563 0.69349 13.408-2.3116-1.1558-13.408 0.4623-16.644c1.6182-3.2363-3.2363-13.87-3.2363-13.87l-531.68-41.147s-206.43-19.649-210.36 3.4675z" fill="#66d228"/><path d="m1681.5 113.9c9.0154-0.23116 9.0154 0.69349 6.2414 6.7038-2.7739 6.0103-15.488 30.514-17.106 32.363-1.6181 1.8493-276.7-10.634-274.62-19.187 2.0805-8.5531 3.9298-11.327 5.3168-12.945 1.3869-1.6182 3.0051-1.8493 7.166-2.0805 4.161-0.23116 265.15-4.8544 273-4.8544z" fill="#acb1a9"/><path d="m1310.4 122.81c3.4326-7.3556 1.6346-8.6633 8.9902-8.6633s51.816 0 56.556-0.16345c4.7403-0.16346 3.923 2.9422 2.2884 6.3748s-2.7788 10.298-6.8652 10.625c-4.0865 0.32691-60.97-8.1729-60.97-8.1729z" fill="#e8f2e1"/><path d="m1316.3 123.3c0.6538-3.5961 1.4711-4.5768 3.7595-4.7403s46.258-0.32692 50.999-0.16346c4.7402 0.16346 2.2884 4.9037 0.6538 7.6825s-55.412-2.7788-55.412-2.7788z" fill="#acb1a9"/><path d="m615.41 161.85c0.4903-4.4134-1.2712-4.7951-4.5404-4.9585-3.2691-0.16346-1.5436-18.745-1.5436-18.745l20.865-124.44s28.173 0.8637 35.201-0.60741c7.0287-1.4711 11.442-1.1442 30.73 0.16345 19.288 1.3077 114.84 8.3035 134.26 10.615 19.418 2.3117 30.514 6.2414 53.861 23.579 23.348 17.337 30.976 27.508 35.599 33.056 4.6235 5.548 5.5482 8.0908 16.413 9.0154 10.865 0.92464 439.36 33.741 462.9 35.376s316.45 26.153 332.8 27.461c16.346 1.3077 16.672 3.596 17.98 8.8267 1.3076 5.2306 1.7978 50.672 1.798 55.412 0 4.7403-0.4904 4.7403-4.2499 4.9038-3.7595 0.16344-793.91-56.883-799.8-56.883-5.8845 0-5.8847 1.1442-6.048 3.923-0.1634 2.7788 1.3077 7.0287-5.3941 7.0287-6.7019-2e-5 -18.798 7.1921-23.375 0.16343-4.5768-7.0287-8.9902-15.038-21.576-16.182-12.586-1.1442-48.22-4.2499-53.124-4.5768-4.9035-0.3269-8.1726 2.125-8.4998 5.2306-0.3267 3.1057-2.2882 12.423-4.5766 12.75-2.2886 0.32688-20.922-2.6153-22.067-9.644-1.1445-7.0287-0.6539-11.115-8.3366-11.769-7.6823-0.6538-79.113-5.0672-84.671-5.3941-5.5576-0.32692-6.3749-0.32692-8.4998 6.0479-2.125 6.3748-6.5383 10.952-14.221 10.461-7.6826-0.49038-71.885-0.81546-71.885-0.81546z" fill="#71d935"/><path d="m852.92 620.5c-2.8896 0.1156-3.1666 1.2312-3.2246 2.9649-0.058 1.7338-0.033 4.6063-0.033 8.8828l375.42 7.414c0.01-0.6869 0.066-5.9496 0.07-6.4316l0.078-6.7969c-135.9-2.3368-252.34-4.3323-258.63-4.414-17.8-0.2311-110.78-1.7348-113.67-1.6192zm524.4 8.6485c-0.036 2.4937-0.064 4.8198-0.064 6.2617 0 1.784 0.037 4.3737 0.078 7.3594l417.4 8.2441s23.348 9e-4 23.348-1.6172c0-1.6182 4e-4 -5.3174-0.1152-8.9004-0.1155-3.5831-0.5773-3.6988-5.4317-3.8144-2.499-0.06-220.47-3.8315-435.22-7.5332z" fill="#eaeaea"/><path d="m852.05 630.27c-1.4448 0.058-2.3332 0.1524-2.4082 2.0566-0.064 1.621-0.1091 3.3337-0.078 7.709 0 0 178.29 3.5217 375.43 7.3379 0.018-1.6959 0.1206-10.863 0.1309-11.883-9.7554-0.1432-35.374-0.5287-36.441-0.5391-11.905-0.1155-335.19-4.7396-336.63-4.6816zm525.23 7.5078c0.029 3.1822 0.096 7.3583 0.1446 12.535 226.37 4.315 440.52 8.2301 440.56 7.5781 0.082-1.3894 0.082-9.3162 0-11.359-0.082-2.0435-0.4099-1.634-6.1309-1.9609-3.7046-0.2117-251.9-4.0228-434.58-6.793z" fill="#979797"/><path d="m1585.8 725.67c-35.806 2.1569-62.552 99.651-61.689 141.5 0.8628 41.845 28.04 101.38 58.669 101.38s42.708-69.023 45.728-95.769c3.0197-26.746-1.7256-92.318-12.942-116.48-11.216-24.158-17.256-28.472-29.766-30.629z" fill="#1e1e1e"/><path d="m913.23 945.68c49.61-0.8628 72.474-41.414 73.768-80.67 1.2942-39.257-23.726-85.847-69.885-85.847-46.159 0-59.101 85.847-55.649 106.55 3.4511 20.707 2.1569 59.532 51.767 59.963z" fill="#4b4b4b"/><path d="m873.11 909.44c10.569 15.099 15.746 29.55 40.766 28.688s47.884-15.962 57.806-38.61c9.922-22.648 9.4907-48.747 1.0785-71.611-8.4121-22.864-32.354-39.257-47.884-42.923s-36.021 7.1179-39.904 9.4906-11.863 114.97-11.863 114.97z" fill="#6f6f6f"/><path d="m921.81 922.73c33.554-0.6101 51.247-38.435 52.772-63.143s-16.167-57.042-49.416-57.958c-33.249-0.9151-46.061 24.708-48.806 54.297-2.7454 29.589 10.371 66.804 45.451 66.804z" fill="#8a8a8a"/><path d="m925.16 821.45c25.318 0.9151 30.504 25.623 30.809 39.045 0.3051 13.422-9.4562 40.265-33.859 39.96-24.403-0.305-32.944-25.928-33.554-36.3-0.6101-10.371 7.0159-43.621 36.605-42.706z" fill="#181818"/><path d="m918.76 845.25c8.9987 0.4576 12.659 6.8634 12.354 16.625-0.305 9.7612-5.4907 21.81-16.777 21.658-11.286-0.1525-12.964-11.286-12.507-22.268s5.6432-15.404 16.93-16.015z" fill="#131313"/><g transform="translate(-503.03 -424.14)" fill="#1e1e1e"><path d="m1431.2 1221.2c6.1008-0.4575 3.6605-4.2705-0.6101-7.626-4.2705-3.3554-11.439-1.8302-9.1511 2.2878 2.2878 4.1181 6.2533 5.9483 9.7612 5.3382z"/><path d="m1458 1234.5c-1.6177-7.4415 3.559-4.7453 6.2552 1.6177 2.6962 6.3631-2.1569 7.4415-6.2552-1.6177z"/><path d="m1477.5 1272.8c-0.8628-8.4121 2.6962-6.4709 2.804-0.5392 0.1079 5.9316-1.7255 10.03-2.804 0.5392z"/><path d="m1472.7 1314.2c3.3872-9.1883 6.6866-5.1767 3.7747 2.6962s-9.792 13.627-3.7747-2.6962z"/><path d="m1447.9 1344.6c7.7788-8.2132 8.9514 0.3235 3.3433 4.961-5.6081 4.6374-16.865 9.316-3.3433-4.961z"/><path d="m1411.6 1360.9c8.8435-0.6471 11.324-10.569 2.1569-10.569-9.167 0-12.618 11.108-2.1569 10.569z"/></g><g transform="translate(-211.09 -618.93)" fill="#229835"><path d="m1156.5 1444.6c-5.1985-6.3205-6.7731-7.9968-3.1275-11.765 3.6457-3.7679 6.4866-1.9811 9.8458 1.5898 3.3591 3.5711 12.303 14.71 14.9 18.986 2.5966 4.2762 0.5134 6.4293-1.9413 8.3032-2.4545 1.8739-3.6814 1.1727-7.411-2.2003-3.8053-3.4415-7.3621-8.9527-12.266-14.914z"/><path d="m1169.4 1490c3.0255-7.082 3.7416-9.1234 8.5179-7.7323 4.7764 1.3911 4.5256 4.5341 3.0021 8.8867-1.5233 4.3525-8.8515 20.423-11.304 24.448-2.4527 4.0255-5.1821 3.2306-7.8403 2.0051-2.6582-1.2256-2.6091-2.5524-1.4155-7.127 1.2177-4.6672 6.1862-13.801 9.0399-20.481z"/><path d="m1094.9 1480.1c-0.3466-8.1763-0.5949-10.463 4.5843-11.277 5.1793-0.8142 6.3723 2.3226 6.9051 7.1962s1.5047 24.182 1.0041 29.16-3.4602 5.443-6.5483 5.4618c-3.0881 0.019-3.6457-1.2797-4.5934-6.2182-0.967-5.0386-1.025-16.611-1.3518-24.323z"/><path d="m1120.8 1533.4c-8.0166-1.6448-10.389-1.3775-10.217-6.6175 0.1714-5.2401 3.4763-5.8238 8.3633-5.4332 4.8871 0.3905 17.889 2.8056 22.684 4.2307s4.6976 4.4195 4.1371 7.4563c-0.5606 3.0369-1.969 3.8799-6.9693 3.3459-7.4987-0.8006-10.059-1.3533-17.998-2.9822z"/><path d="m1116.8 1428.4c6.8946-4.4087 8.7464-5.7724 12.053-1.7039 3.3066 4.0686 1.1945 6.6762-2.7512 9.5862-3.9456 2.9099-17.778 11.416-22.333 13.485-4.5549 2.0689-6.4446-0.256-8.0129-2.9163s-0.7258-3.795 3.0675-7.0963c3.87-3.3682 11.473-7.1961 17.976-11.355z"/></g><path d="m666.35 158.94s-13.557 35.878-0.3809 36.34c13.176 0.46232 290.81 17.106 323.63 18.955 32.825 1.8493 916.1 57.096 920.72 56.865 4.6232-0.23116 6.1269 0.34782 6.1269 2.8906 0 2.5428 0.3474 45.193 0.4629 49.238 0.1156 4.0454-0.4631 5.0856-3.0059 5.2012-2.5428 0.11559-2.3398 0.17728-2.3398 6.3887s1.6353 47.731 2.2891 70.615c0.6539 22.884 3.7497 291.7 3.1718 296.32-0.5779 4.6233-0.1158 6.242-3.8144 6.3575-3.6986 0.1156-88.883-2.0794-92.697-2.3106-3.8143-0.2312-3.4671-2.5432-3.3515-6.3574s0.8086-39.761 0.8086-44.037c0-4.2766-0.23-3.4837-9.0567-3.8106-8.8268-0.327-254.01-2.2876-284.74-2.9414-14.503-0.3085-80.233-1.6456-146.8-2.9277 0.098 7.6077 0.1836 17.335-0.1133 27.133-0.4302 14.197-2.8611 203.34-4.3144 239.07 0.7075-0.016 1.9003-0.035 2.4668-0.051 33.75-0.9247 137.31-2.311 144.71-2.7734 7.3973-0.4623 7.8594-3.6988 7.8594-12.945 0-9.2466-0.9251-69.812 2.7734-101.25 3.6986-31.438 13.87-91.541 55.942-90.154 42.072 1.387 48.083 67.5 49.008 88.305 0.9243 20.805-0.2143 103.07-0.051 109.11 0.1634 6.0479 1e-4 6.2111 8.9902 5.7207 8.9902-0.4904 148.26-6.0482 154.3-5.8848 6.048 0.1635 19.451-3.4321 26.807-6.2109 7.3557-2.7787 76.824-25.99 86.305-29.096 9.4806-3.1057 12.913-6.5385 13.076-13.24 0.1635-6.7017 0.8191-25.173 0.4922-40.865s3.2676-167.05 2.7773-188.47c-0.4904-21.413-5.0664-136.81-5.0664-152.67 0-15.855-2.4522-93.988-3.2695-109.35s-1.6348-67.182-1.6348-75.682-0.9811-37.595-1.1445-41.518c-0.1635-3.923 0.4915-3.9243-6.5371-4.5781-7.0287-0.65383-1079.5-71.266-1105.3-73.064-25.826-1.798-126.35-7.6819-139.1-8.3359zm186.4 479.25c-2.774 0.1156-3.2363-0.4641-3.2363 1.8476 0 2.3116-0.6941 39.299-0.4629 60.566 0.2311 21.267-3.9297 203.66-3.9297 210.59s-0.4619 8.0913 5.086 7.6289c5.5479-0.4623 36.987 0.9247 45.772 0 8.7842-0.9246 6.4707-6.9356 6.4707-16.644s2.3134-92.465 4.625-122.98c2.3117-30.514 23.578-85.07 62.414-83.221 38.836 1.8494 55.479 67.501 55.941 87.844 0.4623 20.342-2.3119 108.18-1.8496 119.74s0.9237 10.633 15.256 11.096c7.8536 0.2533 97.8-0.3307 183.27-1.0586 0.4752-47.11 2.5907-237.27 2.9375-270.48-3.4982-0.028-6.2307-0.041-7.5195-0.018-18.307 0.3269-362-5.0256-364.78-4.9101z" fill="#6fdb31"/><path d="m44.878 162.37c1.6346-14.384 7.0287-45.278 13.894-66.2 6.8652-20.923 29.051-55.542 41.765-64.788 12.714-9.2466 22.192-14.794 36.062-15.026 13.87-0.23117 11.558 0.23116 27.509-2.0805 15.95-2.3116 121.59-15.95 252.43-14.101 130.84 1.8493 232.09 11.558 245.96 12.945 13.87 1.387 3.2363 2.5428-2.0804 3.2363-5.3168 0.69349-19.418 8.7842-26.815 27.971-7.3972 19.187-13.87 55.711-15.719 73.51s-2.774 27.509-3.2363 33.056c-0.4623 5.5479-0.6935 6.0103-4.161 6.0103-3.4674 0-49.7-6.2414-77.209-8.5531-27.508-2.3116-131.41-10.663-196.14-9.355s-146.68 2.1889-198.92 7.7369c-52.243 5.5479-74.204 9.2466-81.37 10.634-7.1661 1.387-11.969 5.004-11.969 5.004z" fill="#7be249"/><path d="m37.869 417.99c-18.536 5.4516-25.077 1.8172-31.619-0.3635-6.542-2.1806-5.8151-8.7226-6.1785-16.355s0.72689-60.695 1.8172-71.235c1.0903-10.54 3.6344-19.626 27.258-19.626 23.624 0 18.172 19.989 18.172 26.168 0 6.1785-9.4495 81.411-9.4495 81.411z" fill="#181818"/><path d="m607.02 639.11 5.0856-312.07-574.21-5.5479-10.171 332.88s570.51 23.116 579.3-15.257z" fill="#252525"/><path d="m601.61 627.08c-14.711 7.5191-41.845 10.461-68.979 14.384s-104.29 11.442-161.82 11.442c-57.537 0-191.9-3.5961-246.17-10.134-54.268-6.5383-86.959-19.942-94.805-22.23-7.846-2.2884 7.846 33.018 7.846 33.018s43.48 39.557 54.268 41.845c10.788 2.2884 217.07 16.019 217.07 16.019l216.74-7.1921 72.575-41.191z" fill="#1c1c1c"/><path d="m533.51 689.97c-31.901 6.2414-99.4 13.408-137.31 13.639-37.911 0.2311-144.25 0-199.26-4.3922-55.017-4.3921-103.79-13.408-115.12-15.719-11.327-2.3117 7.3972 8.3219 12.021 9.0154s119.28 16.644 119.28 16.644l160.43 2.774 114.43-7.1661s47.851-8.0908 45.539-14.794z" fill="#5d5d5d"/><path d="m15.579 306.37c-0.51399 10.28-0.25699 10.151 2.1844 10.408 2.4414 0.25699 3.3409-0.77098 3.9834-7.9668 0.64248-7.1958 0.77098-7.7098 1.028-9.3802 0.257-1.6704 1.028-2.8269 6.6818-2.6984s8.7377 0 11.436 0 3.0839-9.5087-4.6259-9.6372c-7.7098-0.1285-7.9668 0-10.151 0-2.1844 0-3.5979-0.77098-3.4694-3.3409 0.12849-2.5699 0.64248-15.934 2.0559-20.174 1.4135-4.2404 5.1398-5.2683 16.191-5.0114s5.9108-4.8828-1.6704-5.9108-14.52 1.028-18.118 3.3409-4.3689 16.191-4.6258 23.9c-0.257 7.7098-0.64249 18.375-0.89948 26.47z" fill="#212121"/><path d="m54.314 156.86c-0.17739 2.6e-4 -0.37951 0.0128-0.60937 0.0332-3.6778 0.32692-5.5576 0.89861-6.8652 1.4707s-1.7164 1.798-2.125 5.8027c-0.40864 4.0047-3.3548 36.425-4.8574 52.26-1.5026 15.835-3.9306 50.741-4.2773 64.611-0.34675 13.87-1.386 39.759-1.6172 57.674s-5.0861 109.23-6.2419 129.45c-1.1558 20.227-4.2756 71.545-5.7782 96.28-1.2283 20.22-3.2372 52.011-2.7749 76.746 0.46233 24.734-0.4775 32.201-0.12305 36.154s24.512 8.9238 24.512 8.9238l80.328 14.793 57.635 6.1093c-32.636-4.6959-66.476-10.067-78.67-13.736-26.122-7.8595-55.479-42.998-61.951-52.244-6.4726-9.2466-7.3979-15.487-6.9356-28.201 0.46233-12.714 1.8488-77.44 2.7734-106.57 0.92465-29.127 6.2409-162.05 6.0098-168.75-0.23116-6.7038 1.1565-6.0103 10.172-6.4727 9.0154-0.46233 116.97-1.6179 158.81-1.3867s222.84 2.5424 253.82 2.0801c30.976-0.46232 122.06 1.386 132.23 1.6172 10.171 0.23117 8.3217 6.01 7.8594 18.262s-3.9297 120.21-3.9297 138.7c0 18.493-3.0039 96.859-3.0039 123.67s-7.6292 34.211-23.117 47.85c-15.488 13.639-31.901 22.424-66.113 38.605l-45.076 12.482-165.47 3.0976 170.55-2.1738 113.27-15.025 91.828-16.857c-11.499-3.0224-23.403-18.741-32.303-34.807s-21.846-56.752-24.389-100.21c-2.5428-43.459-1.1557-148.64-0.6934-165.28 0.4623-16.644 1.6179-51.55 4.6231-77.672 3.0051-26.122 7.8603-55.941 16.644-77.439s20.11-29.359 24.965-30.283c4.8544-0.92466 5.548-0.23066 6.4727-6.0098 0.9246-5.7791 1.0273-22.576 1.0273-26.662s-0.4914-4.2509-3.4336-4.4961c-2.9423-0.24519-30.238-1.9606-36.613-1.8789-6.3748 0.0817-10.544-2e-3 -12.424 0.0801-1.8798 0.0817-2.8599 0.40916-3.0234 2.7793-0.1635 2.3701-3.0933 90.742-5.1738 114.09s-1.8482 27.972-2.3106 33.52c-0.4623 5.5479-0.2311 6.7037-7.166 7.166-6.935 0.46233-196.49-0.92508-234.63-1.1562-38.142-0.23116-290.57-1.1557-305.83-0.69336-15.257 0.46233-15.949 1.8492-15.486-6.4726 0.46232-8.3219 6.0088-120.44 7.627-134.31 1.517-13.003 4.5203-15.533 1.8594-15.529z" fill="#73de2e"/><path d="m18.937 705.25c0.074 12.289-1.7026 17.471-1.7026 19.914s13.917 3.4793 13.917 3.4793l95.94 40.419 22.652 70.622s13.477 58.768 16.827 60.443c3.3501 1.675 8.1201 3.2206 14.486 3.1466s21.172 0.5922 25.54 0.9623c4.3676 0.3702-27.168-11.992-27.168-11.992l-40.496-115.65 37.27 21.776 167.09 7.5377 91.5-6.4908 36.223-20.519-19.682 61.977s-10.05 64.071-7.9565 65.327 0.23555 1.4918 2.6173 1.6488c2.3817 0.1571 18.085 0.4973 20.258 0.5497 2.1723 0.052-6.4385-8.48-6.4385-8.48l-0.20938-29.418 23.765-93.28 119.98-38.317 67.63 1.8845s2.2215-1.115 2.2215-7.0372 1.8507-13.473 1.7026-16.064c-0.148-2.591-11.696-0.5182-11.696-0.5182l-120.96 19.173-113.41 49.45-244.59-0.8883-65.44-37.31-94.755-31.092z" fill="#42a30f"/><path d="m18.995 704.62c-0.17753 12.96 0.53261 14.203 10.119 17.221s56.279 15.978 76.695 25.388c20.416 9.4093 54.148 27.695 62.492 33.732 8.3441 6.0362 11.185 7.634 21.127 8.6992s77.583 5.8587 125.16 6.7463c47.579 0.8877 100.48-2.663 109.89-3.9057 9.4094-1.2428 17.043-6.2137 22.192-9.2318s25.387-14.203 40.3-19.706c14.913-5.5036 43.496-16.511 63.025-21.659 19.529-5.1485 77.76-17.576 94.804-18.286 17.043-0.7102 22.192-0.5326 25.743-0.3551s4.0833-0.1775 4.2608-5.1485c0.1775-4.9711-0.1775-28.938-0.1775-33.199s-77.892 8.4318-77.892 8.4318l-198.85 26.112s-261.12-17.073-298.27-23.099c-37.159-6.0258-80.266-16.416-80.443-8.7817-0.17754 7.634-0.17754 7.9891-0.17754 17.043z" fill="#74ed33"/><path d="m17.692 728.47c0.83817 9.1912 0.90227 15.676 0.87875 18.328-0.0258 2.9116 5.0214 34.774 8.4109 37.41 3.3895 2.6363 50.968 38.414 50.968 38.414l43.938 16.696 4.1427-22.722-15.692-52.223-55.738-22.345z" fill="#b3b5b1"/><path d="m661.94 727.97c11.298 0.2511 11.298 0.5021 11.298 5.7746 0 5.2726-1.0043 160.44-1.5064 169.72s4.2682 12.554-21.341 10.545c-25.609-2.0085-90.637-5.5236-127.54-5.5236h-52.223c-10.545 0-13.056-0.7532-15.064-7.281-2.0086-6.5279-0.75322-33.895 2.0086-50.717 2.7618-16.822 8.2854-41.678 13.558-58.5 5.2725-16.822 5.2725-21.09 17.073-25.86 11.8-4.7703 41.427-15.818 73.062-23.35 31.635-7.5321 55.989-14.311 100.68-14.813z" fill="#72e12e"/><path d="m653.16 737.36c0.089 3.7282-7.7227 15.268-12.782 20.772-5.0597 5.5035-25.654 29.737-47.668 44.828-22.014 15.09-63.025 36.217-81.311 44.206-18.286 7.989-26.098 10.652-30.003 8.5216-3.9058-2.1304 7.634-25.742 11.54-31.601 3.9058-5.8586 77.938-23.967 77.938-23.967z" fill="#83f347"/><path d="m480.78 854.98c-1.4203-6.7463-1.4203-16.422 0.53261-28.494 1.9529-12.072 10.657-39.515 13.921-45.792 3.2639-6.2768 12.303-10.42 20.211-13.307s-6.5279 16.445-6.5279 16.445-25.016 71.493-28.137 71.148z" fill="#6ed131"/><path d="m639.1 737.26c19.095-1.6024 15.566-0.5022 8.5365 6.0257s-27.116 29.626-43.184 41.678c-16.069 12.051-27.618 21.341-50.717 32.639-23.099 11.298-38.916 19.082-46.197 22.094-7.2811 3.0128-17.575-3.7661-16.571-15.064 1.0043-11.298 8.0343-36.908 11.298-44.691 3.264-7.7832 3.264-8.7875 15.566-13.558s52.725-17.575 67.036-21.09c14.311-3.515 37.422-6.6237 54.232-8.0343z" fill="#b3b5b1"/><path d="m562.35 844.5c-15.268 0.5326-15.446 12.25-15.268 18.819 0.1775 6.5688 4.0833 12.96 14.203 13.138s15.623-8.5217 15.623-15.978c0-7.4565-4.6159-14.913-14.558-15.978z" fill="#84f139"/><path d="m562.36 844.5c-5.509 0.1922-9.0464 1.8444-11.318 4.1817-0.5491 2.0718-0.7027 4.3423-0.7539 6.6484-0.1775 7.989 4.9696 14.912 16.154 14.912 3.1747 0 5.834-0.3473 8.0683-1.1758 1.5829-2.6628 2.4063-5.7153 2.4063-8.5879 0-7.4565-4.6148-14.913-14.557-15.978z" fill="#5bab20"/><path d="m457.82 780.44c16.32-8.2854 18.328-7.2811 15.566 0s-10.545 32.137-14.562 54.232c-4.0172 22.094-4.5897 21.371-5.4773 41.787-0.88767 20.416 1.2428 31.246-6.9238 31.424-8.1666 0.1775-116.64-1.5979-133.86-1.9529-17.221-0.3551-95.52-1.2089-107.07-1.7111-11.549-0.5021-20.086-6.0257-25.358-9.0386-5.2725-3.0128-10.545-6.7789-14.813-21.341-4.2682-14.562-17.324-55.738-22.345-71.556-5.0214-15.818-7.5322-22.848-8.7875-26.614s-0.50214-9.5408 7.2811-5.2725c7.7832 4.2682 25.358 16.822 31.886 20.588 6.5279 3.7661 25.358 5.0214 44.44 6.7789s68.041 3.264 91.39 3.515c23.35 0.2511 85.616-1.2553 103.94-3.0128 18.328-1.7575 20.086-3.0129 26.614-7.03 6.5279-4.0172 9.5407-6.2768 18.077-10.796z" fill="#7ce73a"/><path d="m136.87 768.89c-2.2932 0-3.1401 1.7605-3.1699 3.7715 12.327 6.2345 22.741 12.055 34.525 20.354 12.605 8.8768 23.435 18.819 31.246 24.322s9.5854 4.7947 3.9043-0.5313c-3.4134-3.2-17.559-15.221-29.568-25.598-0.14585-0.076-0.31775-0.1465-0.45313-0.2246-6.5279-3.7661-24.103-16.32-31.887-20.588-1.9458-1.0671-3.4521-1.5059-4.5976-1.5059z" fill="#8af15f"/><path d="m435.35 793.81c-2.7845 1.4358-5.7829 2.3728-11.697 3.2383-16.952 14.382-17.374 15.545-22.145 20.644-5.1485 5.5036-1.0641 3.3745 6.2148-2.3066 5.1447-4.0154 17.601-14.098 27.627-21.576z" fill="#8af15f"/><path d="m381.09 859.06c7.4565 0.3551 7.4565 0.7101 7.4565 6.9238 0 6.2138-0.35507 16.333-0.35507 20.772s-1.2427 5.5036-4.0833 5.6811c-2.8406 0.1776-147.35-2.8405-155.52-3.1956s-7.4565-1.5978-7.634-7.1014c-0.17753-5.5036 0-17.043 0.17754-21.127 0.17753-4.0833 0.88767-5.3261 6.2137-5.1485 5.326 0.1775 63.735 1.5978 76.695 1.7754 12.96 0.1775 66.398 0.8876 77.05 1.4202z" fill="#84f53f"/><path d="m237.38 862.79c0-5.147 2.2596-4.8959 6.9045-4.7704 4.6448 0.1256 114.74 2.6363 119.76 2.8874 5.0214 0.251 5.2725 0.5021 5.2725 4.7703 0 4.2683-0.25107 17.198-0.50214 20.714-0.25108 3.515-1.0043 5.0214-6.9045 4.8959-5.9002-0.1255-117.75-2.5107-121.52-2.6363-3.7661-0.1255-3.0129-1.7575-3.0129-4.6448s-0.25108-16.445 0-21.216z" fill="#f4f4f4" stroke="#353535" stroke-width="1.7"/><path d="m20.56 677.31c-0.53446-0.014-1.0336 0-1.5156 0.029-0.0515 3.8926-0.0824 8.3891-0.0957 13.301 10.497 1.8106 32.512 3.0507 32.512 3.0507s87.875 15.191 98.797 18.957c10.922 3.7661 113.61 8.5351 113.61 8.5351l107.58 1.1309 58.625-3.7656 89.508-8.6622 80.092-12.303s62.517-4.0184 69.547-4.2695c2.28-0.081 4.0641-0.2054 5.4355-0.4902-0.04-4.5633-0.075-8.6456-0.086-10.705-1.1897-0.1574-2.7487-0.2285-4.8477-0.2285-53.604-0.6276-97.541 6.7787-107.96 8.2851-10.42 1.5065-71.932 10.797-98.42 13.559s-99.55 5.5234-116.25 5.5234c-16.696 0-100.93-1.1284-136.21-3.5136-35.276-2.3852-104.07-15.065-120.52-17.701-16.445-2.6362-55.989-9.6676-68.668-10.672-0.39622-0.031-0.77814-0.051-1.1484-0.061z" fill="#eaeaea"/><path d="m19.394 721.88c-2.5021 0.012-2.1518 3.0843-2.397 7.0847-0.17299 2.8223 1.4605 3.1727 6.1831 4.6619 6.3198 1.9929 52.756 18.195 69.239 25.656 16.866 7.634 15.624 10.83 19.529 22.547 3.9058 11.717 11.362 33.553 11.539 39.057 0.17754 5.5037-1.9521 14.56-16.688 8.5235-14.735-6.0362-60.363-28.939-71.902-42.432-11.54-13.493-13.491-25.032-14.557-34.441-0.61524-5.4345-1.2879-9.2328-1.8848-11.914-0.19302 1.5364-0.51844 3.3685-1.0156 5.6679-2.0086 9.2897-1.5062 24.355-0.50196 41.428 1.0043 17.073 6.7789 97.164 7.7832 103.19s1.7572 8.2863 18.83 8.0352 124.28 4.0166 133.32 4.2676c9.0386 0.2511 12.803-0.2501 6.7773-2.5098-6.0257-2.2596-11.549-5.7748-15.064-12.303s-13.558-39.67-17.826-53.73c-4.2682-14.06-16.57-50.464-18.076-57.494-1.5064-7.03-4.5548-13.93-10.545-16.572-25.051-11.052-63.489-24.593-76.074-28.621-11.029-3.5302-15.344-5.1889-20.788-7.5138-3.9746-1.6971-5.304-2.5886-5.8814-2.5858z" fill="#7fe33a"/><path d="m18.457 740.63c-0.19302 1.5364-0.51844 3.3685-1.0156 5.6679-1.0584 4.8953-1.4093 11.423-1.3672 18.975 1.3148 14.84 5.0413 22.505 14.549 29.232 13.307 9.4152 43.561 29.374 59.881 37.785 16.32 8.4109 28.37 15.316 35.4 16.697 7.03 1.3808 7.657-7.1559 5.6484-18.203-2.0086-11.047-14.184-38.666-18.703-47.453-0.32529-0.6326-0.56678-0.9504-0.73828-1.0098 3.941 11.811 11.202 33.134 11.377 38.572 0.17754 5.5037-1.9521 14.56-16.688 8.5235-14.735-6.0362-60.363-28.939-71.902-42.432-11.54-13.493-13.491-25.032-14.557-34.441-0.61524-5.4345-1.2879-9.2328-1.8848-11.914z" fill="#7ef347"/><path d="m59.119 835.3c-13.056 0.7532-11.8 12.554-11.173 19.458s6.779 13.181 13.307 12.93c6.5279-0.251 11.298-5.7746 11.298-17.073 0-11.298-6.2768-15.441-13.432-15.315z" fill="#84f139"/><path d="m59.119 835.3c-1.8233 0.1052-3.3583 0.4331-4.6641 0.9258-1.9019 2.6025-3.14 6.3896-3.2441 11.752 0.50214 11.424 6.5274 13.057 12.93 13.057 2.7102 0 5.0553-0.099 6.9219-1.041 0.94882-2.5017 1.4883-5.6122 1.4883-9.3789 0-11.298-6.2761-15.44-13.432-15.314z" fill="#5bab20"/><path d="m19.076 687.27c-0.0506 2.3755-0.0854 4.4309-0.10547 6.3555 0.0199 0.097 0.031 0.1917 0.0293 0.2871 15.409 1.6496 39.028 5.1195 60.816 9.4531 32.134 6.3912 85.926 16.156 124.27 19.352 38.348 3.1956 117.88 3.7287 158.36 3.9062 40.478 0.1776 88.945-4.6163 114.33-7.2793 25.388-2.663 109.18-15.623 130.49-17.398 21.304-1.7754 61.693-2.7522 66.842-2.9297 0.2079-0.01 0.3834-0.026 0.5664-0.041-0.034-3.2808-0.053-5.5375-0.074-7.7832-0.9366-0.051-2.3202 0.01-4.4863 0.1015-10.12 0-19.884 0.177-40.478 1.2422-20.594 1.0652-63.735 5.5035-115.04 13.848-19.347 3.1464-41.79 5.3253-63.871 7.3574-34.248 3.1518-59.174 4.7249-91.471 5.2481-31.089 0.5036-110.07-0.8883-157.65-4.084-47.579-3.1956-97.821-14.557-117.35-18.285-19.529-3.7282-43.135-8.5398-61.25-9.2324-1.9873-0.076-3.1366-0.1061-3.9277-0.1172z" fill="#979797"/><g transform="translate(-503.03 -424.14)" fill="#2c2c2c" stroke="#d2d2d2" stroke-width="2.1"><path d="m776.63 1201.4c-6.6576 5.1486-6.0362 5.5036-3.4619 6.8351 2.5743 1.3315 4.2608 2.1305 9.4094-1.9528s50.242-36.75 53.616-39.768c3.3732-3.0181 2.308-4.1721-3.0181-4.2609-5.326-0.089-5.1485 0.3551-9.8532 3.9058-4.7047 3.5507-40.744 30.625-46.692 35.241z"/><path d="m790.38 1194.4c0 4.2608 0 4.5271 3.7282 4.6159 3.7282 0.089 14.824-0.089 18.02-0.2663 3.1956-0.1775 3.1956-1.7754 3.2844-4.0833 0.0888-2.308 0.2663-17.754 0.17753-19.973-0.0888-2.2192-0.35507-3.1068-3.6395-3.1068-3.2844 0-17.132-0.3551-19.263 0.2663-2.1304 0.6213-2.308 1.3315-2.4855 4.0833-0.17754 2.7518 0.0888 14.558 0.17753 18.464z"/></g><g transform="matrix(.067544 0 0 .070496 288.96 750.69)"><path d="m159.66 35.331a118.49 118.49 0 0 0-118.49 118.49 118.49 118.49 0 0 0 118.49 118.49 118.49 118.49 0 0 0 118.49-118.49 118.49 118.49 0 0 0-118.49-118.49zm0 17.426a101.07 101.07 0 0 1 101.07 101.07 101.07 101.07 0 0 1-101.07 101.07 101.07 101.07 0 0 1-101.07-101.07 101.07 101.07 0 0 1 101.07-101.07z" fill="#6d6d6d" style="paint-order:fill markers stroke"/><path d="m159.66 0.21484a153.61 153.61 0 0 0-153.61 153.61 153.61 153.61 0 0 0 153.61 153.61 153.61 153.61 0 0 0 153.61-153.61 153.61 153.61 0 0 0-29.922-90.803l23.793-23.943-30.549-30.359-23.303 23.449a153.61 153.61 0 0 0-93.631-31.955zm0 36.076a117.54 117.54 0 0 1 117.54 117.54 117.54 117.54 0 0 1-117.54 117.54 117.54 117.54 0 0 1-117.54-117.54 117.54 117.54 0 0 1 117.54-117.54z" fill="#8b8b8b" style="paint-order:fill markers stroke"/><path d="m5.0898 113.69c-3.3206 12.825-5.0899 26.274-5.0898 40.137 8.0004e-5 13.662 1.7208 26.923 4.9492 39.58h309.43c3.2284-12.657 4.9491-25.917 4.9492-39.58 9e-5 -13.863-1.7673-27.312-5.0879-40.137z" fill="#342a76" style="paint-order:fill markers stroke"/><path d="m238.69 0c31.964 16.455 58.131 42.581 74.645 74.51v-74.51z" fill="#8c8c8c" style="paint-order:fill markers stroke"/><path d="m100.95 172.44c-7.2133-1.9275-13.867-6.8797-16.355-12.173-1.6739-3.5611-1.643-9.0129 0.0719-12.661 6.7536-14.368 32.403-17.885 45.616-6.2547 1.5476 1.3622 3.5596 3.7455 4.4711 5.2961 1.4078 2.3948 1.6574 3.504 1.6574 7.3657 0 3.8454-0.25181 4.9746-1.6334 7.3248-3.0989 5.2712-8.8956 9.3017-16.063 11.169-4.3677 1.1376-13.385 1.1039-17.765-0.0665zm12.756-5.8488c1.1131-0.75014 2.7219-2.722 3.5751-4.382 1.3295-2.5865 1.5502-3.8001 1.543-8.4864-9e-3 -5.8744-0.75754-8.1143-3.7978-11.364-6.2552-6.687-14.843-0.16477-14.947 11.352-0.0487 5.4073 1.391 9.2352 4.5452 12.085 2.9178 2.6361 5.9561 2.9025 9.0814 0.79625zm156.53 5.885c-13.825-3.7233-21.126-15.105-16.315-25.436 6.1656-13.24 29.3-17.697 42.986-8.2804 5.4732 3.7657 8.2862 8.0778 8.7732 13.449 0.82721 9.1226-6.3311 17.3-17.747 20.273-4.4073 1.148-13.422 1.1448-17.697-6e-3zm12.595-5.885c6.2078-4.1836 7.2879-17.814 1.9174-24.197-4.4391-5.2756-10.445-4.0085-13.834 2.9187-1.3611 2.782-1.6635 4.2283-1.6761 8.0172-0.0359 10.822 7.0106 17.697 13.593 13.261zm-243.51 5.4838c-0.27452-0.41675-4.2259-7.7105-8.7808-16.208l-8.2817-15.451-8.2897-0.0418-0.1864-2.5762-0.18639-2.5762h37.652v4.8494l-3.7886 0.0718c-2.0837 0.0395-4.1529 0.0222-4.5982-0.0385s-0.71804 0.29404-0.60617 0.78823c0.30162 1.3324 12.26 22.185 12.731 22.2 0.22206 7e-3 2.5164-4.0108 5.0985-8.9284 2.5821-4.9176 5.1964-9.8359 5.8095-10.93 0.6131-1.0937 1.1147-2.253 1.1147-2.5762s-1.5003-0.58773-3.334-0.58773h-3.334v-4.8494h26.065v4.8494l-8.7895 0.012-4.3902 8.3288c-2.4146 4.5808-6.2775 11.875-8.5842 16.209l-4.194 7.8802-10.314 0.16567c-7.7332 0.12421-10.439-0.0239-10.813-0.59207zm99.822-2.3558v-3.0853l8.7895 0.40673 0.16301-13.434 0.163-13.434-8.2062 0.1596-0.1864-2.5555-0.18639-2.5555h34.015l-3.3e-4 2.5762-3.2e-4 2.5762h-8.1827v26.672l5.7778-0.0334c4.7465-0.0275 6.2923-0.28246 8.6602-1.4287 3.306-1.6004 5.7193-4.7256 6.2674-8.116 0.36744-2.2731 0.40579-2.3015 2.8662-2.1216l2.4938 0.18238 0.16819 8.638 0.16818 8.638h-52.77zm69.291 2.3453c-0.26972-0.40697-4.215-7.7038-8.7673-16.215-9.1524-17.112-7.7194-15.538-14.303-15.711l-2.5762-0.0676v-4.8494h37.583v4.8494h-4.5907c-3.4724 0-4.543 0.19276-4.3948 0.79127 0.41776 1.6866 12.348 22.202 12.827 22.058 0.57291-0.17242 11.919-21.371 11.919-22.269 0-0.3188-1.5003-0.57964-3.334-0.57964h-3.3339v-4.8494h26.065v4.7963l-8.7895 0.3562-5.2002 9.6988c-2.8601 5.3343-6.762 12.631-8.671 16.215l-3.4708 6.5164h-10.236c-7.3858 0-10.373-0.20604-10.727-0.73993z" fill="#dedede" stroke-width=".60617"/></g><g transform="translate(-503.03 -424.14)" fill="#ebebeb" stroke="#414141" stroke-width="2.6"><path d="m1077.4 1138.4c13.177 0.2961 17.767-8.143 17.915-17.47 0.148-9.3275-6.9586-16.582-16.582-17.174-9.6236-0.5923-15.842 7.2547-16.286 17.174-0.4442 9.9197 6.6625 17.322 14.954 17.47z"/><path d="m553.43 1131.2c12.141 0.2961 14.065-8.8833 14.361-16.878s-4.1456-16.73-12.437-16.878c-8.2911-0.1481-12.881 5.7741-13.325 15.694s3.4053 17.767 11.4 18.063z"/></g><path d="m506.5 791.45c3.4548-0.1047 4.1877 1.7797 4.1877 4.397s-2.0938 3.2454-4.1877 3.2454c-2.0938 0-3.9782-1.675-3.9782-3.7688 0-2.0939 1.0469-3.7689 3.9782-3.8736z" fill="#e9e9e9"/><path d="m503.54 805.22c3.4548-0.1047 4.1877 1.7797 4.1877 4.397s-2.0938 3.2454-4.1877 3.2454c-2.0938 0-3.9782-1.675-3.9782-3.7688 0-2.0939 1.0469-3.7689 3.9782-3.8736z" fill="#e9e9e9"/><path d="m506.36 817.51c3.4548-0.1047 4.1877 1.7797 4.1877 4.397s-2.0938 3.2454-4.1877 3.2454c-2.0938 0-3.9782-1.675-3.9782-3.7688 0-2.0939 1.0469-3.7689 3.9782-3.8736z" fill="#e9e9e9"/><path d="m517.9 820.32c3.4548-0.1047 4.1877 1.7797 4.1877 4.397s-2.0938 3.2454-4.1877 3.2454c-2.0938 0-3.9782-1.675-3.9782-3.7688 0-2.0939 1.0469-3.7689 3.9782-3.8736z" fill="#e9e9e9"/><path d="m529.45 816.77c3.4548-0.1047 4.1877 1.7797 4.1877 4.397s-2.0938 3.2454-4.1877 3.2454c-2.0938 0-3.9782-1.675-3.9782-3.7688 0-2.0939 1.0469-3.7689 3.9782-3.8736z" fill="#e9e9e9"/><path d="m549.05 792.45c-0.148 11.548-9.6236 15.99-17.619 15.398s-15.546-6.5144-14.954-17.47 7.847-17.767 16.434-17.767 16.878 6.2183 16.138 19.839z" fill="#979797"/><path d="m538.72 774.31c-7.688 0.1725-13.904 4.4849-13.74 14.49 0.1636 10.005 5.2349 16.388 13.25 15.871 3.2912-0.2125 6.102-1.5124 8.2969-3.4473 1.524-2.2786 2.4735-5.1816 2.5195-8.7715 0.512-9.4194-3.2979-15.292-8.5351-18.023-0.5704-0.067-1.1651-0.109-1.791-0.1191z" fill="#e4a62b"/><path d="m591.24 776.84c-0.1534 11.597-9.9727 16.057-18.258 15.462-8.285-0.5946-16.11-6.5417-15.496-17.544 0.6137-11.002 8.1317-17.841 17.03-17.841s17.491 6.2444 16.723 19.923z" fill="#979797"/><path d="m580.54 758.62c-7.9668 0.1732-14.408 4.5037-14.239 14.551 0.1696 10.047 5.4248 16.457 13.731 15.938 3.4106-0.2134 6.3233-1.5187 8.5978-3.4618 1.5793-2.2881 2.5633-5.2033 2.6109-8.8083 0.5306-9.4589-3.4175-15.357-8.8447-18.099-0.5911-0.067-1.2073-0.1094-1.856-0.1196z" fill="#ececec"/><path d="m106.69 792.5c4.8158-0.1047 5.2346-1.9891 5.3392-4.2923s-2.1985-4.083-4.8158-4.083-3.9783 2.3032-4.083 4.5017 1.361 3.9783 3.5595 3.8736z" fill="#e9e9e9"/><path d="m80.202 799.72c15.915 0.223 17.274-14.238 17.274-19.577 0-5.3393-3.8736-15.18-13.819-15.494s-15.39 10.783-15.704 18.74c-0.31408 7.9565 5.7586 16.241 12.249 16.332z" fill="#979797"/><path d="m89.029 765.95c-9.958 2.4846-15.585 9.5108-14.689 19.537 0.75524 8.4586 9.6732 10.965 16.947 10.848 5.5471-4.5617 6.1894-12.523 6.1894-16.188 0-4.241-2.4579-11.306-8.4473-14.197z" fill="#e4a62b"/><path d="m110.39 806.14c4.8158-0.1047 5.2346-1.9891 5.3392-4.2923s-2.1985-4.083-4.8158-4.083-3.9783 2.3032-4.083 4.5017 1.361 3.9783 3.5595 3.8736z" fill="#e9e9e9"/><path d="m109.46 818.74c4.8158-0.1047 5.2346-1.9891 5.3392-4.2923s-2.1985-4.083-4.8158-4.083-3.9783 2.3032-4.083 4.5017 1.361 3.9783 3.5595 3.8736z" fill="#e9e9e9"/><path d="m98.482 820.59c4.8158-0.1047 5.2346-1.9891 5.3392-4.2923s-2.1985-4.083-4.8158-4.083c-2.6173 0-3.9783 2.3032-4.083 4.5017s1.361 3.9783 3.5595 3.8736z" fill="#e9e9e9"/><path d="m87.386 816.77c4.8158-0.1047 5.2346-1.9891 5.3392-4.2923s-2.1985-4.083-4.8158-4.083-3.9783 2.3032-4.083 4.5017 1.361 3.9783 3.5595 3.8736z" fill="#e9e9e9"/><path d="m44.598 785.16c14.113 0.2142 15.032-13.675 14.927-18.803-0.10555-5.1282-3.734-14.58-12.557-14.882s-13.43 10.357-13.551 17.999c-0.12115 7.6419 5.4262 15.599 11.182 15.686z" fill="#979797"/><path d="m51.756 752.72c-8.7788 2.3863-13.628 9.1347-12.636 18.765 0.83675 8.1242 8.7921 10.531 15.238 10.419 4.8274-4.3813 5.2395-12.028 5.167-15.547-0.0838-4.0734-2.4024-10.859-7.7693-13.636z" fill="#ececec"/><path d="m585.92 605.5c0 10.134-1.9615 11.115-9.1536 13.404-7.1922 2.2884-64.075 10.461-106.9 14.057-42.826 3.5961-125.21 4.5768-179.48 3.923-54.268-0.6539-147.44-7.5191-182.09-14.384-34.653-6.8652-39.557-7.5191-50.018-9.8075-10.461-2.2884-9.8075-2.9422-9.8075-11.442s1.6346-107.88 2.6153-137.3c0.98075-29.422 4.5768-91.209 4.9037-102.65 0.32691-11.442 2.6153-13.73 9.4805-13.404 6.8652 0.32691 206.94 1.9615 240.61 2.2884 33.672 0.32691 266.11 3.923 276.9 4.2499 10.788 0.32692 11.115 1.6346 10.788 8.1729-0.327 6.5383-1.6346 63.095-2.6154 86.96-0.9807 23.865-4.5768 136.65-5.2306 155.94z" fill="#666"/><path d="m545.06 290.03c8.4998 0.32691 8.1729-0.32692 8.8267-5.8845 0.6538-5.5576 5.8845-77.479 6.2114-89.575 0.3269-12.096 0.3269-17-9.4805-17.98-9.8075-0.98075-158.88-2.6153-198.44-2.2884-39.557 0.32692-209.88 2.2884-225.24 2.9422-15.365 0.65383-21.249 5.2306-23.865 15.038-2.6153 9.8075-8.1729 68.325-8.4998 80.748-0.32692 12.423-0.65383 15.365 6.8652 15.365 7.519 0 189.28 0.32692 225.57 1e-5 36.288-0.32692 192.88 1.3076 218.05 1.6346z" fill="#2d2d2d"/><path d="m223.7 181.6c-25.499 0-90.554 1.002-98.4 1.002-7.846 0-9.8086 1.6706-9.8086 7.0163 0 5.3457 0.32738 59.472 0.65429 67.157 0.32692 7.6845 1.6352 9.3557 4.9043 9.3557 3.2692 0 407.01 1.6695 424.66 1.3354 3.7172 0 6.8545-0.13179 9.5489-0.37927 1.7778-24.045 4.5978-65.124 4.8359-74.127 0.1057-3.9976 0.17-7.2156-0.1133-9.7888-27.47-0.59939-85.219-0.90223-108.75-0.90223-24.846 0-202.03-0.66869-227.53-0.66869z" fill="#363636"/><path d="m59.753 203.4c4.0864 0.16345 4.7403 0 5.0672-4.2499 0.32692-4.2499 1.4711-27.624 1.4711-31.874s-0.98075-4.5768-4.2499-4.5768-4.0864 0.98074-4.5768 4.0864c-0.49038 3.1057-1.6346 25.009-1.798 29.749-0.16345 4.7403 0.49038 6.5383 4.0864 6.8652z" fill="#d7d7d7"/><path d="m604.56 204.54c5.0672 0.16346 4.7402-1.4711 5.0672-5.5576 0.3269-4.0864 1.798-29.913 1.9614-32.855 0.1635-2.9422-0.9807-4.2499-4.2499-4.2499-3.2691 0-4.2498 1.3077-4.5768 4.7403-0.3269 3.4326-1.798 28.442-1.798 32.692 0 4.2499 0.6538 5.0672 3.5961 5.2306z" fill="#d7d7d7"/><g transform="translate(-503.03 -424.14)" fill="#292929"><path d="m1392.5 844.57c0.9246-18.493 0.4623-20.342 10.634-20.342s124.37 5.0856 133.15 6.0103c8.7842 0.92466 10.634 3.6986 10.634 14.332 0 10.634 0 159.97-0.4623 170.14-0.4623 10.171-1.8493 13.87-9.2466 14.332-7.3972 0.4624-118.82-3.6986-128.99-4.1609-10.171-0.4624-12.945-2.774-13.408-12.483s-1.8493-149.79-2.3116-167.83z"/><path d="m1562.2 1015.6c0.9247 12.02 3.2363 13.408 14.794 13.87 11.558 0.4623 109.11 3.2363 122.52 2.7739 13.408-0.4623 13.408-4.1609 13.87-14.332 0.4623-10.171-6.0103-268.61-6.0103-278.78 0-10.171 0.4624-15.257-14.794-16.644-15.257-1.387-113.27-7.8596-123.44-7.3972s-11.096 6.0103-11.558 13.87c-0.4624 7.8596 4.1609 266.76 4.6232 286.64z"/><path d="m1896 1022.1c0.4624 10.634 0.9247 13.87 9.2466 14.794s85.531 2.774 91.079 3.2363c5.548 0.4623 4.6233-4.6233 5.548-13.87 0.9246-9.2466-2.774-267.69-2.774-276.01 0-8.3219-1.387-11.558-11.558-12.483-10.171-0.92466-76.746-4.6233-85.068-4.6233s-10.634 0.92465-11.096 9.7089c-0.4624 8.7842 4.1609 264.45 4.6232 279.25z"/><path d="m2013.4 752.1c0-11.096 2.774-12.021 9.7089-12.021s105.41 6.4726 115.12 7.3972c9.7089 0.92465 12.02 3.2363 12.945 11.558 0.9247 8.3219 0.4623 206.2 0.9247 214.52 0.4623 8.3219-2.3117 10.634-8.7843 11.096s-104.02-1.8493-111.42-2.3116c-7.3973-0.4624-12.021-2.3117-12.483-12.945-0.4623-10.634-5.0856-116.51-5.5479-141.93s-0.9247-61.952-0.4624-75.359z"/><path d="m2164.6 761.35c0-11.558 1.387-13.87 10.171-13.408 8.7843 0.46233 104.02 6.0103 113.73 6.9349 9.7089 0.92466 9.7089 4.161 10.171 13.408s2.3117 190.02 2.3117 202.04c0 12.021-4.161 17.106-13.87 17.568-9.7089 0.46232-102.17-2.3116-111.88-2.3116s-10.634-3.2363-11.096-13.87c-0.4623-10.634 0-191.4 0.4623-210.36z"/></g><path d="m655.23 351.49c-5.8844 0-6.2115 9.1534-6.8653 21.576-0.6538 12.423-2.6145 56.884-2.9414 70.941-0.3269 14.057-1.634 125.86-1.9609 136.98s-1.3075 19.289 1.6348 29.75c2.9422 10.461 6.8652 20.596 13.73 30.076 6.8652 9.4805 7.5176 6.2099 7.5176-1.9629 0-8.1729-2.2883-271.34-2.6152-278.53-0.3269-7.1921-0.9809-8.4993-8.5-8.8262zm-14.193 50.643c-2.0649-0.3129-10.324 12.451-10.324 12.451-0.3269 24.519-1.9617 87.614-1.6348 109.52 0.3269 21.903 1.6338 32.364 2.9414 41.518 1.3077 9.1537 5.5591 10.461 6.2129 0 0.6539-10.461 1.3079-64.402 1.6348-77.478s1.6347-79.767 1.6347-84.998c0-0.6539-0.1698-0.9651-0.4648-1.0098z" fill="#353535"/><path d="m692.74 327.03c-7.5767 0-7.1308 1.3988-7.1308 13.521 0.8913 12.123 4.457 454.13 4.457 467.65s4.9021 14.453 12.033 14.453 27.186-6e-4 32.98-0.4668c5.794-0.4663 8.914-5.1282 8.914-16.318 0-11.19 3.565-438.28 3.1192-457.86-0.4456-19.583-3.119-19.116-12.478-20.049-9.3594-0.93252-34.318-0.93164-41.895-0.93164zm86.728 4.168c-7.8596 0-7.3964 1.3857-7.3964 13.406 0.9246 12.021 4.623 450.31 4.623 463.71s5.0852 14.334 12.482 14.334c7.3973 0 28.203-6e-4 34.213-0.4629 6.0102-0.4624 9.2461-5.0857 9.2461-16.182s3.6987-434.59 3.2363-454.01c-0.4623-19.418-3.2364-18.956-12.945-19.881-9.7088-0.92466-35.599-0.92383-43.459-0.92383z" fill="#313131"/><path d="m1249.6 386.46c-1.4312-0.01-2.7032 0.01-3.7539 0.049-8.4053 0.3269-9.9336 2.9418-9.9336 12.094s2.2918 408.24 2.6739 419.36c0.382 11.113 5.349 12.747 12.99 13.074 7.6411 0.3269 22.16 0.9792 29.801 0.6524 7.6412-0.3269 9.9344-0.9807 10.316-11.113 1.1463-13.074-1.5282-406.61-1.9102-417.39-0.382-10.786-2.2918-14.382-7.6406-15.035-4.6803-0.572-22.524-1.6434-32.543-1.6836zm72.574 0.9805c-1.4313-0.01-2.7013 0.01-3.752 0.049-8.4053 0.3269-9.9336 2.9418-9.9336 12.094 0 9.1519 2.2917 408.24 2.6738 419.36 0.382 11.113 5.3491 12.747 12.99 13.074 7.6411 0.3269 22.16 0.9791 29.801 0.6523 7.6412-0.3269 9.9324-0.9806 10.314-11.113 1.1463-13.074-1.5281-406.61-1.9101-417.39-0.382-10.786-2.2919-14.381-7.6407-15.035-4.6803-0.572-22.524-1.6434-32.543-1.6836z" fill="#313131"/><path d="m892.97 373.27c0 7.3972 1.1559 7.6284 6.0103 8.0908 4.8544 0.4623 43.921 1.1558 47.62 1.387 3.6986 0.2311 3.9298-1.1559 4.1609-6.0103 0.2312-4.8544-1.3869-83.45-1.3869-88.998 0-5.5479-0.4624-8.3219-5.548-8.7842s-41.147-2.774-45.539-2.774-7.3972 0.69349-7.3972 6.4726 1.8493 82.988 2.0804 90.616z" fill="#2e2e2e"/><path d="m965.55 375.58c0 7.3972 1.387 8.0907 7.6284 8.3219 6.2415 0.2311 49.469 3.0051 52.243 3.0051s3.0051-2.0805 3.2363-6.9349c0.2312-4.8544-1.387-82.294-1.387-88.305s-1.8493-6.7038-7.8596-7.3972c-6.0102-0.69349-43.459-2.5428-48.776-2.5428-5.3167 0-6.9349 0.92465-6.9349 7.3972 0 6.4726 1.1558 78.365 1.8493 86.455z" fill="#2e2e2e"/><g transform="matrix(.19283 .0022566 0 .44965 1031.5 647.79)"><path d="m247.93 121.45c-8.7287-2.7931-26.45-11.604-35.65-17.726-10.016-6.6646-24.914-20.574-29.216-27.278-19.964-31.111-7.7491-65.148 23.362-65.098 9.5812 0.01542 17.804 4.7924 23.836 13.847l1.5702 2.3569 1.5985-3.0911c2.2318-4.3158 7.8428-9.7028 12.84-12.327 6.0442-3.1745 19.152-3.1643 26.168 0.02038 10.864 4.9308 16.558 12.347 18.551 24.161 2.2551 13.37-1.6408 25.556-12.857 40.217-4.2015 5.4919-10.442 13.642-13.869 18.112-7.117 9.2842-9.2702 14.597-9.2702 22.872 0 3.202-0.33751 5.7977-0.75 5.7681-0.4125-0.0296-3.2544-0.85516-6.3153-1.8346z" fill="#e60813"/><path d="m345 137.34c0-0.55 1.485-1 3.3-1 3.4991 0 5.7-1.4759 5.7-3.8224 0-1.1269-0.30019-1.1733-1.445-0.22324-0.79472 0.65956-2.4822 1.0522-3.75 0.87244-2.0046-0.28416-2.2943-0.87366-2.2228-4.5222 0.0452-2.3075 0.65297-4.8831 1.3505-5.7235 1.6274-1.9609 7.8817-3.1665 9.2627-1.7855 1.4604 1.4604-0.65497 12.95-2.8259 15.349-1.7948 1.9832-9.3696 2.6752-9.3696 0.85591zm8.7368-7.25c0.53995-0.6875 1.2588-2.7125 1.5974-4.5 0.66503-3.5103-0.66205-4.2153-4.285-2.2764-1.9288 1.0323-3.5108 5.4706-2.5209 7.0724 0.84151 1.3616 4.0498 1.1793 5.2084-0.29599zm114.26 7.3075c0-0.51838 1.9086-1.0809 4.2414-1.25 2.9512-0.21396 4.3346-0.79979 4.548-1.9258 0.24181-1.2764-0.49583-1.5933-3.4914-1.5-3.7972 0.1183-3.7979 0.11749-3.6662-3.8316 0.20124-6.031 6.6489-10.567 11.046-7.7706 1.656 1.0533-1.1556 14.296-3.3907 15.971-1.9412 1.454-9.2866 1.6972-9.2866 0.3075zm8.8716-7.4028c0.61408-0.73992 1.4004-2.7649 1.7474-4.5 0.54406-2.7203 0.34816-3.1547-1.4226-3.1547-2.9227 0-5.1964 2.6566-5.1964 6.0714 0 2.1982 0.46823 2.9286 1.8776 2.9286 1.0326 0 2.38-0.60539 2.9941-1.3453zm-198.85 1.5953c0.0215-1.538 0.69922-5.0585 2.5027-13 0.28103-1.2375 1.16-2.25 1.9534-2.25 1.348 0 1.8391 1.2633 4.2626 10.964l0.86539 3.464 4.4458-7.2054c2.5202-4.0845 5.1417-7.2091 6.0525-7.214 1.4734-8e-3 1.4711 0.67003-0.0276 8.1673-0.89888 4.4967-2.1418 8.345-2.7621 8.5518-1.0975 0.36583-1.021-0.29566 1.2413-10.728 0.33635-1.5511-1.2089 0.0858-4.071 4.3124-2.5372 3.7468-5.1325 6.6392-5.7674 6.4276-0.63482-0.2116-1.8757-3.2772-2.7575-6.8124l-1.6033-6.4276-1.2928 6.75c-0.71106 3.7125-1.6919 6.75-2.1796 6.75s-0.87577-0.7875-0.86232-1.75zm23.221 0.59572c-2.783-2.783 8e-3 -10.191 4.2399-11.253 5.5468-1.3922 8.4499 3.0263 5.6594 8.6134-1.3265 2.6559-2.3235 3.3509-5.1493 3.5893-1.9274 0.16264-4.0649-0.26486-4.75-0.95zm7.7819-2.8973c1.8077-3.3778 0.84864-6.4484-2.0141-6.4484-2.7166 0-5.6316 4.4468-4.6285 7.0607 0.83844 2.185 5.3691 1.7673 6.6427-0.61232zm6.5524-0.19842c-0.37159-2.3375-0.92789-5.2625-1.2362-6.5-0.39608-1.5897-0.11613-2.25 0.95397-2.25 1.066 0 1.7254 1.5331 2.2265 5.1765l0.71196 5.1766 2.3327-3.9266c3.9735-6.6885 4.1765-6.9456 4.9218-6.2352 1.0065 0.95939-6.3345 12.809-7.9353 12.809-0.75651 0-1.5822-1.7764-1.9754-4.25zm10.42 2.7992c0-3.214 2.2249-11.549 3.0829-11.549 1.1942 0 1.157 1.783-0.16572 7.9508-0.99501 4.6395-2.9171 7.0106-2.9171 3.5984zm5.4852-0.79922c0.28783-1.2375 0.87218-4.0169 1.2985-6.1765 0.42636-2.1596 1.3961-4.1335 2.1551-4.3864 0.95986-0.31995 1.179 0.0636 0.71983 1.2601-0.36302 0.94601-0.32222 1.5555 0.0907 1.3544 0.41287-0.2011 2.0004-0.9915 3.5278-1.7564 4.0591-2.0328 5.1274-0.43874 4.2756 6.3796-0.49615 3.9711-1.1269 5.5754-2.192 5.5754-0.94526 0-1.3142-0.64383-1.0027-1.75 2.1246-7.5456 1.6225-9.9472-1.8047-8.6321-1.9616 0.75275-4.5533 5.4954-4.5533 8.3324 0 1.1667-0.6544 2.0497-1.519 2.0497-1.0637 0-1.3622-0.67445-0.99571-2.25zm32.515 1.8664c0-1.6659 10.42-16.616 11.581-16.616 0.75948 0 1.6596 1.2375 2.0002 2.75 1.0462 4.6456 2.5116 10.66 3.0457 12.5 0.32324 1.1138-0.0367 1.75-0.98997 1.75-0.82381 0-1.6416-1.0125-1.8174-2.25-0.2288-1.611-1.1005-2.3399-3.0696-2.5664-3.4467-0.39659-3.6357-2.1836-0.23095-2.1836 2.2385 0 2.4469-0.30625 1.8709-2.75-1.1068-4.6959-1.8147-4.4037-5.9261 2.4466-3.3842 5.6386-6.4639 8.9356-6.4639 6.9198zm19.024-1.3664c0.0215-1.538 0.69922-5.0585 2.5027-13 0.8645-3.8068 2.7725-2.6609 2.0432 1.227l-0.65229 3.477 3.0067-1.7256c2.7268-1.565 3.1522-1.5801 4.5702-0.16215 1.3224 1.3223 1.392 2.363 0.45143 6.7486-1.4378 6.7042-3.3746 6.9347-2.4611 0.29299 0.45115-3.2803 0.29293-5.127-0.48019-5.6048-1.7702-1.094-5.7377 3.2587-6.4549 7.0816-0.66022 3.5193-2.5691 4.7779-2.5256 1.6653zm14.949 0.21827c-2.0915-2.5202 0.34276-8.9425 3.957-10.44 3.9528-1.6373 7.0694-0.53361 7.0694 2.5035 0 2.69-2.5603 4.4678-6.4343 4.4678-1.614 0-2.5657 0.55642-2.5657 1.5 0 1.5657 0.91749 1.8533 4.8624 1.5244 1.4802-0.12342 2.1116 0.20866 1.691 0.88931-1.0052 1.6264-7.1238 1.3088-8.5797-0.44544zm8.5802-6.5554c1.0167-1.645-1.089-3.1952-3.3608-2.4741-1.1046 0.35057-2.2607 1.2953-2.5693 2.0993-0.41296 1.0762 0.2068 1.4619 2.3486 1.4619 1.6003 0 3.2119-0.48921 3.5815-1.0871zm4.0915 7.3992c-1.0083-1.0083-0.75914-4.9683 0.48433-7.6974 0.62135-1.3637 2.4126-3.0108 3.9806-3.6603 3.4147-1.4144 8.3019-0.47092 7.5611 1.4597-0.28077 0.73166-0.8141 3.355-1.1852 5.8296l-0.67471 4.4993-4.7603 0.10725c-2.6182 0.059-5.0508-0.18318-5.4057-0.53814zm7.2262-2.6574c0.61408-0.73992 1.4004-2.7649 1.7474-4.5 0.54406-2.7203 0.34816-3.1547-1.4226-3.1547-2.9227 0-5.1964 2.6566-5.1964 6.0714 0 2.1982 0.46823 2.9286 1.8776 2.9286 1.0326 0 2.38-0.60539 2.9941-1.3453zm6.795 2.6786c-1.2224-1.2224-0.68661-6.8598 0.86207-9.0709 0.84571-1.2074 3.1373-2.4844 5.1291-2.858 2.3083-0.43305 3.7753-1.3445 4.0879-2.5399 0.61677-2.3586 2.2659-2.4436 2.2192-0.1145-0.0555 2.7625-2.6683 14.287-3.4066 15.025-0.36689 0.36689-1.0364 0.0696-1.4877-0.66073-0.57443-0.92945-1.0258-0.99576-1.5046-0.22104-0.746 1.207-4.8278 1.5116-5.8993 0.44009zm8.1904-5.6058c1.6627-4.3818 1.2115-5.2126-2.3458-4.3197-4.6815 1.175-5.9053 9.0768-1.3029 8.4123 1.509-0.21788 2.6745-1.5251 3.6487-4.0926zm14.616 4.0224c3.1359-13.809 3.1404-13.524-0.22286-14.034-1.5125-0.22912 0.4-0.43077 4.25-0.4481 4.4394-0.02 5.9026 0.20314 4 0.60998-2.852 0.60984-3.0702 1.0234-4.4231 8.3817-0.94042 5.1149-1.8796 7.7402-2.769 7.7402-0.88053 0-1.1693-0.77803-0.83499-2.25zm8.5381 0.27052c-1.4639-2.7353-0.27257-6.6696 2.7363-9.0363 6.5288-5.1356 12.411 1.7307 7.1802 8.381-2.6219 3.3332-8.2831 3.7074-9.9164 0.65538zm8.8029-4.8909c0.3875-3.8807-2.0124-5.165-4.8511-2.5959-2.1867 1.9789-2.651 7.0408-0.71275 7.7697 2.2545 0.8478 5.2398-1.9282 5.5639-5.1738zm18.9 6.2508c-1.3587-1.3587-0.70633-7.1676 1.0363-9.227 3.687-4.3573 11.333-3.1413 9.8394 1.5648-0.66436 2.0932-3.2472 3.2433-7.3394 3.2681-2.6592 0.0161-2.9498 1.5226-0.55263 2.8642 1.0374 0.58052 2.6262 0.59676 4.086 0.0418 1.7767-0.67551 2.2826-0.58591 1.9749 0.34979-0.44931 1.3662-7.8813 2.3016-9.0445 1.1383zm8.2765-7.8686c1.0053-1.2114 0.90984-1.613-0.51348-2.1591-1.8845-0.72317-4.6144 0.56039-5.2505 2.4688-0.57497 1.7249 4.2925 1.4634 5.764-0.30961zm4.0098 7.3201c0-3.4321 2.3328-13.832 3.1026-13.832 0.49354 0 0.89735 0.45 0.89735 1s0.675 1 1.5 1 1.5 0.45 1.5 1-0.66643 1-1.481 1c-1.3709 0-1.9184 1.2864-2.7665 6.5-0.17894 1.1 0.36604 2.5482 1.2111 3.2182 1.3061 1.0356 1.1242 1.223-1.2136 1.25-1.5125 0.0175-2.75-0.49384-2.75-1.1363zm7.6941-2.0819c1.9333-9.7556 2.9355-13.127 4.009-13.484 0.8439-0.2813 1.0219 0.65424 0.60877 3.1999l-0.58378 3.5975 3.0926-1.7749c4.4165-2.5347 5.6204-0.97352 4.732 6.1365-0.50517 4.0432-1.1184 5.5754-2.2316 5.5754-0.91972 0-1.3152-0.5728-0.98667-1.429 1.4042-3.6594 1.776-8.3848 0.71145-9.0427-2.2079-1.3646-5.999 2.3265-6.6646 6.4888-0.37701 2.3577-1.1866 3.9829-1.9841 3.9829-0.98535 0-1.1742-0.8729-0.70313-3.25zm14.816 1.2809c-0.8309-2.618 0.21735-7.5596 1.8998-8.9559 2.3673-1.9647 7.108-2.3612 8.479-0.70923 2.7391 3.3004-0.55312 6.5836-6.6386 6.6205-2.6592 0.0161-2.9498 1.5226-0.55263 2.8642 1.0374 0.58052 2.6262 0.59676 4.086 0.0418 1.7767-0.67551 2.2826-0.58591 1.9749 0.34979-0.22754 0.69187-2.2533 1.3945-4.5016 1.5613-3.4051 0.2527-4.198-0.0434-4.7468-1.7725zm8.4804-6.5191c1.0053-1.2114 0.90984-1.613-0.51348-2.1591-1.8845-0.72317-4.6144 0.56039-5.2505 2.4688-0.57497 1.7249 4.2925 1.4634 5.764-0.30961zm4.0098 7.0374c0-3.214 2.2249-11.549 3.0829-11.549 0.50443 0 0.91714 0.68537 0.91714 1.523 0 1.3334 0.3113 1.3191 2.5-0.11501 1.375-0.90093 2.5-1.2085 2.5-0.68356 0 0.52497-1.1149 1.4625-2.4776 2.0834-1.7615 0.80259-2.8075 2.4387-3.6187 5.6605-1.0794 4.2868-2.9036 6.2224-2.9036 3.0808zm-202-14.549c0-0.55 0.45-1 1-1s1 0.45 1 1-0.45 1-1 1-1-0.45-1-1zm-303.75-13.545c-7.9981-2.1537-12.526-4.8551-17.603-10.502-4.6616-5.1848-7.6473-12.265-7.6473-18.134v-2.8185h19.845l1.204 3.75c2.3718 7.3873 8.5642 11.271 19.189 12.033 12.76 0.91595 20.763-3.5832 20.763-11.673 0-7.1664-6.211-10.757-28.647-16.559-15.976-4.1315-21.136-6.4015-25.282-11.124-6.0551-6.8964-7.8979-22.931-3.6127-31.436 2.9747-5.9036 9.5021-11.833 15.51-14.088 11.717-4.3992 31.342-4.2098 41.354 0.39907 9.0488 4.1657 15.712 13.068 17.198 22.978l0.70765 4.719h-7.891c-8.7038 0-11.318-1.1311-13.827-5.9819-2.1437-4.1454-6.5885-6.9158-12.996-8.1003-11.511-2.1278-20.854 2.2459-22.174 10.38-0.49999 3.0811-0.15134 4.0441 2.3806 6.5761 2.9507 2.9507 6.923 4.3903 27.78 10.068 22.934 6.2429 29.823 12.831 29.869 28.558 0.04913 17.101-8.8182 27.736-26.168 31.385-7.2417 1.5231-23.566 1.2885-29.95-0.43055zm91.749-4e-3c-16.211-4.4959-27.619-17.653-31.605-36.451-1.899-8.9564-1.3739-26.83 1.0075-34.297 5.1659-16.196 16.598-27.665 31.607-31.706 2.4616-0.66285 8.9791-1.1828 14.483-1.1554 16.648 0.08287 28.351 4.9577 36.426 15.174 2.2448 2.8399 4.0815 5.5611 4.0815 6.047s-0.8695 2.808-1.9322 5.1602c-1.0627 2.3522-2.1736 5.0643-2.4686 6.0268-0.37273 1.216-1.5377 1.7362-3.8178 1.7049-4.951-0.06805-8.2394-1.9817-11.951-6.9549-4.8477-6.4949-10.395-9-19.928-9-14.307 0-22.973 7.2226-26.32 21.937-3.5093 15.429-0.65912 30.862 7.2775 39.405 3.9643 4.2671 9.8581 6.8661 16.841 7.4266 11.813 0.94824 20.465-3.634 24.918-13.197 1.2987-2.789 2.3656-5.5755 2.371-6.1924 6e-3 -0.69432-2.9423-1.2948-7.7402-1.5766-4.2625-0.25027-8.7626-1.0914-10-1.8692-3.13-1.967-5.4257-7.2804-5.0586-11.708l0.30887-3.7248 31.205-0.54929 1.6038 7.996c0.88208 4.3978 3.1984 11.447 5.1473 15.665 3.4277 7.4187 3.5435 8.0571 3.5435 19.529v11.859h-3.953c-2.1741 0-5.0774-0.51235-6.4518-1.1386-2.3096-1.0523-5.5952-6.1979-5.5952-8.7626 0-1.8022-0.89743-1.2853-4.099 2.361-1.6708 1.903-5.5889 4.708-8.7069 6.2335-4.8731 2.3842-7.0748 2.8093-15.682 3.0279-6.6295 0.16838-11.871-0.26102-15.513-1.2709zm282.23 0.057c-7.2326-2.0267-10.671-3.9487-15.242-8.5192-9.3138-9.3138-10.212-14.325-9.8096-54.717l0.32124-32.229 2.7535-2.7522c2.4134-2.4123 3.6721-2.7986 10.192-3.1278l7.439-0.37565 0.30758 36.356c0.28793 34.035 0.43527 36.608 2.3076 40.292 3.4213 6.7323 6.2297 8.0645 17 8.0645 10.492 0 13.246-1.2319 17-7.6045 1.8855-3.2011 2.0175-5.4993 2.3064-40.145l0.30642-36.75h20.887v34.864c0 35.835-0.54158 42.492-4.0455 49.731-2.9816 6.1592-10.517 13.087-16.938 15.572-7.2534 2.8072-26.858 3.5633-34.786 1.3415zm84.794-0.0478c-13.943-3.9071-22.849-13.609-24.667-26.869l-0.62922-4.5906h10.167c8.8193 0 10.236 0.23201 10.685 1.75 2.6595 8.9933 8.5753 13.242 19.529 14.026 12.013 0.85951 20.088-2.9772 21.159-10.053 1.1879-7.8498-5.9011-12.362-28.605-18.208-13.577-3.496-20.324-6.1308-24.021-9.3815-3.3271-2.9249-6.7054-11.008-7.3109-17.492-0.89905-9.6277 1.523-16.626 7.9936-23.097 6.0478-6.0478 11.445-8.2743 22.998-9.487 16.901-1.7741 32.007 2.5188 38.729 11.006 3.6647 4.6271 6.9492 12.637 6.9492 16.947v2.9893h-8.0454c-8.7433 0-8.8014-0.0314-14.885-8.0496-3.3094-4.3615-8.222-6.2255-16.569-6.287-10.883-0.0802-16.5 3.8708-16.5 11.607 0 2.8321 0.67306 4.449 2.5924 6.2278 2.8599 2.6505 5.6082 3.63 25.408 9.0557 15.732 4.311 21.49 6.9626 25.813 11.886 9.3257 10.621 7.284 31.329-4.045 41.026-6.8676 5.8784-13.337 7.7469-28.268 8.1644-9.5713 0.2676-14.444-0.0412-18.476-1.1709zm-197.02-13.631 2e-3 -13.329 4.4137-8.7883c9.045-18.01 8.6553-36.14-1.0739-49.964-3.8963-5.5362-3.983-6.1884-1.3887-10.443 3.0626-5.0228 6.5176-5.5594 32.592-5.0622 17.975 0.34275 24.094 0.80698 28.216 2.1406 12.592 4.0736 19.074 15.949 16.149 29.586-0.92431 4.3099-2.0994 6.3124-5.9834 10.196l-4.8332 4.8332 2.7768 1.436c11.133 5.7569 15.14 21.366 9.0933 35.421-2.77 6.439-8.0204 11.234-15.586 14.235-5.5963 2.2198-7.2962 2.3504-35.131 2.7l-29.25 0.36735 2e-3 -13.329zm55.662-7.2543c3.9806-2.397 5.3352-5.3439 5.3352-11.607 0-3.999-0.53407-5.5349-2.8105-8.0826-2.4865-2.7828-3.6106-3.217-9.75-3.7658-3.8167-0.34116-11.777-0.47884-17.69-0.30595l-10.75 0.31434v26.077l16.25-0.36255c13.789-0.30764 16.729-0.65117 19.415-2.268zm-0.0759-44.881c3.4905-4.0618 3.4072-11.409-0.16736-14.77-2.4775-2.3294-3.2217-2.4375-19-2.7604l-16.422-0.33635v21.307l33.178-0.6346 2.4111-2.8058z" fill="#1c1c1a"/></g><g transform="matrix(.16801 .0036277 0 .2116 260.62 664.12)"><path d="m247.93 121.45c-8.7287-2.7931-26.45-11.604-35.65-17.726-10.016-6.6646-24.914-20.574-29.216-27.278-19.964-31.111-7.7491-65.148 23.362-65.098 9.5812 0.01542 17.804 4.7924 23.836 13.847l1.5702 2.3569 1.5985-3.0911c2.2318-4.3158 7.8428-9.7028 12.84-12.327 6.0442-3.1745 19.152-3.1643 26.168 0.02038 10.864 4.9308 16.558 12.347 18.551 24.161 2.2551 13.37-1.6408 25.556-12.857 40.217-4.2015 5.4919-10.442 13.642-13.869 18.112-7.117 9.2842-9.2702 14.597-9.2702 22.872 0 3.202-0.33751 5.7977-0.75 5.7681-0.4125-0.0296-3.2544-0.85516-6.3153-1.8346z" fill="#e60813"/><path d="m345 137.34c0-0.55 1.485-1 3.3-1 3.4991 0 5.7-1.4759 5.7-3.8224 0-1.1269-0.30019-1.1733-1.445-0.22324-0.79472 0.65956-2.4822 1.0522-3.75 0.87244-2.0046-0.28416-2.2943-0.87366-2.2228-4.5222 0.0452-2.3075 0.65297-4.8831 1.3505-5.7235 1.6274-1.9609 7.8817-3.1665 9.2627-1.7855 1.4604 1.4604-0.65497 12.95-2.8259 15.349-1.7948 1.9832-9.3696 2.6752-9.3696 0.85591zm8.7368-7.25c0.53995-0.6875 1.2588-2.7125 1.5974-4.5 0.66503-3.5103-0.66205-4.2153-4.285-2.2764-1.9288 1.0323-3.5108 5.4706-2.5209 7.0724 0.84151 1.3616 4.0498 1.1793 5.2084-0.29599zm114.26 7.3075c0-0.51838 1.9086-1.0809 4.2414-1.25 2.9512-0.21396 4.3346-0.79979 4.548-1.9258 0.24181-1.2764-0.49583-1.5933-3.4914-1.5-3.7972 0.1183-3.7979 0.11749-3.6662-3.8316 0.20124-6.031 6.6489-10.567 11.046-7.7706 1.656 1.0533-1.1556 14.296-3.3907 15.971-1.9412 1.454-9.2866 1.6972-9.2866 0.3075zm8.8716-7.4028c0.61408-0.73992 1.4004-2.7649 1.7474-4.5 0.54406-2.7203 0.34816-3.1547-1.4226-3.1547-2.9227 0-5.1964 2.6566-5.1964 6.0714 0 2.1982 0.46823 2.9286 1.8776 2.9286 1.0326 0 2.38-0.60539 2.9941-1.3453zm-198.85 1.5953c0.0215-1.538 0.69922-5.0585 2.5027-13 0.28103-1.2375 1.16-2.25 1.9534-2.25 1.348 0 1.8391 1.2633 4.2626 10.964l0.86539 3.464 4.4458-7.2054c2.5202-4.0845 5.1417-7.2091 6.0525-7.214 1.4734-8e-3 1.4711 0.67003-0.0276 8.1673-0.89888 4.4967-2.1418 8.345-2.7621 8.5518-1.0975 0.36583-1.021-0.29566 1.2413-10.728 0.33635-1.5511-1.2089 0.0858-4.071 4.3124-2.5372 3.7468-5.1325 6.6392-5.7674 6.4276-0.63482-0.2116-1.8757-3.2772-2.7575-6.8124l-1.6033-6.4276-1.2928 6.75c-0.71106 3.7125-1.6919 6.75-2.1796 6.75s-0.87577-0.7875-0.86232-1.75zm23.221 0.59572c-2.783-2.783 8e-3 -10.191 4.2399-11.253 5.5468-1.3922 8.4499 3.0263 5.6594 8.6134-1.3265 2.6559-2.3235 3.3509-5.1493 3.5893-1.9274 0.16264-4.0649-0.26486-4.75-0.95zm7.7819-2.8973c1.8077-3.3778 0.84864-6.4484-2.0141-6.4484-2.7166 0-5.6316 4.4468-4.6285 7.0607 0.83844 2.185 5.3691 1.7673 6.6427-0.61232zm6.5524-0.19842c-0.37159-2.3375-0.92789-5.2625-1.2362-6.5-0.39608-1.5897-0.11613-2.25 0.95397-2.25 1.066 0 1.7254 1.5331 2.2265 5.1765l0.71196 5.1766 2.3327-3.9266c3.9735-6.6885 4.1765-6.9456 4.9218-6.2352 1.0065 0.95939-6.3345 12.809-7.9353 12.809-0.75651 0-1.5822-1.7764-1.9754-4.25zm10.42 2.7992c0-3.214 2.2249-11.549 3.0829-11.549 1.1942 0 1.157 1.783-0.16572 7.9508-0.99501 4.6395-2.9171 7.0106-2.9171 3.5984zm5.4852-0.79922c0.28783-1.2375 0.87218-4.0169 1.2985-6.1765 0.42636-2.1596 1.3961-4.1335 2.1551-4.3864 0.95986-0.31995 1.179 0.0636 0.71983 1.2601-0.36302 0.94601-0.32222 1.5555 0.0907 1.3544 0.41287-0.2011 2.0004-0.9915 3.5278-1.7564 4.0591-2.0328 5.1274-0.43874 4.2756 6.3796-0.49615 3.9711-1.1269 5.5754-2.192 5.5754-0.94526 0-1.3142-0.64383-1.0027-1.75 2.1246-7.5456 1.6225-9.9472-1.8047-8.6321-1.9616 0.75275-4.5533 5.4954-4.5533 8.3324 0 1.1667-0.6544 2.0497-1.519 2.0497-1.0637 0-1.3622-0.67445-0.99571-2.25zm32.515 1.8664c0-1.6659 10.42-16.616 11.581-16.616 0.75948 0 1.6596 1.2375 2.0002 2.75 1.0462 4.6456 2.5116 10.66 3.0457 12.5 0.32324 1.1138-0.0367 1.75-0.98997 1.75-0.82381 0-1.6416-1.0125-1.8174-2.25-0.2288-1.611-1.1005-2.3399-3.0696-2.5664-3.4467-0.39659-3.6357-2.1836-0.23095-2.1836 2.2385 0 2.4469-0.30625 1.8709-2.75-1.1068-4.6959-1.8147-4.4037-5.9261 2.4466-3.3842 5.6386-6.4639 8.9356-6.4639 6.9198zm19.024-1.3664c0.0215-1.538 0.69922-5.0585 2.5027-13 0.8645-3.8068 2.7725-2.6609 2.0432 1.227l-0.65229 3.477 3.0067-1.7256c2.7268-1.565 3.1522-1.5801 4.5702-0.16215 1.3224 1.3223 1.392 2.363 0.45143 6.7486-1.4378 6.7042-3.3746 6.9347-2.4611 0.29299 0.45115-3.2803 0.29293-5.127-0.48019-5.6048-1.7702-1.094-5.7377 3.2587-6.4549 7.0816-0.66022 3.5193-2.5691 4.7779-2.5256 1.6653zm14.949 0.21827c-2.0915-2.5202 0.34276-8.9425 3.957-10.44 3.9528-1.6373 7.0694-0.53361 7.0694 2.5035 0 2.69-2.5603 4.4678-6.4343 4.4678-1.614 0-2.5657 0.55642-2.5657 1.5 0 1.5657 0.91749 1.8533 4.8624 1.5244 1.4802-0.12342 2.1116 0.20866 1.691 0.88931-1.0052 1.6264-7.1238 1.3088-8.5797-0.44544zm8.5802-6.5554c1.0167-1.645-1.089-3.1952-3.3608-2.4741-1.1046 0.35057-2.2607 1.2953-2.5693 2.0993-0.41296 1.0762 0.2068 1.4619 2.3486 1.4619 1.6003 0 3.2119-0.48921 3.5815-1.0871zm4.0915 7.3992c-1.0083-1.0083-0.75914-4.9683 0.48433-7.6974 0.62135-1.3637 2.4126-3.0108 3.9806-3.6603 3.4147-1.4144 8.3019-0.47092 7.5611 1.4597-0.28077 0.73166-0.8141 3.355-1.1852 5.8296l-0.67471 4.4993-4.7603 0.10725c-2.6182 0.059-5.0508-0.18318-5.4057-0.53814zm7.2262-2.6574c0.61408-0.73992 1.4004-2.7649 1.7474-4.5 0.54406-2.7203 0.34816-3.1547-1.4226-3.1547-2.9227 0-5.1964 2.6566-5.1964 6.0714 0 2.1982 0.46823 2.9286 1.8776 2.9286 1.0326 0 2.38-0.60539 2.9941-1.3453zm6.795 2.6786c-1.2224-1.2224-0.68661-6.8598 0.86207-9.0709 0.84571-1.2074 3.1373-2.4844 5.1291-2.858 2.3083-0.43305 3.7753-1.3445 4.0879-2.5399 0.61677-2.3586 2.2659-2.4436 2.2192-0.1145-0.0555 2.7625-2.6683 14.287-3.4066 15.025-0.36689 0.36689-1.0364 0.0696-1.4877-0.66073-0.57443-0.92945-1.0258-0.99576-1.5046-0.22104-0.746 1.207-4.8278 1.5116-5.8993 0.44009zm8.1904-5.6058c1.6627-4.3818 1.2115-5.2126-2.3458-4.3197-4.6815 1.175-5.9053 9.0768-1.3029 8.4123 1.509-0.21788 2.6745-1.5251 3.6487-4.0926zm14.616 4.0224c3.1359-13.809 3.1404-13.524-0.22286-14.034-1.5125-0.22912 0.4-0.43077 4.25-0.4481 4.4394-0.02 5.9026 0.20314 4 0.60998-2.852 0.60984-3.0702 1.0234-4.4231 8.3817-0.94042 5.1149-1.8796 7.7402-2.769 7.7402-0.88053 0-1.1693-0.77803-0.83499-2.25zm8.5381 0.27052c-1.4639-2.7353-0.27257-6.6696 2.7363-9.0363 6.5288-5.1356 12.411 1.7307 7.1802 8.381-2.6219 3.3332-8.2831 3.7074-9.9164 0.65538zm8.8029-4.8909c0.3875-3.8807-2.0124-5.165-4.8511-2.5959-2.1867 1.9789-2.651 7.0408-0.71275 7.7697 2.2545 0.8478 5.2398-1.9282 5.5639-5.1738zm18.9 6.2508c-1.3587-1.3587-0.70633-7.1676 1.0363-9.227 3.687-4.3573 11.333-3.1413 9.8394 1.5648-0.66436 2.0932-3.2472 3.2433-7.3394 3.2681-2.6592 0.0161-2.9498 1.5226-0.55263 2.8642 1.0374 0.58052 2.6262 0.59676 4.086 0.0418 1.7767-0.67551 2.2826-0.58591 1.9749 0.34979-0.44931 1.3662-7.8813 2.3016-9.0445 1.1383zm8.2765-7.8686c1.0053-1.2114 0.90984-1.613-0.51348-2.1591-1.8845-0.72317-4.6144 0.56039-5.2505 2.4688-0.57497 1.7249 4.2925 1.4634 5.764-0.30961zm4.0098 7.3201c0-3.4321 2.3328-13.832 3.1026-13.832 0.49354 0 0.89735 0.45 0.89735 1s0.675 1 1.5 1 1.5 0.45 1.5 1-0.66643 1-1.481 1c-1.3709 0-1.9184 1.2864-2.7665 6.5-0.17894 1.1 0.36604 2.5482 1.2111 3.2182 1.3061 1.0356 1.1242 1.223-1.2136 1.25-1.5125 0.0175-2.75-0.49384-2.75-1.1363zm7.6941-2.0819c1.9333-9.7556 2.9355-13.127 4.009-13.484 0.8439-0.2813 1.0219 0.65424 0.60877 3.1999l-0.58378 3.5975 3.0926-1.7749c4.4165-2.5347 5.6204-0.97352 4.732 6.1365-0.50517 4.0432-1.1184 5.5754-2.2316 5.5754-0.91972 0-1.3152-0.5728-0.98667-1.429 1.4042-3.6594 1.776-8.3848 0.71145-9.0427-2.2079-1.3646-5.999 2.3265-6.6646 6.4888-0.37701 2.3577-1.1866 3.9829-1.9841 3.9829-0.98535 0-1.1742-0.8729-0.70313-3.25zm14.816 1.2809c-0.8309-2.618 0.21735-7.5596 1.8998-8.9559 2.3673-1.9647 7.108-2.3612 8.479-0.70923 2.7391 3.3004-0.55312 6.5836-6.6386 6.6205-2.6592 0.0161-2.9498 1.5226-0.55263 2.8642 1.0374 0.58052 2.6262 0.59676 4.086 0.0418 1.7767-0.67551 2.2826-0.58591 1.9749 0.34979-0.22754 0.69187-2.2533 1.3945-4.5016 1.5613-3.4051 0.2527-4.198-0.0434-4.7468-1.7725zm8.4804-6.5191c1.0053-1.2114 0.90984-1.613-0.51348-2.1591-1.8845-0.72317-4.6144 0.56039-5.2505 2.4688-0.57497 1.7249 4.2925 1.4634 5.764-0.30961zm4.0098 7.0374c0-3.214 2.2249-11.549 3.0829-11.549 0.50443 0 0.91714 0.68537 0.91714 1.523 0 1.3334 0.3113 1.3191 2.5-0.11501 1.375-0.90093 2.5-1.2085 2.5-0.68356 0 0.52497-1.1149 1.4625-2.4776 2.0834-1.7615 0.80259-2.8075 2.4387-3.6187 5.6605-1.0794 4.2868-2.9036 6.2224-2.9036 3.0808zm-202-14.549c0-0.55 0.45-1 1-1s1 0.45 1 1-0.45 1-1 1-1-0.45-1-1zm-303.75-13.545c-7.9981-2.1537-12.526-4.8551-17.603-10.502-4.6616-5.1848-7.6473-12.265-7.6473-18.134v-2.8185h19.845l1.204 3.75c2.3718 7.3873 8.5642 11.271 19.189 12.033 12.76 0.91595 20.763-3.5832 20.763-11.673 0-7.1664-6.211-10.757-28.647-16.559-15.976-4.1315-21.136-6.4015-25.282-11.124-6.0551-6.8964-7.8979-22.931-3.6127-31.436 2.9747-5.9036 9.5021-11.833 15.51-14.088 11.717-4.3992 31.342-4.2098 41.354 0.39907 9.0488 4.1657 15.712 13.068 17.198 22.978l0.70765 4.719h-7.891c-8.7038 0-11.318-1.1311-13.827-5.9819-2.1437-4.1454-6.5885-6.9158-12.996-8.1003-11.511-2.1278-20.854 2.2459-22.174 10.38-0.49999 3.0811-0.15134 4.0441 2.3806 6.5761 2.9507 2.9507 6.923 4.3903 27.78 10.068 22.934 6.2429 29.823 12.831 29.869 28.558 0.04913 17.101-8.8182 27.736-26.168 31.385-7.2417 1.5231-23.566 1.2885-29.95-0.43055zm91.749-4e-3c-16.211-4.4959-27.619-17.653-31.605-36.451-1.899-8.9564-1.3739-26.83 1.0075-34.297 5.1659-16.196 16.598-27.665 31.607-31.706 2.4616-0.66285 8.9791-1.1828 14.483-1.1554 16.648 0.08287 28.351 4.9577 36.426 15.174 2.2448 2.8399 4.0815 5.5611 4.0815 6.047s-0.8695 2.808-1.9322 5.1602c-1.0627 2.3522-2.1736 5.0643-2.4686 6.0268-0.37273 1.216-1.5377 1.7362-3.8178 1.7049-4.951-0.06805-8.2394-1.9817-11.951-6.9549-4.8477-6.4949-10.395-9-19.928-9-14.307 0-22.973 7.2226-26.32 21.937-3.5093 15.429-0.65912 30.862 7.2775 39.405 3.9643 4.2671 9.8581 6.8661 16.841 7.4266 11.813 0.94824 20.465-3.634 24.918-13.197 1.2987-2.789 2.3656-5.5755 2.371-6.1924 6e-3 -0.69432-2.9423-1.2948-7.7402-1.5766-4.2625-0.25027-8.7626-1.0914-10-1.8692-3.13-1.967-5.4257-7.2804-5.0586-11.708l0.30887-3.7248 31.205-0.54929 1.6038 7.996c0.88208 4.3978 3.1984 11.447 5.1473 15.665 3.4277 7.4187 3.5435 8.0571 3.5435 19.529v11.859h-3.953c-2.1741 0-5.0774-0.51235-6.4518-1.1386-2.3096-1.0523-5.5952-6.1979-5.5952-8.7626 0-1.8022-0.89743-1.2853-4.099 2.361-1.6708 1.903-5.5889 4.708-8.7069 6.2335-4.8731 2.3842-7.0748 2.8093-15.682 3.0279-6.6295 0.16838-11.871-0.26102-15.513-1.2709zm282.23 0.057c-7.2326-2.0267-10.671-3.9487-15.242-8.5192-9.3138-9.3138-10.212-14.325-9.8096-54.717l0.32124-32.229 2.7535-2.7522c2.4134-2.4123 3.6721-2.7986 10.192-3.1278l7.439-0.37565 0.30758 36.356c0.28793 34.035 0.43527 36.608 2.3076 40.292 3.4213 6.7323 6.2297 8.0645 17 8.0645 10.492 0 13.246-1.2319 17-7.6045 1.8855-3.2011 2.0175-5.4993 2.3064-40.145l0.30642-36.75h20.887v34.864c0 35.835-0.54158 42.492-4.0455 49.731-2.9816 6.1592-10.517 13.087-16.938 15.572-7.2534 2.8072-26.858 3.5633-34.786 1.3415zm84.794-0.0478c-13.943-3.9071-22.849-13.609-24.667-26.869l-0.62922-4.5906h10.167c8.8193 0 10.236 0.23201 10.685 1.75 2.6595 8.9933 8.5753 13.242 19.529 14.026 12.013 0.85951 20.088-2.9772 21.159-10.053 1.1879-7.8498-5.9011-12.362-28.605-18.208-13.577-3.496-20.324-6.1308-24.021-9.3815-3.3271-2.9249-6.7054-11.008-7.3109-17.492-0.89905-9.6277 1.523-16.626 7.9936-23.097 6.0478-6.0478 11.445-8.2743 22.998-9.487 16.901-1.7741 32.007 2.5188 38.729 11.006 3.6647 4.6271 6.9492 12.637 6.9492 16.947v2.9893h-8.0454c-8.7433 0-8.8014-0.0314-14.885-8.0496-3.3094-4.3615-8.222-6.2255-16.569-6.287-10.883-0.0802-16.5 3.8708-16.5 11.607 0 2.8321 0.67306 4.449 2.5924 6.2278 2.8599 2.6505 5.6082 3.63 25.408 9.0557 15.732 4.311 21.49 6.9626 25.813 11.886 9.3257 10.621 7.284 31.329-4.045 41.026-6.8676 5.8784-13.337 7.7469-28.268 8.1644-9.5713 0.2676-14.444-0.0412-18.476-1.1709zm-197.02-13.631 2e-3 -13.329 4.4137-8.7883c9.045-18.01 8.6553-36.14-1.0739-49.964-3.8963-5.5362-3.983-6.1884-1.3887-10.443 3.0626-5.0228 6.5176-5.5594 32.592-5.0622 17.975 0.34275 24.094 0.80698 28.216 2.1406 12.592 4.0736 19.074 15.949 16.149 29.586-0.92431 4.3099-2.0994 6.3124-5.9834 10.196l-4.8332 4.8332 2.7768 1.436c11.133 5.7569 15.14 21.366 9.0933 35.421-2.77 6.439-8.0204 11.234-15.586 14.235-5.5963 2.2198-7.2962 2.3504-35.131 2.7l-29.25 0.36735 2e-3 -13.329zm55.662-7.2543c3.9806-2.397 5.3352-5.3439 5.3352-11.607 0-3.999-0.53407-5.5349-2.8105-8.0826-2.4865-2.7828-3.6106-3.217-9.75-3.7658-3.8167-0.34116-11.777-0.47884-17.69-0.30595l-10.75 0.31434v26.077l16.25-0.36255c13.789-0.30764 16.729-0.65117 19.415-2.268zm-0.0759-44.881c3.4905-4.0618 3.4072-11.409-0.16736-14.77-2.4775-2.3294-3.2217-2.4375-19-2.7604l-16.422-0.33635v21.307l33.178-0.6346 2.4111-2.8058z" fill="#f1f1f0"/></g><path d="m1143.3 666.95c5.1857 0.1525 6.8634-7.7785 7.1685-13.574 0.305-5.7957-1.2202-11.592-5.6433-12.202-4.4231-0.61-8.0835 4.1181-7.931 12.202 0.1525 8.0836 1.9827 13.117 6.4058 13.574z" fill="#318493"/><path d="m1144.9 660.64c2.3629 0.089 3.1274-4.5257 3.2664-7.8978 0.139-3.372-0.556-6.7442-2.5715-7.0991-2.0154-0.3549-3.6834 2.396-3.6139 7.0991 0.07 4.7032 0.9034 7.6315 2.919 7.8978z" fill="#e0e0e0"/><path d="m874.99 655.36c11.134-0.1525 11.439-3.3555 11.134-8.3886-0.305-5.0332-0.7626-7.7785-8.5411-8.0836-7.7785-0.305-10.066 3.3555-10.066 7.4735s1.5252 8.6936 7.4735 8.9987z" fill="#d48f16"/><path d="m1456.2 671.83c5.1857 0.1525 6.8634-7.7785 7.1685-13.574 0.305-5.7957-1.2202-11.592-5.6433-12.202-4.4231-0.61-8.0835 4.1181-7.931 12.202 0.1525 8.0836 1.9827 13.117 6.4058 13.574z" fill="#318493"/><path d="m1457.8 665.52c2.3629 0.089 3.1274-4.5257 3.2664-7.8978 0.139-3.372-0.556-6.7442-2.5715-7.0991-2.0154-0.3549-3.6834 2.396-3.6139 7.0991 0.07 4.7032 0.9034 7.6315 2.919 7.8978z" fill="#e0e0e0"/><path d="m1581.5 771.83c-20.707 0.8627-31.923 31.923-33.648 75.062-1.7255 43.139 12.51 78.513 30.629 78.945 18.118 0.4313 31.06-39.688 31.492-79.376s-15.099-74.199-28.472-74.631z" fill="#878787"/><path d="m1561.3 786.03c-7.9354 13.258-12.429 34.856-13.469 60.857-1.1754 29.385 5.0582 55.154 14.877 68.744 12.22-10.299 22.236-44.126 21.98-70.693-0.2628-27.322-7.998-51.235-23.389-58.908z" fill="#545454"/><path d="m1551.5 814.12c-1.9481 9.7335-3.1726 20.772-3.6523 32.766-0.5396 13.49 0.4975 26.198 2.7109 37.336 3.5348-8.5608 5.9638-25.008 6.1328-31.943 0.1949-7.9897-0.8537-25.47-5.1914-38.158z" fill="#676767"/><path d="m1553.1 806.82c-0.6967 2.6992-1.333 5.5154-1.8984 8.459 4.2016-1.0125 5.5087-4.7936 1.8984-8.459zm-4.9531 33.367c-0.1436 2.2021-0.2704 4.4273-0.3613 6.6992-0.062 1.5511-0.092 3.0857-0.1133 4.6153-0.01 1.1572-0.011 2.3093-0.01 3.4551 7e-4 0.1146 0 0.2293 0 0.3437 17.033-0.2401 12.808-11.218 0.4785-15.113zm1.7617 40.881c0.703 4.0404 1.5557 7.8902 2.5489 11.516 4.8261-2.447 2.2808-8.8582-2.5489-11.516z" fill="#171717"/><path d="m684.98 231.72c7.0871 0.18172 7.0871 0.90861 7.0871 4.3613 0 3.4527-2.3624 3.4527-6.3602 3.4527s-9.4495-0.18172-13.447 0-5.4516 3.4527-7.6323 6.1785c-2.1807 2.7258-11.63 15.446-13.811 19.626s-0.9086 4.9065 3.6344 5.0882c4.543 0.18172 27.44-0.54516 31.438-0.72689 3.9979-0.18172 4.543 0.54517 4.7248 3.0893 0.18172 2.5441-0.72689 3.4527-4.543 3.8161s-51.79 0.36344-56.879 0.72689c-5.0882 0.36344-7.2688 1.6355-7.814 6.9054-0.54516 5.2699-1.0903 26.168-1.6355 31.074-0.54517 4.9065-7.2688 1.6355-7.4506-5.4516-0.18173-7.0871 0.54516-20.171 1.272-24.714 0.72689-4.543-1.4538-6.9054-6.9054-7.2688-5.4516-0.36344-8.7226-2.7258-14.356-2.7258s-10.358-0.36344-15.083 0c-4.7248 0.36345-7.814 1.4538-10.358 7.9957-2.5441 6.542-23.079 64.148-24.896 67.782s-8.3592 4.7248-3.4527-7.9957 21.988-59.059 24.532-64.874c2.5441-5.8151 7.6323-9.086 15.628-9.2678 7.9957-0.18172 13.811 0.54516 18.899 0.36344 5.0882-0.18172 7.2688-3.0893 11.812-3.271s10.54 0.18172 13.993 0.18172c3.4527 0 3.8161 2.7258 8.3592 2.9075s6.1785-0.54516 11.267-7.2688c5.0882-6.7237 16.537-21.443 21.443-25.441 4.9065-3.9979 8.3592-4.7248 20.534-4.543z" fill="#0d0d0d"/><path d="m644.27 310.41c8.3478 0.56732 10.722 5.2699 10.903 10.54 0.18172 5.2699-2.5441 82.138-3.0893 88.68-0.54516 6.5419-3.4527 9.086-9.086 9.4494-5.6334 0.3635-27.803 0.9087-37.798-0.5451-9.9947-1.4538-12.902-1.8172-13.447-11.63-0.54516-9.8129 4.543-73.96 5.4516-83.41 0.90861-9.4495 4.3613-13.266 13.084-13.811 8.7226-0.54516 23.608 0.0219 33.982 0.72688z" fill="#161616"/><path d="m565.22 355.84c10.903 3.6344 9.2678 10.358 7.6323 15.628-1.6355 5.2699-7.0871 12.72-17.263 16.173-10.176 3.4527-22.17 0.9086-36.162-2.9075-13.993-3.8162-24.532-13.811-24.169-23.987 0.36344-10.176 4.1796-20.353 15.083-18.717s44.703 9.4495 54.88 13.811z" fill="#181818"/><g transform="matrix(.5982 .036122 0 .81067 306.73 -486.32)" fill="#da841f"><path d="m1000.7 925.48c3.1469 0.41125 3.2967 0.7234 3.2967 3.7204s-0.2997 63.812-0.4495 67.396c-0.1499 3.5841-0.8991 3.5218-4.1959 3.2479-3.2968-0.27384-3.8962-1.0729-3.8962-4.6694s0.89912-48.178 0.74927-51.787c-0.14986-3.6089-0.59941-4.8451-4.046-5.1314-3.4466-0.28629-4.1959-1.3975-4.1959-4.0948 0-2.6973 1.6484-3.6094 3.4466-4.8087 1.7982-1.1993 5.2448-4.0599 9.2909-3.8737z"/><path d="m1021.2 924.29c-7.7923-0.072-11.838 8.5047-12.438 14.781s-0.8992 35.339-0.4496 43.744c0.4495 8.4045 5.0946 17.828 13.936 18.08s12.588-8.3331 13.337-15.804c0.7492-7.4713 0.2996-36.106 0-43.457-0.2998-7.3513-4.7951-17.07-14.386-17.343zm0.5238 7.0581c4.9451 0.29062 5.3946 6.5974 5.8441 14.103 0.4496 7.5054 0.2997 30.129 0 37.013s-1.798 11.937-5.2446 11.689c-3.4466-0.24796-5.3947-3.7504-6.1439-12.163-0.7493-8.4131-0.8992-35.69-0.2998-41.218s1.4985-9.398 5.8442-9.4242z"/><path d="m1052.4 923.52c-9.5905 0.17323-12.887 8.1679-13.337 14.478-0.4496 6.31-0.5995 42.183-0.1499 48.518 0.4496 6.3351 5.9944 13.548 14.536 13.639 8.5416 0.091 12.738-5.8201 13.337-11.538 0.5994-5.7176 0.7493-16.3 0.2998-21.165-0.4496-4.8647-0.45-11.187-5.8447-15.308-5.3947-4.1206-10.64-2.0616-12.737-0.50282-2.098 1.5588-2.6973 0.80704-2.6973-2.1337s1e-4 -6.0287 0.4496-11.309c0.4496-5.2807 3.7464-8.2762 6.5936-8.1967 2.8472 0.0795 5.2447 3.0871 5.8441 5.8975 0.5994 2.8104 1.4986 4.012 3.5965 4.2176 2.098 0.20563 4.4958-0.46263 4.1961-3.4117-0.2997-2.9491-2.9973-12.876-14.086-13.186zm0.5995 33.098c5.396 0.29433 5.2462 5.8908 5.546 9.0587 0.2997 3.1679 0.2997 16.38 0.1499 20.397-0.1499 4.017-1.9486 7.5575-6.1455 7.4402-4.1969-0.11711-5.9955-3.9014-6.1454-8.6448-0.1499-4.7434-0.1499-17.669 0.1498-21.538 0.2998-3.8692 1.9486-6.8388 6.4452-6.7132z"/></g><g transform="translate(-211.09 -618.93)" fill="#da841f"><g><path d="m687.22 807.19c3.1469 0.41125 3.2968 0.7234 3.2968 3.7204s-0.2997 63.812-0.44955 67.396c-0.14986 3.584-0.89912 3.5218-4.1959 3.2479-3.2968-0.27384-3.8962-1.0729-3.8962-4.6694s0.89911-48.178 0.74926-51.787c-0.14986-3.6089-0.59941-4.8451-4.046-5.1314-3.4466-0.28629-4.1959-1.3975-4.1959-4.0948 0-2.6973 1.6484-3.6094 3.4466-4.8087 1.7982-1.1993 5.2448-4.0599 9.2908-3.8737z"/><path d="m707.75 805.99c-7.7923-0.072-11.838 8.5047-12.438 14.781s-0.89919 35.339-0.44963 43.744c0.44956 8.4045 5.0946 17.828 13.936 18.08 8.8413 0.25168 12.588-8.3331 13.337-15.804 0.74926-7.4713 0.2997-36.106 0-43.457-0.29971-7.3513-4.795-17.07-14.386-17.343zm0.5238 7.0581c4.9451 0.29062 5.3946 6.5974 5.8442 14.103 0.44956 7.5054 0.29971 30.129 0 37.013-0.2997 6.8847-1.798 11.937-5.2446 11.689-3.4466-0.24796-5.3946-3.7504-6.1439-12.163-0.74927-8.4131-0.89916-35.69-0.29975-41.218 0.5994-5.5275 1.4984-9.398 5.8442-9.4242z"/><path d="m738.92 805.23c-9.5906 0.17324-12.887 8.1679-13.337 14.478s-0.59943 42.183-0.14987 48.518c0.44956 6.3351 5.9944 13.548 14.536 13.639 8.5416 0.0915 12.738-5.8201 13.337-11.538 0.59941-5.7176 0.74931-16.3 0.29975-21.165s-0.44997-11.187-5.8447-15.308c-5.3947-4.1206-10.64-2.0616-12.737-0.50283-2.0979 1.5588-2.6973 0.80705-2.6973-2.1336s8e-5 -6.0287 0.44963-11.309c0.44956-5.2807 3.7463-8.2762 6.5935-8.1967 2.8472 0.0795 5.2447 3.0871 5.8442 5.8975 0.59941 2.8104 1.4986 4.012 3.5965 4.2176 2.0979 0.20563 4.4957-0.46263 4.196-3.4117-0.29971-2.9491-2.9972-12.876-14.086-13.186zm0.59951 33.098c5.396 0.29433 5.2462 5.8908 5.5459 9.0587s0.29976 16.38 0.14987 20.397-1.9486 7.5575-6.1454 7.4403c-4.1969-0.11711-5.9956-3.9014-6.1454-8.6448-0.14989-4.7434-0.14991-17.669 0.14987-21.538 0.29978-3.8692 1.9485-6.8388 6.4452-6.7132z"/></g><g transform="matrix(.2619 .0021962 0 .2619 575.13 742.8)"><path d="m-717.13 315.8c-0.71074-8e-3 -1.4084 7e-3 -2.0879 0.043-10.871 0.57217-14.877 0.57313-14.877 18.311-1.1444 16.021-0.57227 98.414-0.57227 107.57 1e-5 9.1548 4.5769 14.305 21.17 14.305s28.037-14.305 27.465-29.182c-0.57217-14.877-1.1437-25.747-8.0098-32.041-6.8661-6.2939-12.017-9.1551-6.8672-14.305s13.466-14.472 11.75-37.359c-1.6092-21.457-17.309-27.225-27.97-27.34zm3.0996 18.34c3.2219 0.13032 7.0413 3.2316 10.26 8.5957 6.8661 11.443 1.1457 21.743-4.0039 28.609-5.1496 6.8661-11.444 5.149-12.588-3.4336s-1.0203-11.437-0.57226-21.742c0.36993-8.5085 3.2528-12.177 6.9043-12.029zm0.4043 63.117c3.2219 0.13032 7.0432 3.2296 10.262 8.5938 6.8661 11.443 1.1437 21.743-4.0059 28.609-5.1496 6.8661-11.444 5.149-12.588-3.4336s-1.0203-11.437-0.57227-21.742c0.36994-8.5085 3.2528-12.175 6.9043-12.027z"/><path d="m-652.97 318.76c-2.9738 0.20673-5.6206 4.9275-6.7422 13.398-1.7473 13.196-12.303 105.57-12.875 112.43-0.57218 6.8661 1.1452 10.299 5.1504 10.299 4.0052 0 9.4415 0.28535 10.014-4.5781 0.57218-4.8635 0.85853-11.729 1.7168-20.598 0.85826-8.8687 7.1508-7.1524 9.4395-1.1445s4.0051 12.301 5.4355 18.309c1.4304 6.0078 3.4334 8.0108 8.2969 8.2969 4.8635 0.28609 6.2938-4.5769 5.4355-15.162-0.85826-10.585-12.301-88.401-17.164-107.57-2.4317-9.5839-5.7332-13.892-8.707-13.686zm1.9688 56.801c1.5019-0.17929 2.9508 3.3224 3.6289 10.795 1.3563 14.945 2.0798 15.622-4.291 15.639-5.5687 0.0145-4.9726-1.3201-3.2812-15.145 0.88707-7.2507 2.4415-11.11 3.9434-11.289z"/><path d="m-577.79 316.48c10.849 0 11.779 1.5499 12.089 7.1294 0.30998 5.5795-4.9596 5.5795-11.159 5.5795s-12.709 0.92993-13.019 5.2696c-0.30998 4.3396 2.4798 101.98 2.1698 110.66-0.30998 8.6793 0 10.849-4.9596 11.159-4.9596 0.30998-6.8194-0.30997-7.7494-9.6092s-2.4798-98.572-2.4798-105.7c0-7.1294-0.30998-9.9192-7.4394-9.9192s-11.159-2.4798-11.469-6.8194c-0.30997-4.3396 0.30998-5.5795 7.1294-6.1995 6.8194-0.61995 26.038-1.2399 36.887-1.5499z"/><path d="m-534.38 310.37c-15.789 0.87674-19.88 16.658-21.75 29.371-1.87 12.713-3.2037 62.685-0.73828 80.658 2.4655 17.973 13.73 32.439 26.004 32.439 12.274 0 22.956-17.534 24.83-30.686 1.874-13.151 2.615-46.028 0.18164-67.508-2.4333-21.48-9.2431-43.837-28.527-44.275zm1.3184 20.598c10.526 0.42786 10.965 12.835 12.281 23.959 1.3158 11.124 2.4e-4 52.626-0.87696 63.75-0.87719 11.124-1.3153 18.398-8.7715 18.826-7.4561 0.42786-10.089-6.4168-11.404-17.541-1.3158-11.124-1.7541-59.902-0.87695-69.314 0.8772-9.4128 0.43791-19.252 9.6484-19.68z"/><path d="m-496.67 325.71c0.43836-12.713 3.0686-13.589 10.082-13.151 7.0139 0.43837 7.4523 5.6988 7.4523 11.836 0 6.1372 0.87673 24.987 0.87673 38.138 0 13.151 5.2604 12.274 7.4523 4.8221 2.1918-7.4523 12.274-38.577 15.343-44.714 3.0686-6.1372 5.2604-7.8907 11.398-5.2604 6.1372 2.6302 4.8221 7.0139 2.1918 16.658-2.6302 9.6441-11.836 37.261-15.781 45.152-3.9453 7.8906-1.7535 16.658 3.0686 22.795 4.8221 6.1372 14.905 32.878 16.658 41.207s-3.507 13.151-9.2058 13.151-9.6441-5.2604-10.082-12.713-7.0139-21.48-11.836-30.686c-4.8221-9.2058-7.8906-3.507-8.329 13.151s-0.87674 22.357-1.3151 25.864c-0.43836 3.507-2.6302 7.0139-7.8906 6.5755-5.2604-0.43837-8.7674-1.7535-9.2058-12.713-0.43837-10.959-0.87673-103.02-0.87673-120.11z"/><path d="m-220.08 311.22c10.849 0 11.779 1.5499 12.089 7.1294 0.30998 5.5795-4.9596 5.5795-11.159 5.5795s-12.709 0.92993-13.019 5.2696c-0.30998 4.3396 2.4798 101.98 2.1698 110.66-0.30998 8.6793 0 10.849-4.9596 11.159-4.9596 0.30998-6.8194-0.30997-7.7494-9.6092s-2.4798-98.572-2.4798-105.7c0-7.1294-0.30998-9.9192-7.4394-9.9192s-11.159-2.4798-11.469-6.8194c-0.30997-4.3396 0.30998-5.5795 7.1294-6.1995 6.8194-0.61995 26.038-1.2399 36.887-1.5499z"/><path d="m-887.47 319.31c-0.71074-8e-3 -1.4084 7e-3 -2.0879 0.043-10.871 0.57217-14.877 0.57313-14.877 18.311-1.1444 16.021-0.57227 98.414-0.57227 107.57 1e-5 9.1548 4.5769 14.305 21.17 14.305s28.037-14.305 27.465-29.182c-0.57217-14.877-1.1437-25.747-8.0098-32.041-6.8661-6.2939-12.017-9.1551-6.8672-14.305s13.466-14.472 11.75-37.359c-1.6092-21.457-17.309-27.225-27.97-27.34zm3.0996 18.34c3.2219 0.13032 7.0413 3.2316 10.26 8.5957 6.8661 11.443 1.1457 21.743-4.0039 28.609-5.1496 6.8661-11.444 5.149-12.588-3.4336s-1.0203-11.437-0.57226-21.742c0.36993-8.5085 3.2528-12.177 6.9043-12.029zm0.4043 63.117c3.2219 0.13032 7.0432 3.2296 10.262 8.5938 6.8661 11.443 1.1437 21.743-4.0059 28.609-5.1496 6.8661-11.444 5.149-12.588-3.4336s-1.0203-11.437-0.57227-21.742c0.36994-8.5085 3.2528-12.175 6.9043-12.027z"/><path d="m-807.5 319.11c10.849 0 11.769 1.5499 12.045 7.1294 0.27525 5.5795-4.9943 5.5795-11.194 5.5795s-12.715 0.92993-13.052 5.2696c-0.33699 4.3396 1.845 101.98 1.481 110.66-0.364 8.6793-0.0675 10.849-5.029 11.159-4.9615 0.30998-6.8175-0.30997-7.6895-9.6092s-1.8662-98.572-1.8219-105.7c0.0444-7.1294-0.24824-9.9192-7.3776-9.9192s-11.144-2.4798-11.427-6.8194c-0.28296-4.3396 0.34471-5.5795 7.168-6.1995 6.8233-0.61995 26.046-1.2399 36.897-1.5499z"/><path d="m-344.07 312.75c9.902 0.61664 10.542 0.90661 10.852 6.9507s-0.62014 7.5551-5.2711 8.1595c-4.651 0.60441-6.5114 2.4176-6.5114 8.4617 0 6.0441 0.93019 90.661 0.93019 95.799s1.5503 8.7639 5.2712 8.7639c3.7208 0 5.2711 1.511 5.2711 6.9507s0.31006 8.1595-4.651 8.4617c-4.9611 0.3022-17.054 0.30221-25.736 0-8.6819-0.3022-10.542-3.3242-10.852-8.4617s1.2403-8.4617 8.0617-8.4617c6.8215 0 7.7517-2.1154 7.7517-7.5551 0-5.4397-0.62013-88.546-0.62013-95.194s-2.7906-9.0661-7.7517-9.0661c-4.9611 0-6.2013-2.7198-6.2013-7.5551 0-4.8353 0.93021-6.6485 7.1316-7.2529s14.296-0.49998 22.325 0z"/><path d="m-327.24 321.33c0-7.8906 2.8494-9.2058 9.8633-8.9866 7.0139 0.21919 6.3564 6.3564 6.1372 9.425-0.21918 3.0686 0.21919 10.302 6.1372 22.576 5.918 12.274 13.809 15.781 14.028 7.0139 0.21919-8.7674 0.65756-23.014 0.87674-28.713 0.21918-5.6988 1.0959-9.6441 7.8906-9.4249 6.7947 0.21919 7.6715 1.5343 8.5482 8.9866 0.87674 7.4523 0.43837 115.29 0.21918 122.96-0.21918 7.6715-3.2878 9.4249-7.8906 9.2058s-6.3564-2.1918-6.3564-8.7674-1.3151-15.124-8.5482-33.097c-7.2331-17.973-13.809-20.384-14.028-8.329-0.21918 12.055-0.21918 39.015-0.21918 44.495s-3.2878 6.5755-8.1098 6.3564c-4.8221-0.21918-7.4523-0.87673-7.6715-8.9866-0.21919-8.1098-1.0959-115.95-0.87674-124.72z"/></g></g><g transform="matrix(.13564 .0013096 -.0016244 .17646 787.66 447.46)" fill="#fff"><path d="m1282.9 1215.6c0-0.8126-0.2321-1.5092-0.6965-2.0897-0.4644-0.4644-1.161-0.8127-2.0898-0.9288-0.4643 0-1.7414-0.1161-4.0633-0.1161h-4.2956v6.3853h4.0634c2.6702 0 4.2955-0.1161 4.9921-0.3483 0.6966-0.2321 1.161-0.5804 1.5093-1.0448 0.3483-0.5805 0.5804-1.161 0.5804-1.8576" stroke-width="1.161"/><g><path d="m1193.2 1212.1c-2.3219 0-4.0634 0.6966-5.4566 2.0898-1.3931 1.3931-2.0897 3.599-2.0897 6.5014 0 2.7863 0.6966 4.9921 2.0897 6.5014 1.3932 1.5092 3.2507 2.2058 5.4566 2.2058 2.2058 0 3.9473-0.6966 5.3404-2.2058 1.3932-1.3932 2.0897-3.599 2.0897-6.5014s-0.6965-4.9922-2.0897-6.3853c-1.2771-1.5093-3.1346-2.2059-5.3404-2.2059" stroke-width="1.161"/><g><path d="m1440.5 1213.9h-9.8682c-1.7415 0-2.5541 0.8127-2.5541 1.8575 0 2.2059 13.699 5.5727 13.699 10.565 0 3.3668-2.2058 7.4302-9.7521 7.4302h-11.494v-4.8761h11.378c1.277 0 2.2058-0.6966 2.2058-1.7414 0-2.5541-13.699-5.1083-13.699-11.261 0-4.5277 4.6439-6.5014 8.5911-6.5014h11.494z" stroke-width="1.161"/><path d="m1187.5 1359.1c48.993 0 91.252-28.908 110.64-70.587-76.508-16.021-149.3-26.586-230.34-28.444 10.681 56.423 60.138 99.03 119.7 99.03" stroke-width="1.161"/><path d="m1066.3 1250.2c0.2322 1.7415 0.3483 3.4829 0.6966 5.2244 22.406 0.9288 163.12 5.9209 236.95 17.879 0.6966-2.0897 1.277-4.1794 1.7414-6.2692-77.668-8.7072-158.82-15.092-239.39-16.834" stroke-width="1.161"/><path d="m1309.4 1237.2c0-67.336-54.565-121.9-121.9-121.9-67.336 0-121.9 54.565-121.9 121.9 0 2.9024 0.1161 5.6887 0.3483 8.475 23.568 0.4644 167.64 1.7414 242.29 8.1267 0.8126-5.3404 1.1609-10.913 1.1609-16.602m-137.34-3.9473h-5.4565v-20.781h-8.1267v-4.2955h21.594v4.2955h-8.0107zm30.766-3.0185c-2.438 2.3219-5.5727 3.3668-9.636 3.3668-4.0634 0-7.3141-1.161-9.636-3.3668-2.438-2.322-3.599-5.3405-3.599-9.4038 0-2.5541 0.4644-4.6439 1.2771-6.3853 0.5804-1.2771 1.5092-2.438 2.5541-3.4829 1.0448-1.0449 2.2058-1.7415 3.4829-2.2058 1.7414-0.6966 3.599-1.0449 5.9209-1.0449 4.0633 0 7.198 1.161 9.636 3.4829s3.599 5.4565 3.599 9.5199c-0.1161 4.0633-1.2771 7.1979-3.599 9.5199m27.283 3.0185-5.4565-18.692-5.4565 18.692h-5.921l-6.5014-25.077h5.5727l4.0633 17.182 4.9922-17.182h6.5014l4.7599 17.53 4.1795-17.53h5.5726l-6.6175 25.077zm32.623-19.852h-7.4302c-4.5277 0-6.6175 2.9024-7.0819 5.3404h14.628v4.76h-14.628c0.4644 2.438 2.6703 5.3404 7.0819 5.3404h7.4302v5.1083h-6.9658c-9.5199 0-13.699-6.5014-13.699-12.771s4.1795-12.771 13.699-12.771h6.9658zm17.53 14.396c-1.3931-1.9737-2.3219-3.1346-2.9024-3.7151-0.4644-0.4644-1.0448-0.8127-1.6253-1.0449s-1.5093-0.2322-2.7863-0.2322h-1.161v10.449h-5.4565v-25.077h11.61c2.9024 0 4.9921 0.2322 6.3853 0.6966 1.2771 0.4643 2.3219 1.277 3.1346 2.438 0.8127 1.1609 1.161 2.438 1.161 3.9472 0 1.8576-0.5805 3.4829-1.8576 4.6439-1.1609 1.2771-3.0185 1.9736-5.3404 2.3219 1.161 0.5805 2.2058 1.3932 2.9024 2.0898 0.8127 0.8126 1.8575 2.0897 3.1346 4.0633l3.3668 4.8761h-6.6175z" stroke-width="1.161"/><polygon transform="matrix(1.161 0 0 1.161 1065.6 1115.3)" points="222.4 102.7 222.4 85 215.6 85 215.6 81.4 233.8 81.4 233.8 85 227 85 227 102.7"/><path d="m1340.6 1234.5v-24.728h11.378c2.9024 0 4.876 0.2322 6.2692 0.6966 1.277 0.4644 2.3219 1.2771 3.1346 2.3219 0.8126 1.161 1.1609 2.438 1.1609 3.9473 0 1.8575-0.5804 3.3668-1.7414 4.6439-1.161 1.1609-2.9024 1.9736-5.2243 2.3219 1.1609 0.5805 2.0897 1.277 2.9024 2.0897 0.8126 0.6966 1.7414 2.0897 3.0185 4.0634l3.2507 4.876h-6.6175l-3.9473-5.3404c-1.3932-1.9736-2.3219-3.1346-2.7863-3.599s-1.0449-0.8127-1.6254-1.0449c-0.5804-0.2321-1.5092-0.2321-2.6702-0.2321h-1.0448v10.332h-5.4566zm5.3405-14.28h3.9472c2.5542 0 4.1795-0.1161 4.8761-0.3483s1.1609-0.5805 1.5092-1.0449 0.5805-1.1609 0.5805-1.8575c0-0.8127-0.2322-1.5093-0.6966-1.9736-0.4643-0.4644-1.1609-0.8127-2.0897-0.9288-0.4644 0-1.7414-0.1161-3.9473-0.1161h-4.1794z" stroke-width="1.161"/><path d="m1391.5 1234.5h-5.8048l-2.3219-5.6887h-10.681l-2.2058 5.6887h-5.6887l10.449-24.845h5.6888zm-9.8682-9.7521-3.715-9.1716-3.599 9.1716z" stroke-width="1.161"/><polygon transform="matrix(1.161 0 0 1.161 1065.6 1115.3)" points="297.2 81.4 301.5 81.4 301.5 102.7 296.8 102.7 287.6 88.8 287.6 102.7 283.3 102.7 283.3 81.4 287.8 81.4 297.2 95.6"/><rect x="1446" y="1209.8" width="5.3404" height="24.845" stroke-width="1.161"/><polygon transform="matrix(1.161 0 0 1.161 1065.6 1115.3)" points="341.9 102.7 341.9 85 335.1 85 335.1 81.4 353.3 81.4 353.3 85 346.5 85 346.5 102.7"/></g></g></g><g transform="matrix(.15119 .0032094 -.0013492 .15123 285.11 814.55)" fill="#fff"><path d="m322.9 85h-8.5c-1.5 0-2.2 0.7-2.2 1.6 0 1.9 11.8 4.8 11.8 9.1 0 2.9-1.9 6.4-8.4 6.4h-9.9v-4.2h9.8c1.1 0 1.9-0.6 1.9-1.5 0-2.2-11.8-4.4-11.8-9.7 0-3.9 4-5.6 7.4-5.6h9.9z"/><path d="m109.9 83.4c-2 0-3.5 0.6-4.7 1.8s-1.8 3.1-1.8 5.6c0 2.4 0.6 4.3 1.8 5.6s2.8 1.9 4.7 1.9 3.4-0.6 4.6-1.9c1.2-1.2 1.8-3.1 1.8-5.6s-0.6-4.3-1.8-5.5c-1.1-1.3-2.7-1.9-4.6-1.9"/><path d="m187.2 86.4c0-0.7-0.2-1.3-0.6-1.8-0.4-0.4-1-0.7-1.8-0.8-0.4 0-1.5-0.1-3.5-0.1h-3.7v5.5h3.5c2.3 0 3.7-0.1 4.3-0.3s1-0.5 1.3-0.9c0.3-0.5 0.5-1 0.5-1.6"/><path d="m105 210c42.2 0 78.6-24.9 95.3-60.8-65.9-13.8-128.6-22.9-198.4-24.5 9.2 48.6 51.8 85.3 103.1 85.3"/><path d="m0.6 116.2c0.2 1.5 0.3 3 0.6 4.5 19.3 0.8 140.5 5.1 204.1 15.4 0.6-1.8 1.1-3.6 1.5-5.4-66.9-7.5-136.8-13-206.2-14.5"/><path d="m210 105c0-58-47-105-105-105s-105 47-105 105c0 2.5 0.1 4.9 0.3 7.3 20.3 0.4 144.4 1.5 208.7 7 0.7-4.6 1-9.4 1-14.3m-118.3-3.4h-4.7v-17.9h-7v-3.7h18.6v3.7h-6.9zm26.5-2.6c-2.1 2-4.8 2.9-8.3 2.9s-6.3-1-8.3-2.9c-2.1-2-3.1-4.6-3.1-8.1 0-2.2 0.4-4 1.1-5.5 0.5-1.1 1.3-2.1 2.2-3s1.9-1.5 3-1.9c1.5-0.6 3.1-0.9 5.1-0.9 3.5 0 6.2 1 8.3 3s3.1 4.7 3.1 8.2c-0.1 3.5-1.1 6.2-3.1 8.2m23.5 2.6-4.7-16.1-4.7 16.1h-5.1l-5.6-21.6h4.8l3.5 14.8 4.3-14.8h5.6l4.1 15.1 3.6-15.1h4.8l-5.7 21.6zm28.1-17.1h-6.4c-3.9 0-5.7 2.5-6.1 4.6h12.6v4.1h-12.6c0.4 2.1 2.3 4.6 6.1 4.6h6.4v4.4h-6c-8.2 0-11.8-5.6-11.8-11s3.6-11 11.8-11h6zm15.1 12.4c-1.2-1.7-2-2.7-2.5-3.2-0.4-0.4-0.9-0.7-1.4-0.9s-1.3-0.2-2.4-0.2h-1v9h-4.7v-21.6h10c2.5 0 4.3 0.2 5.5 0.6 1.1 0.4 2 1.1 2.7 2.1s1 2.1 1 3.4c0 1.6-0.5 3-1.6 4-1 1.1-2.6 1.7-4.6 2 1 0.5 1.9 1.2 2.5 1.8 0.7 0.7 1.6 1.8 2.7 3.5l2.9 4.2h-5.7z"/><polygon points="227 102.7 222.4 102.7 222.4 85 215.6 85 215.6 81.4 233.8 81.4 233.8 85 227 85"/><path d="m236.9 102.7v-21.3h9.8c2.5 0 4.2 0.2 5.4 0.6 1.1 0.4 2 1.1 2.7 2 0.7 1 1 2.1 1 3.4 0 1.6-0.5 2.9-1.5 4-1 1-2.5 1.7-4.5 2 1 0.5 1.8 1.1 2.5 1.8 0.7 0.6 1.5 1.8 2.6 3.5l2.8 4.2h-5.7l-3.4-4.6c-1.2-1.7-2-2.7-2.4-3.1s-0.9-0.7-1.4-0.9-1.3-0.2-2.3-0.2h-0.9v8.9h-4.7zm4.6-12.3h3.4c2.2 0 3.6-0.1 4.2-0.3s1-0.5 1.3-0.9 0.5-1 0.5-1.6c0-0.7-0.2-1.3-0.6-1.7s-1-0.7-1.8-0.8c-0.4 0-1.5-0.1-3.4-0.1h-3.6z"/><path d="m280.7 102.7h-5l-2-4.9h-9.2l-1.9 4.9h-4.9l9-21.4h4.9zm-8.5-8.4-3.2-7.9-3.1 7.9z"/><polygon points="301.5 81.4 301.5 102.7 296.8 102.7 287.6 88.8 287.6 102.7 283.3 102.7 283.3 81.4 287.8 81.4 297.2 95.6 297.2 81.4"/><rect x="327.7" y="81.4" width="4.6" height="21.4"/><polygon points="346.5 102.7 341.9 102.7 341.9 85 335.1 85 335.1 81.4 353.3 81.4 353.3 85 346.5 85"/></g></svg>
