<?xml version="1.0" encoding="UTF-8" standalone="no"?>
<!-- Generator: Adobe Illustrator 16.0.3, SVG Export Plug-In . SVG Version: 6.00 Build 0)  -->

<svg
   xmlns:dc="http://purl.org/dc/elements/1.1/"
   xmlns:cc="http://creativecommons.org/ns#"
   xmlns:rdf="http://www.w3.org/1999/02/22-rdf-syntax-ns#"
   xmlns:svg="http://www.w3.org/2000/svg"
   xmlns="http://www.w3.org/2000/svg"
   xmlns:sodipodi="http://sodipodi.sourceforge.net/DTD/sodipodi-0.dtd"
   xmlns:inkscape="http://www.inkscape.org/namespaces/inkscape"
   version="1.1"
   x="0px"
   y="0px"
   width="233.56375"
   height="55.440685"
   viewBox="0 0 233.56376 55.440687"
   enable-background="new 0 0 536.022 55.44"
   xml:space="preserve"
   id="svg1172"
   sodipodi:docname="lecip.svg"
   inkscape:version="0.92.2 5c3e80d, 2017-08-06"><metadata
     id="metadata1178"><rdf:RDF><cc:Work
         rdf:about=""><dc:format>image/svg+xml</dc:format><dc:type
           rdf:resource="http://purl.org/dc/dcmitype/StillImage" /><dc:title></dc:title></cc:Work></rdf:RDF></metadata><defs
     id="defs1176" /><sodipodi:namedview
     pagecolor="#ffffff"
     bordercolor="#666666"
     borderopacity="1"
     objecttolerance="10"
     gridtolerance="10"
     guidetolerance="10"
     inkscape:pageopacity="0"
     inkscape:pageshadow="2"
     inkscape:window-width="1122"
     inkscape:window-height="790"
     id="namedview1174"
     showgrid="false"
     inkscape:zoom="1.8046314"
     inkscape:cx="63.616251"
     inkscape:cy="115.15436"
     inkscape:window-x="0"
     inkscape:window-y="0"
     inkscape:window-maximized="0"
     inkscape:current-layer="svg1172" /><g
     id="レイヤー_1"
     transform="translate(-2.1932563,2.1564177e-4)" /><g
     id="g1135"
     transform="translate(-2.1932563,2.1564177e-4)"
     style="fill:#c5c5c5;fill-opacity:1"><path
       d="m 41.691,42.93 c 0.596,-0.797 1.889,-1.329 1.889,0.124 v 9.938 c 0,0.611 -0.494,1.101 -1.094,1.101 H 5.538 c -0.604,0 -1.098,-0.489 -1.098,-1.101 0,0 0,-32.387 0,-42.951 C 4.44,6.866 3.063,4.3 2.331,2.745 1.874,1.771 2.636,1.355 3.418,1.355 L 21.3,1.36 c 0.604,0 1.093,0.487 1.093,1.094 l -0.015,45.409 c 0,0.602 0.483,1.089 1.096,1.089 0.842,0 2.625,0 3.64,0 2.428,0 9.744,0.496 14.577,-6.022 z"
       id="path1125"
       inkscape:connector-curvature="0"
       style="fill:#c5c5c5;fill-opacity:1" /><path
       d="m 157.498,54.092 c -0.604,0 -1.096,-0.489 -1.096,-1.101 0,0 0,-32.387 0,-42.951 0,-3.175 -1.384,-5.741 -2.107,-7.296 -0.461,-0.973 0.297,-1.389 1.083,-1.389 h 17.769 c 0.604,0 1.092,0.492 1.092,1.094 0,0 0,32.39 0,42.954 0,3.173 1.39,5.743 2.118,7.294 0.457,0.979 -0.299,1.395 -1.094,1.395 z"
       id="path1127"
       inkscape:connector-curvature="0"
       style="fill:#c5c5c5;fill-opacity:1" /><path
       d="m 81.748,33.245 c 0.838,1.103 1.886,1.323 1.886,-0.137 v -9.041 c 0,-0.611 -0.494,-1.081 -1.096,-1.081 H 71.632 c -0.6,0 -1.085,-0.479 -1.085,-1.085 L 70.527,7.582 c 0,-0.603 0.489,-1.09 1.089,-1.09 0.851,0 3.612,0 4.632,0 5.412,0 9.667,0.72 14.583,7.178 0.836,1.106 1.884,1.323 1.884,-0.128 V 2.454 C 92.715,1.848 92.219,1.36 91.619,1.36 L 52.554,1.355 c -0.788,0 -1.546,0.416 -1.089,1.389 0.732,1.555 2.114,4.121 2.114,7.296 0,10.564 0,42.951 0,42.951 0,0.611 0.49,1.101 1.094,1.101 h 36.948 c 0.6,0 1.096,-0.489 1.096,-1.101 v -9.938 c 0,-1.453 -1.297,-0.921 -1.884,-0.124 -4.845,6.519 -12.149,6.022 -14.583,6.022 -1.02,0 -3.781,0 -4.632,0 -0.6,0 -1.089,-0.487 -1.089,-1.089 l 0.02,-16.888 c 0,-1.644 1.354,-2.136 2.594,-2.136 1.59,0 5.297,0.642 8.459,4.18"
       id="path1129"
       inkscape:connector-curvature="0"
       style="fill:#c5c5c5;fill-opacity:1" /><path
       d="m 101.141,27.721 c 0,-28.715 20.977,-27.717 23.608,-27.717 7.859,0 14.56,2.419 18.59,4.492 0.563,0.277 0.877,0.859 0.877,1.617 0,0 0,4.821 0,8.267 0,2.051 -1.022,1.659 -2.285,0.199 -1.906,-2.216 -6.813,-8.957 -12.693,-8.957 -5.906,0 -9.644,5.144 -9.644,22.099 0,16.957 3.738,22.101 9.644,22.101 5.88,0 10.787,-6.753 12.693,-8.964 1.263,-1.466 2.285,-1.85 2.285,0.194 0,3.441 0,8.275 0,8.275 0,0.752 -0.314,1.336 -0.877,1.62 -4.03,2.07 -10.731,4.489 -18.59,4.489 -2.631,10e-4 -23.608,1.005 -23.608,-27.715 z"
       id="path1131"
       inkscape:connector-curvature="0"
       style="fill:#c5c5c5;fill-opacity:1" /><path
       d="m 225.452,1.371 h -37.918 c -0.999,-0.098 -1.757,0.32 -1.3,1.293 0.73,1.559 2.114,4.116 2.114,7.291 0,10.573 0,43.036 0,43.036 0,0.611 0.489,1.101 1.094,1.101 h 17.544 c 0.786,0 1.542,-0.416 1.091,-1.395 -0.729,-1.551 -2.099,-4.121 -2.099,-7.294 V 34.382 c 0,-0.612 0.49,-1.1 1.099,-1.1 h 12.829 c 12.69,0 15.851,-7.79 15.851,-16.293 V 12.363 C 235.756,9.609 233.668,1.371 225.452,1.371 Z m -7.407,14.261 c 0,5.953 -0.381,10.928 -7.995,10.928 h -2.984 c -0.608,0 -1.099,-0.507 -1.099,-1.111 V 8.007 c 0,-0.596 0.49,-1.09 1.099,-1.09 0.045,0 1.37,0 3.465,0 5.384,0 7.515,2.356 7.515,7.859 v 0.856 z"
       id="path1133"
       inkscape:connector-curvature="0"
       style="fill:#c5c5c5;fill-opacity:1" /></g></svg>