<?xml version="1.0" encoding="UTF-8" standalone="no"?>
<svg
   xmlns:dc="http://purl.org/dc/elements/1.1/"
   xmlns:cc="http://creativecommons.org/ns#"
   xmlns:rdf="http://www.w3.org/1999/02/22-rdf-syntax-ns#"
   xmlns:svg="http://www.w3.org/2000/svg"
   xmlns="http://www.w3.org/2000/svg"
   height="158.57625"
   width="198.194"
   xml:space="preserve"
   viewBox="0 0 198.194 158.57625"
   y="0px"
   x="0px"
   id="Capa_1"
   version="1.1"><metadata
     id="metadata873"><rdf:RDF><cc:Work
         rdf:about=""><dc:format>image/svg+xml</dc:format><dc:type
           rdf:resource="http://purl.org/dc/dcmitype/StillImage" /><dc:title></dc:title></cc:Work></rdf:RDF></metadata><defs
     id="defs871" /><g
     transform="translate(0,-19.80875)"
     id="g836"><path
       id="path834"
       d="m 132.447,46.884 h -88.02 l 7.267,-7.267 c 4.531,-4.531 4.531,-11.873 0,-16.41 -4.531,-4.531 -11.873,-4.531 -16.41,0 L 8.214,50.277 C 8.209,50.282 8.203,50.282 8.203,50.282 L 0,58.491 8.202,66.688 c 0,0 0.005,0.005 0.011,0.016 L 37.214,95.7 c 2.268,2.268 5.238,3.399 8.202,3.399 2.975,0 5.939,-1.131 8.208,-3.399 4.531,-4.531 4.531,-11.873 0,-16.41 l -9.197,-9.197 h 88.02 c 23.459,0 42.544,19.091 42.544,42.544 0,23.453 -19.091,42.544 -42.544,42.544 H 16.421 c -6.413,0 -11.607,5.194 -11.607,11.602 0,6.407 5.194,11.602 11.607,11.602 h 116.026 c 36.257,0 65.747,-29.496 65.747,-65.747 0,-36.251 -29.491,-65.754 -65.747,-65.754 z"
       style="fill:#010002" /></g><g
     transform="translate(0,-19.80875)"
     id="g838" /><g
     transform="translate(0,-19.80875)"
     id="g840" /><g
     transform="translate(0,-19.80875)"
     id="g842" /><g
     transform="translate(0,-19.80875)"
     id="g844" /><g
     transform="translate(0,-19.80875)"
     id="g846" /><g
     transform="translate(0,-19.80875)"
     id="g848" /><g
     transform="translate(0,-19.80875)"
     id="g850" /><g
     transform="translate(0,-19.80875)"
     id="g852" /><g
     transform="translate(0,-19.80875)"
     id="g854" /><g
     transform="translate(0,-19.80875)"
     id="g856" /><g
     transform="translate(0,-19.80875)"
     id="g858" /><g
     transform="translate(0,-19.80875)"
     id="g860" /><g
     transform="translate(0,-19.80875)"
     id="g862" /><g
     transform="translate(0,-19.80875)"
     id="g864" /><g
     transform="translate(0,-19.80875)"
     id="g866" /></svg>